Utopia-Bold.sfdir
StartChar: exclam
Encoding: 33 33 1
Width: 278
Flags: W
HStem: -12 21G<111.5 167> -12 186<111.5 167> 687 20G<96 182.5>
VStem: 47 184<81 108 81 108> 53 173
LayerCount: 2
Fore
SplineSet
139 707 m 0xb8
 226 707 233 671 222 592 c 2
 171 219 l 1
 107 219 l 1
 57 592 l 2
 46 671 53 707 139 707 c 0xb8
139 -12 m 0xb0
 84 -12 47 26 47 81 c 0
 47 135 84 174 139 174 c 0x70
 195 174 231 135 231 81 c 0
 229 26 195 -12 139 -12 c 0xb0
EndSplineSet
EndChar
StartChar: quotedbl
Encoding: 34 34 2
Width: 473
Flags: MW
HStem: 687 20G<109 171 301 363>
VStem: 71 139 263 139
LayerCount: 2
Fore
SplineSet
163 407 m 1
 117 407 l 1
 74 630 l 2
 64 682 78 707 140 707 c 0
 202 707 217 683 207 630 c 2
 163 407 l 1
355 407 m 1
 309 407 l 1
 266 630 l 2
 256 682 270 707 332 707 c 0
 394 707 409 683 399 630 c 2
 355 407 l 1
EndSplineSet
EndChar
StartChar: numbersign
Encoding: 35 35 3
Width: 560
Flags: MW
HStem: 0 21G<44 121 44 44 233 309 233 233> 219 72<14 110 14 131 208 299 14 187 395 494> 398 72<67 163 67 185 261 352 67 240 449 547> 648 20G<244 320 320 320 433 508 508 508>
VStem: 14 533<219 398 291 398>
LayerCount: 2
Fore
SplineSet
352 398 m 1
 240 398 l 1
 208 291 l 1
 320 291 l 1
 352 398 l 1
547 398 m 1
 427 398 l 1
 395 291 l 1
 494 291 l 1
 494 219 l 1
 374 219 l 1
 309 0 l 1
 233 0 l 1
 299 219 l 1
 187 219 l 1
 121 0 l 1
 44 0 l 1
 110 219 l 1
 14 219 l 1
 14 291 l 1
 131 291 l 1
 163 398 l 1
 67 398 l 1
 67 470 l 1
 185 470 l 1
 244 668 l 1
 320 668 l 1
 261 470 l 1
 374 470 l 1
 433 668 l 1
 508 668 l 1
 449 470 l 1
 547 470 l 1
 547 398 l 1
EndSplineSet
EndChar
StartChar: dollar
Encoding: 36 36 4
Width: 560
Flags: MW
HStem: 0 46<248 248 304 330.5> 622 46<248 248>
VStem: 39 122<506 541> 248 56<-104 0 -104 0 46 262 438 622 668 748> 395 129
LayerCount: 2
Fore
SplineSet
248 438 m 1
 248 622 l 1
 197 619 161 580 161 530 c 0
 161 482 199 451 248 438 c 1
248 46 m 1
 248 281 l 1
 196 300 l 2
 106 334 39 385 39 478 c 0
 39 604 133 664 248 668 c 1
 248 748 l 1
 304 748 l 1
 304 668 l 1
 436 665 496 600 496 558 c 0
 496 510 441 497 422 497 c 0
 400 497 391 506 384 524 c 0
 358 595 330 617 304 622 c 1
 304 416 l 1
 350 399 l 2
 456 359 523 307 524 197 c 0
 523 53 396 0 304 0 c 1
 304 -104 l 1
 248 -104 l 1
 248 0 l 1
 80 6 38 88 38 122 c 0
 38 165 84 194 110 194 c 0
 134 194 145 184 154 162 c 0
 191 69 228 50 248 46 c 1
304 262 m 1
 304 46 l 1
 357 46 395 80 395 139 c 0
 395 200 358 241 304 262 c 1
EndSplineSet
EndChar
StartChar: percent
Encoding: 37 37 5
Width: 887
Flags: W
HStem: -12 21G<613.5 729.5> -12 40<651.5 691.5 651.5 729.5> 308 40<196.5 236 196.5 268> 320 40<653 690> 590 43<382 526 526 555 382 564 378 526> 640 40<197.5 235> 648 20G<682 682> 681 20G<635 635>
VStem: 40 114<442 550 442 555.5> 278 114<442 516.5 432.5 550> 495 114<122 230 122 235.5> 733 114<122 230>
LayerCount: 2
Fore
SplineSet
672 320 m 0x74f0
 634 320 609 286 609 174 c 0
 609 70 631 28 672 28 c 0
 711 28 733 70 733 174 c 0
 733 286 708 320 672 320 c 0x74f0
672 -12 m 0x54f0
 555 -12 495 51 495 174 c 0
 495 297 555 360 672 360 c 0
 787 360 847 297 847 174 c 0
 847 51 787 -12 672 -12 c 0x54f0
635 701 m 1x69f0
 682 668 l 1
 252 -31 l 1
 205 6 l 1
 564 590 l 1
 378 590 l 1xaaf0
 385 567 392 539 392 494 c 0
 392 371 326 308 210 308 c 0
 100 308 40 371 40 494 c 0
 40 617 100 680 216 680 c 0x64f0
 273 680 303 666 337 646 c 0
 348 640 362 633 382 633 c 2
 526 633 l 2
 584 633 595 642 614 670 c 2
 635 701 l 1x69f0
216 640 m 0x64f0
 179 640 154 606 154 494 c 0
 154 390 177 348 216 348 c 0
 256 348 278 390 278 494 c 0
 278 606 254 640 216 640 c 0x64f0
EndSplineSet
EndChar
StartChar: ampersand
Encoding: 38 38 6
Width: 748
Flags: W
HStem: -12 74<304.5 317> -7 31<730 734> 634 46<296.5 328.5>
VStem: 45 146<172 233.5> 129 124<523.5 552.5> 373 119<512 571> 571 131
LayerCount: 2
Fore
SplineSet
317 414 m 1xbe
 348 438 373 482 373 542 c 0
 373 600 344 634 313 634 c 0
 280 634 253 600 253 549 c 0
 253 498 278 454 317 414 c 1xbe
318 680 m 0
 417 680 492 622 492 531 c 0
 492 446 424 404 358 373 c 1
 402 322 467 254 536 187 c 1
 585 248 573 340 560 400 c 1
 589 430 641 446 671 443 c 1
 695 420 702 387 702 355 c 0
 702 285 629 194 580 150 c 1
 634 97 698 40 734 24 c 1
 730 -7 l 1
 684 -6 l 2x76
 602 -3 548 14 489 57 c 1
 428 13 360 -12 274 -12 c 0
 151 -12 45 56 45 186 c 0xb6
 45 281 129 333 186 359 c 1
 155 400 129 451 129 500 c 0
 129 605 203 680 318 680 c 0
223 310 m 1xb6
 208 297 191 263 191 218 c 0
 191 126 262 62 347 62 c 0
 386 62 426 73 444 91 c 1
 351 166 267 257 223 310 c 1xb6
EndSplineSet
EndChar
StartChar: quotesingle
Encoding: 169 39 103
Width: 252
Flags: MW
HStem: 687 20G<95 157>
VStem: 57 139
LayerCount: 2
Fore
SplineSet
149 407 m 1
 103 407 l 1
 60 630 l 2
 50 682 64 707 126 707 c 0
 188 707 203 683 193 630 c 2
 149 407 l 1
EndSplineSet
EndChar
StartChar: parenleft
Encoding: 40 40 8
Width: 365
Flags: MW
HStem: -135 34<339 344> 665 34<339 344>
VStem: 99 101<220.5 343.5 220.5 361.5>
LayerCount: 2
Fore
SplineSet
200 282 m 0
 200 159 228 -66 344 -101 c 1
 339 -135 l 1
 132 -130 99 123 99 282 c 0
 99 441 132 694 339 699 c 1
 344 665 l 1
 228 630 200 405 200 282 c 0
EndSplineSet
EndChar
StartChar: parenright
Encoding: 41 41 9
Width: 365
Flags: MW
HStem: 665 34<21 26>
VStem: 165 101<220.5 343.5>
LayerCount: 2
Fore
SplineSet
165 282 m 0
 165 405 137 632 21 665 c 1
 26 699 l 1
 233 694 266 441 266 282 c 0
 266 123 233 -130 26 -135 c 1
 21 -101 l 1
 137 -68 165 159 165 282 c 0
EndSplineSet
EndChar
StartChar: asterisk
Encoding: 42 42 10
Width: 442
Flags: W
HStem: 467 36 467 96 483 20G<167 167 276 276> 687 20G<205 237>
VStem: 41 203 176 91 198 46<582 582>
LayerCount: 2
Fore
SplineSet
221 707 m 0x76
 253 707 272 692 265 665 c 2
 244 582 l 2
 240 565 249 556 262 568 c 2
 332 633 l 2
 353 651 374 646 390 622 c 0
 412 590 404 568 373 558 c 2x52
 277 525 l 2
 262 520 265 506 276 503 c 2
 373 473 l 2x34
 404 463 409 435 391 408 c 0
 370 376 348 374 324 399 c 2
 262 462 l 2
 251 474 240 463 244 449 c 2
 266 364 l 2
 273 337 260 315 221 315 c 0
 182 315 169 337 176 364 c 2
 199 449 l 2
 203 463 192 473 181 462 c 2
 119 399 l 2
 95 374 72 376 51 408 c 0
 33 435 39 463 69 473 c 2x98
 167 503 l 2
 179 506 180 520 166 525 c 2
 69 558 l 2x34
 39 568 30 590 52 622 c 0
 68 646 90 651 110 633 c 2
 180 568 l 2
 194 556 203 565 198 582 c 2
 177 665 l 2
 170 692 189 707 221 707 c 0x76
EndSplineSet
EndChar
StartChar: plus
Encoding: 43 43 11
Width: 600
Flags: MW
HStem: 0 21G<252 348 252 252> 210 80<58 252 58 252 348 542> 470 20G<252 348 348 348>
VStem: 252 96<0 210 0 210 290 490>
LayerCount: 2
Fore
SplineSet
58 210 m 1
 58 290 l 1
 252 290 l 1
 252 490 l 1
 348 490 l 1
 348 290 l 1
 542 290 l 1
 542 210 l 1
 348 210 l 1
 348 0 l 1
 252 0 l 1
 252 210 l 1
 58 210 l 1
EndSplineSet
EndChar
StartChar: comma
Encoding: 44 44 12
Width: 280
Flags: MW
HStem: -167 347<70 134>
VStem: 100 126<-32 101>
LayerCount: 2
Fore
SplineSet
70 -167 m 1
 40 -138 l 1
 75 -99 100 -56 100 -8 c 0
 100 40 60 61 60 107 c 0
 61 145 85 180 134 180 c 0
 185 181 226 137 226 65 c 0
 226 -27 137 -113 70 -167 c 1
EndSplineSet
EndChar
StartChar: hyphen
Encoding: 45 45 13
Width: 392
Flags: MW
HStem: 203 95<65 328 65 328>
VStem: 65 263<203 298 203 298>
LayerCount: 2
Fore
SplineSet
65 298 m 1
 328 298 l 1
 328 203 l 1
 65 203 l 1
 65 298 l 1
EndSplineSet
EndChar
StartChar: period
Encoding: 46 46 14
Width: 280
Flags: W
HStem: -12 21G<112.5 168> -12 186<112.5 168>
VStem: 48 184<81 108 81 108>
LayerCount: 2
Fore
SplineSet
140 -12 m 0xa0
 85 -12 48 26 48 81 c 0
 48 135 85 174 140 174 c 0x60
 196 174 232 135 232 81 c 0
 230 26 196 -12 140 -12 c 0xa0
EndSplineSet
EndChar
StartChar: slash
Encoding: 47 47 15
Width: 378
Flags: MW
HStem: -15 21G<34 134 34 34> 687 20G<244 344 344 344>
VStem: 34 310
LayerCount: 2
Fore
SplineSet
134 -15 m 1
 34 -15 l 1
 244 707 l 1
 344 707 l 1
 134 -15 l 1
EndSplineSet
EndChar
StartChar: zero
Encoding: 48 48 16
Width: 560
Flags: MW
HStem: -12 46<239.5 322 239.5 376> 634 46<239.5 322>
VStem: 31 158<277 391 277 426.5> 372 158<277 391>
LayerCount: 2
Fore
SplineSet
281 634 m 0
 198 634 189 448 189 334 c 0
 189 220 198 34 281 34 c 0
 363 34 372 220 372 334 c 0
 372 448 363 634 281 634 c 0
281 680 m 0
 468 680 530 517 530 334 c 0
 530 150 471 -12 281 -12 c 0
 92 -12 31 153 31 334 c 0
 31 519 91 680 281 680 c 0
EndSplineSet
EndChar
StartChar: one
Encoding: 49 49 17
Width: 560
Flags: W
HStem: 0 41 652 20G<356 356> 660 20G<347 347>
VStem: 205 151<85 547 547 565>
LayerCount: 2
Fore
SplineSet
459 0 m 1xb0
 102 0 l 1
 102 38 l 1
 170 44 l 2
 194 46 205 53 205 85 c 2
 205 547 l 2
 205 583 196 592 170 597 c 2
 108 610 l 1
 108 641 l 1
 347 680 l 1
 356 672 l 1xd0
 356 85 l 2
 356 53 367 46 391 44 c 2
 459 38 l 1
 459 0 l 1xb0
EndSplineSet
EndChar
StartChar: two
Encoding: 50 50 18
Width: 560
Flags: MW
HStem: 0 121<165 420 420 441 165 499> 634 46<249.5 299.5>
VStem: 348 159<483 550.5>
LayerCount: 2
Fore
SplineSet
499 0 m 1
 44 0 l 1
 30 18 l 1
 32 85 81 168 221 283 c 0
 332 375 348 450 348 516 c 0
 348 585 325 634 274 634 c 0
 225 634 194 581 177 502 c 0
 171 475 154 464 133 464 c 0
 99 464 48 486 48 529 c 0
 48 616 150 680 281 680 c 0
 409 680 507 628 507 490 c 0
 507 386 441 333 325 271 c 0
 214 212 181 156 165 121 c 1
 420 121 l 2
 462 121 475 128 504 180 c 1
 539 175 l 1
 499 0 l 1
EndSplineSet
EndChar
StartChar: three
Encoding: 51 51 19
Width: 560
Flags: W
HStem: -12 46<241.5 294.5 241.5 341> 331 54<238 282> 634 46<241 295.5>
VStem: 336 155<499 537.5> 357 162<136 247.5>
LayerCount: 2
Fore
SplineSet
357 186 m 0xe8
 357 309 307 331 257 331 c 0xe8
 217 331 183 317 161 317 c 0
 140 317 132 335 132 358 c 0
 132 382 140 399 161 399 c 0
 183 399 219 385 257 385 c 0
 330 385 336 481 336 517 c 0
 336 558 326 634 265 634 c 0
 217 634 191 593 169 519 c 0
 162 497 149 484 127 484 c 0
 103 484 49 502 49 547 c 0
 49 622 148 680 265 680 c 0
 368 680 491 648 491 510 c 0xf0
 491 412 405 380 352 366 c 1
 352 362 l 1
 390 356 519 327 519 184 c 0
 519 57 422 -12 260 -12 c 0
 78 -12 27 81 27 119 c 0
 27 165 75 192 111 192 c 0
 134 192 149 176 155 158 c 0
 183 67 219 34 264 34 c 0
 325 34 357 86 357 186 c 0xe8
EndSplineSet
EndChar
StartChar: four
Encoding: 52 52 20
Width: 560
Flags: MW
HStem: 0 40.5 173 69<123 292 123 292 433 533> 648 20G<313 433 433 433>
VStem: 292 141<75 173 63.5 173 242 539 539 539>
LayerCount: 2
Fore
SplineSet
292 173 m 1
 38 173 l 1
 19 203 l 1
 108 355 206 512 313 668 c 1
 433 668 l 1
 433 242 l 1
 533 242 l 1
 533 173 l 1
 433 173 l 1
 433 75 l 2
 433 52 443 44 459 42 c 2
 506 38 l 1
 506 0 l 1
 199 0 l 1
 199 38 l 1
 266 43 l 2
 281 44 292 52 292 75 c 2
 292 173 l 1
123 242 m 1
 292 242 l 1
 292 539 l 1
 290 539 l 1
 227 435 170 335 123 242 c 1
EndSplineSet
EndChar
StartChar: five
Encoding: 53 53 21
Width: 560
Flags: W
HStem: -12 46<249 302 249 360.5> 366 65<263 276.5> 547 121<176.5 190 190 456> 654 14<102 495>
VStem: 360 159<154 258>
LayerCount: 2
Fore
SplineSet
102 668 m 1xe8
 485 668 l 1xe8
 495 654 l 1xd8
 456 547 l 1
 190 547 l 2
 163 547 160 542 155 508 c 2
 136 374 l 1
 175 401 229 431 297 431 c 0
 476 431 519 305 519 215 c 0
 519 93 454 -12 267 -12 c 0
 90 -12 43 84 43 119 c 0
 43 163 87 192 119 192 c 0
 147 192 161 176 168 154 c 0
 197 66 227 34 271 34 c 0
 333 34 360 99 360 200 c 0
 360 316 311 366 242 366 c 0
 194 366 154 346 115 298 c 1
 74 328 l 1
 94 659 l 1
 102 668 l 1xe8
EndSplineSet
EndChar
StartChar: six
Encoding: 54 54 22
Width: 560
Flags: MW
HStem: -12 46<252 322.5 252 375> 348 82<307 309> 634 46<251 317>
VStem: 30 154<225 263.5 180 363> 383 154<160 250>
LayerCount: 2
Fore
SplineSet
309 680 m 0
 441 680 502 608 502 557 c 0
 502 516 453 497 427 497 c 0
 404 497 388 511 383 528 c 0
 365 594 338 634 296 634 c 0
 198 634 187 438 185 348 c 1
 187 348 l 1
 226 394 274 430 340 430 c 0
 444 430 537 361 537 220 c 0
 537 100 465 -12 285 -12 c 0
 97 -12 30 124 30 326 c 0
 30 400 42 481 76 548 c 0
 118 628 193 680 309 680 c 0
281 348 m 0
 219 348 184 293 184 234 c 0
 184 126 216 34 288 34 c 0
 357 34 383 104 383 194 c 0
 383 306 337 348 281 348 c 0
EndSplineSet
EndChar
StartChar: seven
Encoding: 55 55 23
Width: 560
Flags: W
HStem: -12 21G<216 254.5> 479 20G<34 34> 547 121<124.5 146 146 408> 656 12
VStem: 153 160
LayerCount: 2
Fore
SplineSet
77 668 m 1xe8
 517 668 l 1xe8
 530 656 l 1xd8
 514 559 475 492 380 353 c 0
 333 285 316 174 313 51 c 0
 312 -4 272 -12 237 -12 c 0
 195 -12 153 -4 153 54 c 0
 153 138 211 241 293 340 c 0
 374 438 398 514 408 547 c 1
 146 547 l 2
 103 547 91 531 79 508 c 2
 69 489 l 1
 34 499 l 1
 77 668 l 1xe8
EndSplineSet
EndChar
StartChar: eight
Encoding: 56 56 24
Width: 560
Flags: W
HStem: -12 46<248.5 311.5 248.5 346.5> 332 48<255.5 306 255.5 311> 634 46<255 306.5>
VStem: 27 158<141.5 227 141.5 234> 52 148<470 542.5 470 558> 360 148<470 542.5> 375 158<141.5 227>
LayerCount: 2
Fore
SplineSet
280 332 m 0xf2
 218 332 185 268 185 186 c 0
 185 97 217 34 280 34 c 0
 343 34 375 97 375 186 c 0
 375 268 342 332 280 332 c 0xf2
280 680 m 0xec
 422 680 508 618 508 501 c 0xf4
 508 426 462 382 401 363 c 1
 401 361 l 1
 482 337 533 279 533 189 c 0
 533 39 413 -12 280 -12 c 0
 148 -12 27 40 27 189 c 0xf2
 27 279 79 337 159 362 c 1
 159 364 l 1
 98 382 52 426 52 501 c 0
 52 615 140 680 280 680 c 0xec
280 380 m 0xec
 332 380 360 434 360 506 c 0
 360 579 333 634 280 634 c 0
 230 634 200 579 200 506 c 0
 200 434 231 380 280 380 c 0xec
EndSplineSet
EndChar
StartChar: nine
Encoding: 57 57 25
Width: 560
Flags: MW
HStem: -12 48<243.5 288 243.5 291.5> 255 76<257.5 264> 634 46<250 308.5>
VStem: 34 154<435.5 517> 369 154<317 317>
LayerCount: 2
Fore
SplineSet
34 454 m 0
 34 580 119 680 272 680 c 0
 368 680 430 647 469 591 c 0
 507 535 523 454 523 352 c 0
 523 209 493 113 444 59 c 0
 398 8 331 -12 252 -12 c 0
 102 -12 50 70 50 107 c 0
 50 149 95 176 124 176 c 0
 148 176 163 165 170 144 c 0
 199 58 225 36 262 36 c 0
 314 36 364 79 369 317 c 1
 367 317 l 1
 338 287 292 255 236 255 c 0
 129 255 34 319 34 454 c 0
279 634 m 0
 221 634 188 573 188 478 c 0
 188 393 225 331 290 331 c 0
 322 331 347 351 358 369 c 0
 368 385 370 405 370 433 c 0
 370 551 338 634 279 634 c 0
EndSplineSet
EndChar
StartChar: colon
Encoding: 58 58 26
Width: 280
Flags: W
HStem: -12 21G<112.5 168> -12 186<112.5 168> 304 186<112.5 168> 470 20G<112.5 168>
VStem: 48 184<81 108 81 108 397 424>
LayerCount: 2
Fore
SplineSet
140 490 m 0x98
 196 490 232 451 232 397 c 0
 230 342 196 304 140 304 c 0xa8
 85 304 48 342 48 397 c 0
 48 451 85 490 140 490 c 0x98
140 -12 m 0
 85 -12 48 26 48 81 c 0
 48 135 85 174 140 174 c 0x58
 196 174 232 135 232 81 c 0
 230 26 196 -12 140 -12 c 0
EndSplineSet
EndChar
StartChar: semicolon
Encoding: 59 59 27
Width: 280
Flags: W
HStem: 304 186<112.5 168> 470 20G<112.5 168>
VStem: 48 184<397 424 397 424> 100 126<-32 101>
LayerCount: 2
Fore
SplineSet
70 -167 m 1x60
 40 -138 l 1
 75 -99 100 -56 100 -8 c 0
 100 40 60 61 60 107 c 0
 61 145 85 180 134 180 c 0
 185 181 226 137 226 65 c 0x50
 226 -27 137 -113 70 -167 c 1x60
140 490 m 0x60
 196 490 232 451 232 397 c 0
 230 342 196 304 140 304 c 0xa0
 85 304 48 342 48 397 c 0
 48 451 85 490 140 490 c 0x60
EndSplineSet
EndChar
StartChar: less
Encoding: 60 60 28
Width: 600
Flags: MW
HStem: 473 20G<539 539>
VStem: 61 478<5 289 5 289>
LayerCount: 2
Fore
SplineSet
539 95 m 1
 539 5 l 1
 61 206 l 1
 61 289 l 1
 539 493 l 1
 539 402 l 1
 158 248 l 1
 539 95 l 1
EndSplineSet
EndChar
StartChar: equal
Encoding: 61 61 29
Width: 600
Flags: MW
HStem: 103 80<58 542 58 542> 317 80<58 542 58 542>
VStem: 58 484<103 183 103 183 317 397 103 397>
LayerCount: 2
Fore
SplineSet
58 317 m 1
 58 397 l 1
 542 397 l 1
 542 317 l 1
 58 317 l 1
58 103 m 1
 58 183 l 1
 542 183 l 1
 542 103 l 1
 58 103 l 1
EndSplineSet
EndChar
StartChar: greater
Encoding: 62 62 30
Width: 600
Flags: MW
HStem: 473 20G<61 61>
VStem: 61 478<5 289 95 289 206 493 206 493>
LayerCount: 2
Fore
SplineSet
61 5 m 1
 61 95 l 1
 442 248 l 1
 61 402 l 1
 61 493 l 1
 539 289 l 1
 539 206 l 1
 61 5 l 1
EndSplineSet
EndChar
StartChar: question
Encoding: 63 63 31
Width: 456
Flags: W
HStem: -12 21G<196.5 252> -12 186<196.5 252> 224 70<188 327.5> 273 21G 661 46<212 238>
VStem: 86 168<332 344.5> 132 184<81 108 81 108> 266 167<556.5 606.5>
LayerCount: 2
Fore
SplineSet
224 224 m 0xbe
 152 224 86 258 86 330 c 0x9c
 86 359 101 394 172 437 c 0
 237 477 266 529 266 584 c 0
 266 629 251 661 225 661 c 0
 199 661 179 634 159 551 c 0
 153 526 137 514 105 514 c 0
 72 514 20 537 20 582 c 0
 20 632 88 707 229 707 c 0
 346 707 433 659 433 559 c 0x99
 433 488 370 457 328 435 c 0
 278 409 254 377 254 347 c 0
 254 317 278 294 317 294 c 0
 338 294 353 297 364 300 c 1
 375 273 l 1x9c
 335 246 281 224 224 224 c 0xbe
224 -12 m 0x9a
 169 -12 132 26 132 81 c 0
 132 135 169 174 224 174 c 0x5a
 280 174 316 135 316 81 c 0
 314 26 280 -12 224 -12 c 0x9a
EndSplineSet
EndChar
StartChar: at
Encoding: 64 64 32
Width: 833
Flags: MW
HStem: -15 54<323.5 444.5> 161 52<278 388 592.5 643.5> 506 38<456 500 390.5 504> 647 60<376.5 534.5>
VStem: 45 109<252.5 397 252.5 432> 224 122<238.5 285.5 238.5 289> 476 103 722 75<375.5 487.5>
LayerCount: 2
Fore
SplineSet
346 253 m 0
 346 224 355 213 369 213 c 0
 407 213 471 336 492 400 c 2
 528 498 l 1
 520 504 509 506 499 506 c 0
 413 506 346 318 346 253 c 0
541 540 m 1
 651 540 l 1
 625 446 600 353 579 259 c 0
 574 237 575 213 610 213 c 0
 681 213 722 342 722 409 c 0
 722 566 605 647 464 647 c 0
 289 647 154 487 154 307 c 0
 154 198 217 39 430 39 c 0
 499 39 565 54 612 74 c 1
 623 39 l 1
 570 1 474 -15 415 -15 c 0
 215 -15 45 87 45 307 c 0
 45 557 248 707 472 707 c 0
 673 707 797 574 797 414 c 0
 797 302 723 161 564 161 c 0
 478 161 468 211 479 255 c 2
 491 309 l 1
 488 311 l 1
 442 214 384 161 304 161 c 0
 252 161 224 199 224 251 c 0
 224 327 290 544 491 544 c 0
 509 544 526 540 538 534 c 1
 541 540 l 1
EndSplineSet
EndChar
StartChar: A
Encoding: 65 65 33
Width: 644
Flags: W
HStem: 0 38<-28 206 -28 -28> 246 48<192 354 192 370 176 354> 553 139<273 276 273 273> 672 20G<262 388 388 388>
VStem: -28 234<0 38 0 38> -28 691<0 38 0 38>
LayerCount: 2
Fore
SplineSet
206 0 m 1xdc
 -28 0 l 1
 -28 38 l 1
 26 41 37 48 53 90 c 0
 77 151 110 252 146 355 c 2
 262 692 l 1
 388 692 l 1
 585 86 l 2
 598 45 611 39 663 38 c 1
 663 0 l 1
 347 0 l 1
 347 38 l 1
 405 44 l 2
 426 46 429 59 422 80 c 2
 370 246 l 1
 176 246 l 1
 158 187 140 133 128 79 c 0
 123 57 124 45 146 43 c 2
 206 38 l 1
 206 0 l 1xdc
192 294 m 1
 354 294 l 1
 276 553 l 1
 273 553 l 1xe4
 192 294 l 1
EndSplineSet
EndChar
StartChar: B
Encoding: 66 66 34
Width: 683
Flags: W
HStem: 0 38<33 363 33 33> 0 46<319 363> 343 46<272 321 272 321 321 323> 646 46<310 363 363 375> 654 38<33 363>
VStem: 112 160<97 111 111 343 389 595 595 609> 456 162<485 555.5> 470 175<162 230 162 369 162 371>
LayerCount: 2
Fore
SplineSet
272 343 m 1x75
 272 111 l 2
 272 62 294 46 344 46 c 0
 414 46 470 81 470 188 c 0
 470 272 423 343 323 343 c 2
 272 343 l 1x75
272 609 m 2
 272 389 l 1
 321 389 l 2
 417 389 456 444 456 518 c 0x76
 456 593 420 646 330 646 c 0
 290 646 272 643 272 609 c 2
33 692 m 1
 363 692 l 2
 521 692 618 648 618 526 c 0x76
 618 444 568 392 470 371 c 1
 470 369 l 1
 563 355 645 300 645 189 c 0
 645 135 629 87 588 54 c 0
 546 20 477 0 363 0 c 2
 33 0 l 1x75
 33 38 l 1
 104 41 112 46 112 97 c 2
 112 595 l 2
 112 646 104 651 33 654 c 1xad
 33 692 l 1
EndSplineSet
EndChar
StartChar: C
Encoding: 67 67 35
Width: 689
Flags: MW
HStem: -15 46<333 443> 661 46<352.5 448 352.5 478>
VStem: 42 177<298.5 389> 600 38<484 663>
LayerCount: 2
Fore
SplineSet
616 228 m 1
 654 228 l 1
 642 33 l 1
 582 -3 478 -15 408 -15 c 0
 151 -15 42 125 42 339 c 0
 42 439 67 534 128 602 c 0
 187 668 282 707 423 707 c 0
 473 707 578 699 638 663 c 1
 638 484 l 1
 600 484 l 1
 577 556 542 661 414 661 c 0
 233 661 219 428 219 355 c 0
 219 242 244 31 422 31 c 0
 535 31 578 118 616 228 c 1
EndSplineSet
EndChar
StartChar: D
Encoding: 68 68 36
Width: 777
Flags: W
HStem: 0 38<33 332 33 33> 0 46<320.5 332> 646 46<323.5 376 33 422> 654 38<33 376>
VStem: 112 160<97 595 595 618> 558 177<221 409 187 449.5>
LayerCount: 2
Fore
SplineSet
272 618 m 2x6c
 272 90 l 2
 272 58 289 46 352 46 c 0
 450 46 558 89 558 353 c 0
 558 546 489 646 355 646 c 0
 292 646 272 641 272 618 c 2x6c
33 692 m 1
 376 692 l 2
 506 691 590 663 648 606 c 0
 706 549 735 465 735 353 c 0
 735 21 488 0 332 0 c 2
 33 0 l 1x6c
 33 38 l 1
 104 41 112 46 112 97 c 2
 112 595 l 2
 112 646 104 651 33 654 c 1x9c
 33 692 l 1
EndSplineSet
EndChar
StartChar: E
Encoding: 69 69 37
Width: 629
Flags: W
HStem: 0 38<33 592 33 33> 0 46<349 454 349 592> 337 52<272 367 272 367> 646 46<293 307 307 382> 654 38<33 572>
VStem: 112 160<97 119 119 337 389 595 595 610> 459 38<247 479 247 479> 534 38<507 692>
LayerCount: 2
Fore
SplineSet
112 97 m 2xf7
 112 595 l 2
 112 646 104 651 33 654 c 1x6f
 33 692 l 1
 572 692 l 1
 572 507 l 1
 534 507 l 1
 503 606 485 646 382 646 c 2
 307 646 l 2
 279 646 272 639 272 610 c 2
 272 389 l 1
 367 389 l 2
 430 389 443 406 459 479 c 1
 497 479 l 1
 497 247 l 1
 459 247 l 1
 443 320 430 337 367 337 c 2
 272 337 l 1
 272 119 l 2
 272 55 303 46 395 46 c 0
 513 46 530 101 566 208 c 1
 604 208 l 1
 592 0 l 1
 33 0 l 1x77
 33 38 l 1
 104 41 112 46 112 97 c 2xf7
EndSplineSet
EndChar
StartChar: F
Encoding: 70 70 38
Width: 593
Flags: W
HStem: 0 38<37 372 37 37> 318 52<276 390 276 390> 646 46<297 311 311 378> 654 38<37 568>
VStem: 116 160<97 318 370 595 595 610> 482 38<228 460 228 460> 530 38<507 692>
LayerCount: 2
Fore
SplineSet
37 692 m 1xec
 568 692 l 1
 568 507 l 1
 530 507 l 1
 499 604 481 646 378 646 c 2
 311 646 l 2
 283 646 276 639 276 610 c 2xee
 276 370 l 1
 390 370 l 2
 453 370 466 387 482 460 c 1
 520 460 l 1
 520 228 l 1
 482 228 l 1
 466 301 453 318 390 318 c 2
 276 318 l 1
 276 97 l 2
 276 46 284 41 372 38 c 1
 372 0 l 1
 37 0 l 1
 37 38 l 1
 108 41 116 46 116 97 c 2
 116 595 l 2
 116 646 108 651 37 654 c 1xdc
 37 692 l 1xec
EndSplineSet
EndChar
StartChar: G
Encoding: 71 71 39
Width: 726
Flags: W
HStem: -15 46<377 444.5 319.5 448> 276 38<407 709 407 709> 661 46<331.5 453.5 254 474.5>
VStem: 42 177<317.5 405 317.5 410> 493 160<76 217 217 219 33 241.5> 605 38<481 663>
LayerCount: 2
Fore
SplineSet
643 663 m 1xfc
 643 481 l 1
 605 481 l 1xf4
 577 567 530 661 419 661 c 0
 244 661 219 456 219 354 c 0
 219 281 229 31 410 31 c 0
 479 31 493 41 493 76 c 2
 493 217 l 2
 493 266 485 271 407 276 c 1
 407 314 l 1
 709 314 l 1
 709 276 l 1
 661 271 653 266 653 219 c 2
 653 33 l 1xf8
 583 2 486 -15 410 -15 c 0
 344 -15 250 -9 177 40 c 0
 101 91 42 183 42 341 c 0
 42 479 94 707 414 707 c 0
 493 707 580 697 643 663 c 1xfc
EndSplineSet
EndChar
StartChar: H
Encoding: 72 72 40
Width: 807
Flags: MW
HStem: 0 38<33 351 33 33> 341 48<272 535 272 535> 654 38<33 351 33 351>
VStem: 112 160<97 341 389 595> 535 160<97 341 341 341 389 595>
LayerCount: 2
Fore
SplineSet
535 97 m 2
 535 341 l 1
 272 341 l 1
 272 97 l 2
 272 46 280 41 351 38 c 1
 351 0 l 1
 33 0 l 1
 33 38 l 1
 104 41 112 46 112 97 c 2
 112 595 l 2
 112 646 104 651 33 654 c 1
 33 692 l 1
 351 692 l 1
 351 654 l 1
 280 651 272 646 272 595 c 2
 272 389 l 1
 535 389 l 1
 535 595 l 2
 535 646 527 651 456 654 c 1
 456 692 l 1
 774 692 l 1
 774 654 l 1
 703 651 695 646 695 595 c 2
 695 97 l 2
 695 46 703 41 774 38 c 1
 774 0 l 1
 456 0 l 1
 456 38 l 1
 527 41 535 46 535 97 c 2
EndSplineSet
EndChar
StartChar: I
Encoding: 73 73 41
Width: 384
Flags: MW
HStem: 0 38<33 351 33 33> 654 38<33 351 33 351>
VStem: 112 160<97 595>
LayerCount: 2
Fore
SplineSet
272 595 m 2
 272 97 l 2
 272 46 280 41 351 38 c 1
 351 0 l 1
 33 0 l 1
 33 38 l 1
 104 41 112 46 112 97 c 2
 112 595 l 2
 112 646 104 651 33 654 c 1
 33 692 l 1
 351 692 l 1
 351 654 l 1
 280 651 272 646 272 595 c 2
EndSplineSet
EndChar
StartChar: J
Encoding: 74 74 42
Width: 386
Flags: MW
HStem: 654 38<43 361 43 361>
VStem: 122 160<146 595>
LayerCount: 2
Fore
SplineSet
282 595 m 2
 282 143 l 2
 282 30 255 -44 178 -81 c 0
 127 -105 68 -115 12 -114 c 1
 6 -83 l 1
 41 -72 62 -60 83 -36 c 0
 106 -10 122 50 122 146 c 2
 122 595 l 2
 122 646 114 651 43 654 c 1
 43 692 l 1
 361 692 l 1
 361 654 l 1
 290 651 282 646 282 595 c 2
EndSplineSet
EndChar
StartChar: K
Encoding: 75 75 43
Width: 707
Flags: W
HStem: -6 39.5 0 38<33 351 33 33> 654 38<33 351 33 351>
VStem: 112 160<97 339 359 595> 501 216
LayerCount: 2
Fore
SplineSet
112 97 m 2x70
 112 595 l 2
 112 646 104 651 33 654 c 1
 33 692 l 1
 351 692 l 1
 351 654 l 1
 280 651 272 646 272 595 c 2
 272 359 l 1
 377 480 l 2
 428 538 467 589 493 622 c 0
 506 638 503 648 487 650 c 2
 445 656 l 1
 445 692 l 1
 717 692 l 1
 717 656 l 1
 656 651 637 641 602 615 c 0
 531 562 478 500 401 419 c 1
 456 327 552 189 637 92 c 0
 665 60 688 40 709 35 c 2
 719 32 l 1
 719 -6 l 1
 651 -4 l 2xb8
 525 0 478 25 411 119 c 0
 362 189 326 241 274 339 c 1
 272 339 l 1
 272 97 l 2
 272 46 280 41 351 38 c 1
 351 0 l 1
 33 0 l 1
 33 38 l 1
 104 41 112 46 112 97 c 2x70
EndSplineSet
EndChar
StartChar: L
Encoding: 76 76 44
Width: 585
Flags: W
HStem: 0 38<33 572 33 33> 0 46<341 440 341 572> 654 38<33 363 33 363>
VStem: 112 160<97 119 119 595>
LayerCount: 2
Fore
SplineSet
272 595 m 2x70
 272 119 l 2
 272 55 299 46 383 46 c 0
 497 46 510 101 546 201 c 1
 584 201 l 1
 572 0 l 1
 33 0 l 1x70
 33 38 l 1
 104 41 112 46 112 97 c 2xb0
 112 595 l 2
 112 646 104 651 33 654 c 1
 33 692 l 1
 363 692 l 1
 363 654 l 1
 280 651 272 646 272 595 c 2x70
EndSplineSet
EndChar
StartChar: M
Encoding: 77 77 45
Width: 918
Flags: MW
HStem: 0 38<26 265 26 26> 654 38<23 287>
VStem: 102 62<252 593> 654 152<97 593 593 593>
LayerCount: 2
Fore
SplineSet
885 0 m 1
 575 0 l 1
 575 38 l 1
 646 41 654 46 654 97 c 2
 654 593 l 1
 651 593 l 1
 442 18 l 1
 382 18 l 1
 167 593 l 1
 164 593 l 1
 164 252 l 2
 164 171 165 132 169 96 c 0
 172 61 183 45 211 43 c 2
 265 38 l 1
 265 0 l 1
 26 0 l 1
 26 38 l 1
 61 43 l 2
 84 46 94 61 97 96 c 0
 101 131 102 170 102 252 c 2
 102 595 l 2
 102 646 94 651 23 654 c 1
 23 692 l 1
 287 692 l 1
 300 649 323 590 340 545 c 2
 459 238 l 1
 462 238 l 1
 547 472 l 2
 574 546 608 644 625 692 c 1
 885 692 l 1
 885 654 l 1
 814 651 806 646 806 595 c 2
 806 97 l 2
 806 46 814 41 885 38 c 1
 885 0 l 1
EndSplineSet
EndChar
StartChar: N
Encoding: 78 78 46
Width: 739
Flags: MW
HStem: 0 40.5 651.5 40.5
VStem: 104 62<252 558> 581 62<216 440 0 481>
LayerCount: 2
Fore
SplineSet
25 692 m 1
 262 692 l 1
 365 533 471 375 577 216 c 1
 581 216 l 1
 581 440 l 2
 581 522 580 560 576 596 c 0
 573 631 562 647 534 649 c 2
 478 654 l 1
 478 692 l 1
 719 692 l 1
 719 654 l 1
 684 649 l 2
 661 646 651 631 648 596 c 0
 644 561 643 522 643 440 c 2
 643 0 l 1
 533 0 l 1
 414 186 293 372 170 558 c 1
 166 558 l 1
 166 252 l 2
 166 170 167 132 171 96 c 0
 174 61 185 45 213 43 c 2
 269 38 l 1
 269 0 l 1
 28 0 l 1
 28 38 l 1
 63 43 l 2
 86 46 96 61 99 96 c 0
 103 131 104 170 104 252 c 2
 104 595 l 2
 104 646 96 651 25 654 c 1
 25 692 l 1
EndSplineSet
EndChar
StartChar: O
Encoding: 79 79 47
Width: 768
Flags: MW
HStem: -15 46<311.5 456.5 311.5 499> 661 46<311.5 456.5>
VStem: 42 177<346 346> 549 177<346 346>
LayerCount: 2
Fore
SplineSet
384 31 m 0
 529 31 547 210 549 346 c 0
 547 474 529 661 384 661 c 0
 239 661 221 474 219 346 c 0
 221 210 239 31 384 31 c 0
384 707 m 0
 614 707 726 572 726 346 c 0
 726 120 614 -15 384 -15 c 0
 154 -15 42 120 42 346 c 0
 42 572 154 707 384 707 c 0
EndSplineSet
EndChar
StartChar: P
Encoding: 80 80 48
Width: 650
Flags: W
HStem: 0 36<33 368> 275 46<308.5 332 272 378.5> 646 46<305.5 343 343 364.5> 654 38<33 343>
VStem: 112 160<97 275 345 364 364 595 595 609> 455 168<452 529 452 543.5>
LayerCount: 2
Fore
SplineSet
272 609 m 2xec
 272 364 l 2
 272 326 289 321 328 321 c 0
 429 321 455 410 455 486 c 0
 455 601 398 646 331 646 c 0
 280 646 272 637 272 609 c 2xec
368 0 m 1
 33 0 l 1
 33 38 l 1
 104 41 112 46 112 97 c 2
 112 595 l 2
 112 646 104 651 33 654 c 1xdc
 33 692 l 1
 343 692 l 2
 424 692 489 684 538 654 c 0
 587 624 623 569 623 489 c 0
 623 415 596 361 546 325 c 0
 500 292 426 275 332 275 c 2
 272 275 l 1
 272 97 l 2
 272 46 280 41 368 36 c 1
 368 0 l 1
EndSplineSet
EndChar
StartChar: Q
Encoding: 81 81 49
Width: 768
Flags: W
HStem: -193 46 -2 21G -2 33 661 46<311.5 456.5>
VStem: 42 177<346 346> 549 177<346 346>
LayerCount: 2
Fore
SplineSet
384 661 m 0xdc
 239 661 221 474 219 346 c 0
 221 210 239 31 384 31 c 0xbc
 529 31 547 210 549 346 c 0
 547 474 529 661 384 661 c 0xdc
384 707 m 0
 614 707 726 572 726 346 c 0
 726 161 650 37 499 -2 c 1
 513 -28 535 -54 559 -79 c 0
 606 -128 655 -147 681 -147 c 2
 692 -147 l 1
 698 -171 l 1
 674 -185 635 -193 594 -193 c 0
 444 -193 352 -83 324 -11 c 1
 136 10 42 140 42 346 c 0
 42 572 154 707 384 707 c 0
EndSplineSet
EndChar
StartChar: R
Encoding: 82 82 50
Width: 684
Flags: W
HStem: 0 38<33 351 33 33> 318 46<272 322 272 318> 646 46<308.5 370> 654 38<33 380>
VStem: 112 160<97 318 364 595 595 607> 455 168<469.5 538.5 469.5 558>
LayerCount: 2
Fore
SplineSet
272 318 m 1xec
 272 97 l 2
 272 46 280 41 351 38 c 1
 351 0 l 1
 33 0 l 1
 33 38 l 1
 104 41 112 46 112 97 c 2
 112 595 l 2
 112 646 104 651 33 654 c 1xdc
 33 692 l 1
 380 692 l 2
 478 692 535 673 573 640 c 0
 609 607 623 564 623 513 c 0
 623 426 553 361 454 348 c 1
 454 346 l 1
 557 320 576 254 590 174 c 0
 599 122 614 85 639 60 c 0
 651 48 668 39 686 38 c 1
 686 0 l 1
 612 0 l 2
 507 0 464 26 440 100 c 0
 424 151 416 205 408 240 c 0
 396 294 368 318 318 318 c 2
 272 318 l 1xec
272 607 m 2xec
 272 364 l 1
 322 364 l 2
 423 364 455 424 455 507 c 0
 455 609 404 646 336 646 c 0
 281 646 272 634 272 607 c 2xec
EndSplineSet
EndChar
StartChar: S
Encoding: 83 83 51
Width: 561
Flags: W
HStem: -15 46<240 273> 661 46<269 330.5 216 331>
VStem: 51 144<521 561> 383 150<147 172> 451 36<499 499>
LayerCount: 2
Fore
SplineSet
487 499 m 1xe8
 451 499 l 1xe8
 423 616 363 661 299 661 c 0
 239 661 195 621 195 559 c 0
 195 483 278 447 344 420 c 0
 435 382 533 331 533 199 c 0
 533 95 473 -13 273 -15 c 0
 207 -15 108 0 57 47 c 1
 42 226 l 1
 79 226 l 1
 117 101 193 31 269 31 c 0
 334 31 382 66 383 140 c 0xf0
 383 204 341 249 250 287 c 0
 162 324 51 378 51 502 c 0
 51 620 132 707 300 707 c 0
 361 707 435 695 487 663 c 1
 487 499 l 1xe8
EndSplineSet
EndChar
StartChar: T
Encoding: 84 84 52
Width: 624
Flags: MW
HStem: 0 40 646 46<146 192 192 232 392 432 392 392>
VStem: 15 38<504 692> 232 160<95 646> 571 38<504 692>
LayerCount: 2
Fore
SplineSet
392 646 m 1
 392 95 l 2
 392 59 399 44 431 42 c 2
 488 38 l 1
 488 0 l 1
 136 0 l 1
 136 38 l 1
 193 42 l 2
 225 44 232 59 232 95 c 2
 232 646 l 1
 192 646 l 2
 100 646 87 604 53 504 c 1
 15 504 l 1
 15 692 l 1
 609 692 l 1
 609 504 l 1
 571 504 l 1
 537 604 524 646 432 646 c 2
 392 646 l 1
EndSplineSet
EndChar
StartChar: U
Encoding: 85 85 53
Width: 786
Flags: MW
HStem: -15 46<348 439 348 485.5> 654 38<29 341 29 341>
VStem: 105 160<225 595> 521 160<225 595 225 595 225 620.5>
LayerCount: 2
Fore
SplineSet
681 595 m 2
 681 225 l 2
 679 52 578 -15 393 -15 c 0
 193 -15 105 52 105 225 c 2
 105 595 l 2
 105 646 97 651 29 654 c 1
 29 692 l 1
 341 692 l 1
 341 654 l 1
 273 651 265 646 265 595 c 2
 265 211 l 2
 265 97 303 31 393 31 c 0
 485 31 521 97 521 211 c 2
 521 595 l 2
 521 646 513 651 445 654 c 1
 445 692 l 1
 757 692 l 1
 757 654 l 1
 689 651 681 646 681 595 c 2
EndSplineSet
EndChar
StartChar: V
Encoding: 86 86 54
Width: 645
Flags: W
HStem: 0 21G<262 388 262 262> 0 149<372 377 372 388 262 377> 651.5 40.5
VStem: -16 695<654 692 654 692> 447 232<654 692 654 692>
LayerCount: 2
Fore
SplineSet
388 0 m 1xb0
 262 0 l 1
 60 603 l 2
 46 646 35 652 -16 654 c 1
 -16 692 l 1
 287 692 l 1
 287 654 l 1
 239 649 l 2
 216 647 216 634 222 613 c 2
 372 149 l 1
 377 149 l 1
 395 200 440 346 460 407 c 0
 490 500 512 583 520 616 c 0
 525 637 523 647 503 649 c 2
 447 654 l 1
 447 692 l 1
 679 692 l 1
 679 654 l 1
 623 650 614 643 594 595 c 0x68
 579 556 544 459 507 349 c 2
 388 0 l 1xb0
EndSplineSet
EndChar
StartChar: W
Encoding: 87 87 55
Width: 933
Flags: W
HStem: 0 21G<221 347 221 221 591 718 591 591> 0 159<327 329 327 347 221 329 696 700> 656 36<-10 277 -10 277> 657 20G<453 564 564 564>
VStem: -10 970<656 692 656 692> 807 153
LayerCount: 2
Fore
SplineSet
731 692 m 1xec
 960 692 l 1
 960 656 l 1
 906 649 897 644 883 598 c 0
 868 550 840 455 811 347 c 2
 718 0 l 1
 591 0 l 1
 468 468 l 1
 465 468 l 1
 347 0 l 1
 221 0 l 1
 133 334 l 2
 105 438 80 535 58 608 c 0
 47 644 40 651 -10 656 c 1
 -10 692 l 1
 277 692 l 1
 277 656 l 1
 231 649 l 2
 220 648 214 644 211 638 c 0
 209 632 210 623 213 611 c 2xa4
 327 159 l 1
 329 159 l 1
 453 677 l 1
 564 677 l 1x58
 696 159 l 1
 700 159 l 1
 757 384 l 2
 788 509 803 583 807 608 c 0
 811 632 809 645 788 648 c 2
 731 656 l 1
 731 692 l 1xec
EndSplineSet
EndChar
StartChar: X
Encoding: 88 88 56
Width: 634
Flags: W
HStem: 0 38<-19 242 -19 -19> 654 38<-6 299 -6 299>
VStem: -19 183 -19 690<0 38 0 38> 455 176
LayerCount: 2
Fore
SplineSet
242 38 m 1xf8
 242 0 l 1
 -19 0 l 1
 -19 38 l 1
 46 42 53 47 85 89 c 0
 129 148 195 249 249 330 c 1
 191 428 135 520 83 603 c 0
 57 645 49 649 -6 654 c 1
 -6 692 l 1
 299 692 l 1
 299 654 l 1
 257 649 l 2
 238 646 234 634 246 614 c 2
 346 449 l 1
 348 449 l 1
 387 511 424 565 451 618 c 0
 461 637 454 645 441 647 c 2
 398 654 l 1
 398 692 l 1
 631 692 l 1
 631 654 l 1
 580 651 561 646 530 608 c 0
 490 558 432 479 381 401 c 1
 441 305 503 202 568 98 c 0
 598 49 608 41 671 38 c 1
 671 0 l 1
 335 0 l 1
 335 38 l 1
 386 44 l 2
 409 47 409 61 400 77 c 2
 283 274 l 1
 279 274 l 1
 237 205 190 125 168 77 c 0
 159 57 164 44 184 42 c 2
 242 38 l 1xf8
EndSplineSet
EndChar
StartChar: Y
Encoding: 89 89 57
Width: 617
Flags: MW
HStem: 0 38<142 494 142 142> 651 41
VStem: 238 160<97 240 240 250 71.5 252.5> 486 169
LayerCount: 2
Fore
SplineSet
-12 692 m 1
 304 692 l 1
 304 654 l 1
 250 648 l 2
 228 645 229 631 236 615 c 2
 359 342 l 1
 362 342 l 1
 402 432 455 540 481 608 c 0
 491 634 485 646 466 648 c 2
 414 654 l 1
 414 692 l 1
 655 692 l 1
 655 654 l 1
 601 648 584 640 561 600 c 0
 514 518 463 416 416 321 c 0
 405 298 398 278 398 250 c 2
 398 97 l 2
 398 46 406 41 494 38 c 1
 494 0 l 1
 142 0 l 1
 142 38 l 1
 230 41 238 46 238 97 c 2
 238 240 l 2
 238 265 227 289 217 309 c 2
 72 597 l 2
 49 643 40 650 -12 654 c 1
 -12 692 l 1
EndSplineSet
EndChar
StartChar: Z
Encoding: 90 90 58
Width: 614
Flags: W
HStem: 0 46<196 357 357 431> 646 46<219 280 280 407> 651 20G<605 605>
VStem: 58 38<496 692>
LayerCount: 2
Fore
SplineSet
606 209 m 1xd0
 594 0 l 1
 13 0 l 1
 0 22 l 1
 138 229 272 437 407 646 c 1
 280 646 l 2
 158 646 120 612 96 496 c 1
 58 496 l 1
 58 692 l 1
 592 692 l 1xd0
 605 671 l 1xb0
 468 463 331 256 196 46 c 1
 357 46 l 2
 505 46 530 97 568 209 c 1
 606 209 l 1xd0
EndSplineSet
EndChar
StartChar: bracketleft
Encoding: 91 91 59
Width: 335
Flags: MW
HStem: -128 37.5 654.5 37.5
VStem: 123 94<-54.5 -40 -40 604>
LayerCount: 2
Fore
SplineSet
217 604 m 2
 217 -40 l 2
 217 -69 221 -84 248 -87 c 2
 308 -94 l 1
 308 -128 l 1
 123 -128 l 1
 123 692 l 1
 308 692 l 1
 308 658 l 1
 248 651 l 2
 221 648 217 633 217 604 c 2
EndSplineSet
EndChar
StartChar: backslash
Encoding: 92 92 60
Width: 379
Flags: MW
HStem: -15 21G<245 245 245 345> 687 20G<34 134 134 134>
VStem: 34 311
LayerCount: 2
Fore
SplineSet
245 -15 m 1
 34 707 l 1
 134 707 l 1
 345 -15 l 1
 245 -15 l 1
EndSplineSet
EndChar
StartChar: bracketright
Encoding: 93 93 61
Width: 335
Flags: MW
HStem: -128 37.5 654.5 37.5
VStem: 118 94<-40 604 604 618.5>
LayerCount: 2
Fore
SplineSet
212 -128 m 1
 27 -128 l 1
 27 -94 l 1
 87 -87 l 2
 114 -84 118 -69 118 -40 c 2
 118 604 l 2
 118 633 114 648 87 651 c 2
 27 658 l 1
 27 692 l 1
 212 692 l 1
 212 -128 l 1
EndSplineSet
EndChar
StartChar: asciicircum
Encoding: 94 94 62
Width: 600
Flags: W
HStem: 556 112<302 302> 648 20G<253 352 352 352>
VStem: 56 488<215 215>
LayerCount: 2
Fore
SplineSet
544 215 m 1x60
 440 215 l 1
 302 556 l 1xa0
 160 215 l 1
 56 215 l 1
 253 668 l 1
 352 668 l 1
 544 215 l 1x60
EndSplineSet
EndChar
StartChar: grave
Encoding: 193 96 123
Width: 430
Flags: MW
HStem: 511 229<81 291>
VStem: 40 272<541 692.5>
LayerCount: 2
Fore
SplineSet
312 541 m 1
 291 511 l 1
 108 614 l 2
 72 634 40 654 40 680 c 0
 40 705 69 740 93 740 c 0
 113 740 130 728 167 690 c 2
 312 541 l 1
EndSplineSet
EndChar
StartChar: b
Encoding: 98 98 66
Width: 605
Flags: MW
HStem: -12 46<286.5 348.5 286.5 380.5> 425 77<289.5 434> 722 20G<218 218>
VStem: 74 151<144.5 154 154 312 433 621 621 641> 412 159<174 318.5>
LayerCount: 2
Fore
SplineSet
225 736 m 1
 225 433 l 1
 272 469 321 502 384 502 c 0
 484 502 571 425 571 262 c 0
 571 36 452 -12 309 -12 c 0
 244 -12 196 3 160 22 c 1
 106 -12 l 1
 74 6 l 1
 74 621 l 2
 74 661 66 670 50 673 c 2
 15 679 l 1
 15 715 l 1
 218 742 l 1
 225 736 l 1
225 312 m 2
 225 154 l 2
 225 135 226 113 229 98 c 0
 236 61 262 34 311 34 c 0
 386 34 412 111 412 237 c 0
 412 400 361 425 312 425 c 0
 267 425 244 402 231 368 c 0
 226 354 225 333 225 312 c 2
EndSplineSet
EndChar
StartChar: c
Encoding: 99 99 67
Width: 494
Flags: MW
HStem: -12 77<288.5 310.5> 456 46<257 295.5>
VStem: 34 159<187 284.5>
LayerCount: 2
Fore
SplineSet
449 156 m 1
 484 140 l 1
 445 16 352 -12 269 -12 c 0
 128 -12 34 73 34 241 c 0
 34 328 60 393 102 435 c 0
 147 480 209 502 287 502 c 0
 378 502 478 463 478 392 c 0
 478 348 430 330 395 330 c 0
 369 330 354 342 347 365 c 0
 330 425 313 456 278 456 c 0
 236 456 193 399 193 265 c 0
 193 109 256 65 321 65 c 0
 376 65 415 88 449 156 c 1
EndSplineSet
EndChar
StartChar: d
Encoding: 100 100 68
Width: 605
Flags: W
HStem: -12 77<171.5 334> 0 38<380 596> 0 65<269.5 596 269.5 380> 456 46<276 313 258.5 323> 469 20G<380 380> 722 20G<524 524>
VStem: 34 159<192 281> 380 151<0 87 50 87 152 358 358 368.5 489 621 621 641>
LayerCount: 2
Fore
SplineSet
531 736 m 1x57
 531 87 l 2
 531 45 539 41 596 38 c 1
 596 0 l 1
 380 0 l 1x57
 380 50 l 1
 326 7 272 -12 235 -12 c 0
 108 -12 34 90 34 236 c 0
 34 326 62 393 109 437 c 0
 155 480 221 502 296 502 c 0x97
 330 502 358 498 380 489 c 1x4f
 380 621 l 2
 380 661 372 670 356 673 c 2
 321 679 l 1
 321 715 l 1
 524 742 l 1
 531 736 l 1x57
380 152 m 2x37
 380 358 l 2
 380 379 380 402 372 417 c 0
 362 437 342 456 304 456 c 0
 248 456 193 403 193 256 c 0
 193 128 237 65 302 65 c 0
 366 65 380 112 380 152 c 2x37
EndSplineSet
EndChar
StartChar: e
Encoding: 101 101 69
Width: 519
Flags: MW
HStem: -12 77<279 338.5> 252 48<193 317 317 328.5 193 451 193 317> 456 46<244.5 307.5>
VStem: 34 159<199.5 252 300 315> 348 157<319.5 335 278 356.5>
LayerCount: 2
Fore
SplineSet
461 154 m 1
 497 134 l 1
 463 46 398 -12 279 -12 c 0
 93 -13 34 109 34 245 c 0
 34 385 101 502 281 502 c 0
 474 502 505 376 505 294 c 0
 505 262 487 252 451 252 c 2
 193 252 l 1
 193 147 227 65 327 65 c 0
 388 65 431 97 461 154 c 1
193 300 m 1
 317 300 l 2
 340 300 348 306 348 333 c 0
 348 380 338 456 277 456 c 0
 212 456 193 372 193 300 c 1
EndSplineSet
EndChar
StartChar: f
Encoding: 102 102 70
Width: 342
Flags: MW
HStem: 0 38<27 322 27 27> 440 50<29 92 29 92 243 346> 696 46<239 253>
VStem: 92 151<87 440 490 514>
LayerCount: 2
Fore
SplineSet
346 440 m 1
 243 440 l 1
 243 87 l 2
 243 45 251 41 322 38 c 1
 322 0 l 1
 27 0 l 1
 27 38 l 1
 84 41 92 45 92 87 c 2
 92 440 l 1
 29 440 l 1
 29 490 l 1
 92 490 l 1
 92 533 l 2
 92 670 162 742 273 742 c 0
 383 742 421 686 421 649 c 0
 421 615 380 591 348 591 c 0
 324 591 313 603 303 621 c 0
 273 677 261 696 245 696 c 0
 233 696 221 685 221 659 c 0
 221 622 243 538 243 490 c 1
 346 490 l 1
 346 440 l 1
EndSplineSet
EndChar
StartChar: g
Encoding: 103 103 71
Width: 533
Flags: W
HStem: -242 46<253.5 294> -16 121<251 315.5> 174 46<254 288 243.5 319> 456 46<246 285.5>
VStem: 25 135<-121.5 -72 -121.5 -62.5> 34 156<300.5 371> 49 125<73 150> 340 143<300.5 351 276.5 378> 411 121<-88 -65.5>
LayerCount: 2
Fore
SplineSet
241 105 m 2xf780
 334 105 l 2
 439 105 532 68 532 -52 c 0
 532 -124 494 -176 439 -205 c 0
 389 -232 316 -242 272 -242 c 0
 129 -242 25 -194 25 -96 c 0xf880
 25 -29 99 -10 141 -1 c 1
 141 1 l 1
 97 11 49 51 49 95 c 0xf280
 49 135 91 171 156 187 c 1
 156 189 l 1
 95 199 34 249 34 332 c 0xf480
 34 410 87 502 267 502 c 0
 321 502 377 488 410 469 c 1
 535 512 l 1
 546 501 l 1
 526 426 l 1
 460 414 l 1
 473 397 483 366 483 336 c 0
 483 217 378 174 260 174 c 0
 248 174 233 174 214 176 c 1
 200 173 174 161 174 139 c 0
 174 121 192 105 241 105 c 2xf780
190 335 m 0xf5
 190 266 222 220 265 220 c 0
 311 220 340 265 340 336 c 0
 340 420 305 456 266 456 c 0
 226 456 190 420 190 335 c 0xf5
273 -16 m 0
 229 -16 199 -22 185 -31 c 0
 171 -41 160 -58 160 -86 c 0
 160 -157 220 -196 287 -196 c 0
 354 -196 411 -167 411 -96 c 0xf880
 411 -35 358 -16 273 -16 c 0
EndSplineSet
EndChar
StartChar: h
Encoding: 104 104 72
Width: 631
Flags: MW
HStem: 0 38<19 288 19 19> 425 77<306 456.5> 722 20G<228 228>
VStem: 84 151<87 317 433 621 621 641> 406 151<80 87 87 334 334 334>
LayerCount: 2
Fore
SplineSet
557 348 m 2
 557 87 l 2
 557 45 565 41 622 38 c 1
 622 0 l 1
 353 0 l 1
 353 38 l 1
 374 40 l 2
 395 42 406 47 406 80 c 2
 406 334 l 2
 404 394 378 425 327 425 c 0
 285 425 258 402 245 376 c 0
 238 362 235 339 235 317 c 2
 235 80 l 2
 235 47 246 42 267 40 c 2
 288 38 l 1
 288 0 l 1
 19 0 l 1
 19 38 l 1
 76 41 84 45 84 87 c 2
 84 621 l 2
 84 661 76 670 60 673 c 2
 25 679 l 1
 25 715 l 1
 228 742 l 1
 235 736 l 1
 235 433 l 1
 297 472 344 502 404 502 c 0
 509 502 556 442 557 348 c 2
EndSplineSet
EndChar
StartChar: i
Encoding: 105 105 73
Width: 316
Flags: W
HStem: 0 38<26 307 26 26> 476 20G<242 242> 482 20G<235 235> 545 175<133 188.5>
VStem: 70 183<609 656.5> 91 151<87 381 381 401>
LayerCount: 2
Fore
SplineSet
91 87 m 2xb4
 91 381 l 2
 91 421 83 430 67 432 c 2
 32 437 l 1
 32 473 l 1
 235 502 l 1
 242 496 l 1xd4
 242 87 l 2
 242 45 250 41 307 38 c 1
 307 0 l 1
 26 0 l 1
 26 38 l 1
 83 41 91 45 91 87 c 2xb4
161 545 m 0xb8
 105 545 70 585 70 633 c 0
 70 680 105 720 161 720 c 0
 218 720 253 680 253 633 c 0
 253 585 216 545 161 545 c 0xb8
EndSplineSet
EndChar
StartChar: j
Encoding: 106 106 74
Width: 316
Flags: W
HStem: -232 21G<-8 21.5> 476 20G<249 249> 482 20G<242 242> 545 175<140 195.5>
VStem: 77 183<609 656.5> 98 151<31 381 381 401>
LayerCount: 2
Fore
SplineSet
249 496 m 1xf4
 249 25 l 2
 249 -84 227 -162 158 -198 c 0
 108 -224 51 -232 -8 -232 c 1
 -12 -201 l 1
 15 -192 40 -181 60 -156 c 0
 82 -128 98 -69 98 31 c 2
 98 381 l 2
 98 421 90 430 74 432 c 2
 39 437 l 1
 39 473 l 1
 242 502 l 1
 249 496 l 1xf4
168 545 m 0xb8
 112 545 77 585 77 633 c 0
 77 680 112 720 168 720 c 0
 225 720 260 680 260 633 c 0
 260 585 223 545 168 545 c 0xb8
EndSplineSet
EndChar
StartChar: k
Encoding: 107 107 75
Width: 582
Flags: MW
HStem: 0 38<19 300 19 19> 458 32<430 575> 722 20G<228 228>
VStem: 84 151<87 254 272 621 621 641>
LayerCount: 2
Fore
SplineSet
235 736 m 1
 235 272 l 1
 237 272 l 1
 309 374 l 2
 332 406 352 435 371 460 c 0
 389 482 408 490 430 490 c 2
 575 490 l 1
 575 458 l 1
 491 440 430 396 377 345 c 2
 355 323 l 1
 408 239 464 161 531 86 c 0
 561 52 574 40 595 32 c 1
 595 0 l 1
 505 0 l 2
 432 0 392 13 357 59 c 0
 311 120 271 188 237 254 c 1
 235 254 l 1
 235 87 l 2
 235 45 243 41 300 38 c 1
 300 0 l 1
 19 0 l 1
 19 38 l 1
 76 41 84 45 84 87 c 2
 84 621 l 2
 84 661 76 670 60 673 c 2
 25 679 l 1
 25 715 l 1
 228 742 l 1
 235 736 l 1
EndSplineSet
EndChar
StartChar: l
Encoding: 108 108 76
Width: 309
Flags: MW
HStem: 0 38<19 300 19 19> 722 20G<228 228>
VStem: 84 151<87 621 621 641>
LayerCount: 2
Fore
SplineSet
235 736 m 1
 235 87 l 2
 235 45 243 41 300 38 c 1
 300 0 l 1
 19 0 l 1
 19 38 l 1
 76 41 84 45 84 87 c 2
 84 621 l 2
 84 661 76 670 60 673 c 2
 25 679 l 1
 25 715 l 1
 228 742 l 1
 235 736 l 1
EndSplineSet
EndChar
StartChar: m
Encoding: 109 109 77
Width: 948
Flags: MW
HStem: 0 38<26 295 26 26> 425 77
VStem: 91 151<87 306> 407 151<80 306> 723 151<80 87 87 329 329 329>
LayerCount: 2
Fore
SplineSet
242 306 m 2
 242 80 l 2
 242 47 253 42 274 40 c 2
 295 38 l 1
 295 0 l 1
 26 0 l 1
 26 38 l 1
 83 41 91 45 91 87 c 2
 91 381 l 2
 91 421 83 430 67 432 c 2
 32 437 l 1
 32 473 l 1
 229 502 l 1
 242 433 l 1
 297 468 343 502 408 502 c 0
 483 502 524 463 544 427 c 1
 587 454 649 502 718 502 c 0
 824 502 873 442 874 347 c 2
 874 87 l 2
 874 45 882 41 939 38 c 1
 939 0 l 1
 670 0 l 1
 670 38 l 1
 691 40 l 2
 712 42 723 47 723 80 c 2
 723 329 l 2
 721 392 692 426 645 425 c 0
 609 425 575 403 562 354 c 0
 559 342 558 322 558 306 c 2
 558 80 l 2
 558 47 569 42 590 40 c 2
 611 38 l 1
 611 0 l 1
 354 0 l 1
 354 38 l 1
 375 40 l 2
 396 42 407 47 407 80 c 2
 407 329 l 2
 406 386 384 425 335 425 c 0
 294 425 258 402 246 353 c 0
 243 340 242 322 242 306 c 2
EndSplineSet
EndChar
StartChar: n
Encoding: 110 110 78
Width: 638
Flags: MW
HStem: 0 38<26 295 26 26> 425 77
VStem: 91 151<87 317> 413 151<80 87 87 334 334 334>
LayerCount: 2
Fore
SplineSet
564 348 m 2
 564 87 l 2
 564 45 572 41 629 38 c 1
 629 0 l 1
 360 0 l 1
 360 38 l 1
 381 40 l 2
 402 42 413 47 413 80 c 2
 413 334 l 2
 411 394 385 425 334 425 c 0
 292 425 265 402 252 376 c 0
 245 362 242 339 242 317 c 2
 242 80 l 2
 242 47 253 42 274 40 c 2
 295 38 l 1
 295 0 l 1
 26 0 l 1
 26 38 l 1
 83 41 91 45 91 87 c 2
 91 381 l 2
 91 421 83 430 67 432 c 2
 32 437 l 1
 32 473 l 1
 229 502 l 1
 242 433 l 1
 308 472 355 502 413 502 c 0
 516 502 563 442 564 348 c 2
EndSplineSet
EndChar
StartChar: o
Encoding: 111 111 79
Width: 585
Flags: MW
HStem: -12 46<257.5 328 257.5 383.5> 456 46<257.5 328>
VStem: 34 159<178 312 178 325> 392 159<178 312>
LayerCount: 2
Fore
SplineSet
293 502 m 0
 474 502 551 405 551 245 c 0
 551 85 474 -12 293 -12 c 0
 111 -12 34 85 34 245 c 0
 34 405 111 502 293 502 c 0
193 245 m 0
 193 111 222 34 293 34 c 0
 363 34 392 111 392 245 c 0
 392 379 363 456 293 456 c 0
 222 456 193 379 193 245 c 0
EndSplineSet
EndChar
StartChar: p
Encoding: 112 112 80
Width: 615
Flags: W
HStem: -230 38<19 318 19 19> -12 46<300.5 356.5 296 388> 0 21G<235 235> 425 77
VStem: 84 151<-143 0 142.5 152 152 310> 422 159<175 318>
LayerCount: 2
Fore
SplineSet
235 0 m 1xfc
 235 -143 l 2
 235 -185 245 -189 318 -192 c 1
 318 -230 l 1
 19 -230 l 1
 19 -192 l 1
 76 -189 84 -185 84 -143 c 2
 84 381 l 2
 84 421 76 430 60 432 c 2
 25 437 l 1
 25 473 l 1
 217 502 l 1
 235 433 l 1
 284 470 330 502 400 502 c 0
 494 502 581 425 581 259 c 0
 581 40 462 -12 314 -12 c 0xdc
 287 -12 252 -7 235 0 c 1xfc
235 310 m 2
 235 152 l 2
 235 133 236 116 239 101 c 0
 248 57 274 34 318 34 c 0
 395 34 422 113 422 237 c 0
 422 399 369 425 322 425 c 0
 280 425 255 402 242 365 c 0
 237 351 235 331 235 310 c 2
EndSplineSet
EndChar
StartChar: q
Encoding: 113 113 81
Width: 597
Flags: MW
HStem: -230 38<305 596 305 305> -12 77<174 334> 456 46<274 325>
VStem: 34 159<192 282.5> 380 151<-143 47 47 47 152 353 353 362.5>
LayerCount: 2
Fore
SplineSet
484 502 m 1
 531 502 l 1
 531 -143 l 2
 531 -185 539 -189 596 -192 c 1
 596 -230 l 1
 305 -230 l 1
 305 -192 l 1
 372 -189 380 -185 380 -143 c 2
 380 47 l 1
 328 1 284 -12 237 -12 c 0
 111 -12 34 89 34 235 c 0
 34 330 63 393 108 437 c 0
 152 480 222 502 301 502 c 0
 358 502 407 489 441 471 c 1
 484 502 l 1
380 152 m 2
 380 353 l 2
 380 372 380 390 376 403 c 0
 367 435 345 456 305 456 c 0
 243 456 193 391 193 256 c 0
 193 128 236 65 301 65 c 0
 367 65 380 112 380 152 c 2
EndSplineSet
EndChar
StartChar: r
Encoding: 114 114 82
Width: 440
Flags: W
HStem: 0 38<26 328 26 26> 349 153<365.5 385> 482 20G<227 227 351 393>
VStem: 91 151<87 311>
LayerCount: 2
Fore
SplineSet
242 311 m 2xf0
 242 87 l 2
 242 45 251 42 328 38 c 1
 328 0 l 1
 26 0 l 1
 26 38 l 1
 83 41 91 45 91 87 c 2
 91 381 l 2
 91 421 83 430 67 432 c 2
 32 437 l 1
 32 473 l 1
 227 502 l 1
 239 414 l 1
 297 475 330 502 372 502 c 0
 414 502 442 475 442 432 c 0
 442 410 437 390 426 375 c 0
 415 360 395 349 375 349 c 0
 356 349 342 357 329 365 c 0
 307 378 292 386 276 386 c 0
 252 386 242 363 242 311 c 2xf0
EndSplineSet
EndChar
StartChar: s
Encoding: 115 115 83
Width: 446
Flags: W
HStem: -12 46<191 243 188 280> 456 46<220.5 266.5>
VStem: 43 135<378 394.5> 290 135<97 119> 354 37<334 467>
LayerCount: 2
Fore
SplineSet
50 36 m 1xe8
 38 185 l 1
 76 185 l 1
 102 103 155 34 221 34 c 0
 265 34 290 57 290 95 c 0xf0
 290 143 241 172 190 190 c 0
 102 223 43 271 43 344 c 0
 43 445 119 502 241 502 c 0
 293 502 350 492 391 467 c 1
 391 334 l 1
 354 334 l 1xe8
 335 410 292 456 241 456 c 0
 200 456 178 429 178 398 c 0
 178 358 221 334 279 313 c 0
 371 278 425 237 425 151 c 0xf0
 425 43 341 -12 219 -12 c 0
 163 -12 88 1 50 36 c 1xe8
EndSplineSet
EndChar
StartChar: t
Encoding: 116 116 84
Width: 370
Flags: W
HStem: -12 21G<186 234.5> -12 75<186 316> 440 50<32 90 32 95 241 345>
VStem: 90 151<123 155 155 440>
LayerCount: 2
Fore
SplineSet
345 440 m 1xb0
 241 440 l 1
 241 155 l 2
 241 91 267 63 305 63 c 0
 327 63 348 67 362 73 c 1x70
 373 42 l 1
 317 7 255 -12 214 -12 c 0
 158 -12 90 26 90 117 c 2
 90 440 l 1
 32 440 l 1
 32 490 l 1
 95 490 l 1
 183 616 l 1
 241 616 l 1
 241 490 l 1
 345 490 l 1
 345 440 l 1xb0
EndSplineSet
EndChar
StartChar: v
Encoding: 118 118 86
Width: 520
Flags: W
HStem: 0 21G<208 318 208 208> 0 132<304 308 304 318 208 308> 452 38<-8 257 -8 257>
VStem: -8 211 339 207<452 490 452 490>
LayerCount: 2
Fore
SplineSet
318 0 m 1xb8
 208 0 l 1
 130 215 l 2
 106 280 83 344 57 408 c 0
 44 440 31 449 -8 452 c 1
 -8 490 l 1
 257 490 l 1
 257 452 l 1
 220 447 l 2
 202 445 200 437 206 418 c 2
 304 132 l 1
 308 132 l 1x78
 342 233 374 324 398 414 c 0
 403 433 400 444 382 446 c 2
 339 452 l 1
 339 490 l 1
 546 490 l 1
 546 452 l 1
 505 449 494 444 477 409 c 0
 459 373 432 310 405 236 c 2
 318 0 l 1xb8
EndSplineSet
EndChar
StartChar: w
Encoding: 119 119 87
Width: 774
Flags: W
HStem: 0 21G<185 295 185 185 490 600 490 490> 0 142<280 283 280 295 185 283 584 588> 452 38<-10 250 -10 250>
VStem: -10 211 595 207<452 490 452 490>
LayerCount: 2
Fore
SplineSet
-10 490 m 1xb8
 250 490 l 1
 250 452 l 1
 222 449 l 2
 202 447 198 439 204 417 c 2
 280 142 l 1
 283 142 l 1
 376 490 l 1
 481 490 l 1
 584 142 l 1
 588 142 l 1x78
 613 236 646 363 655 413 c 0
 658 432 656 443 638 446 c 2
 595 452 l 1
 595 490 l 1
 802 490 l 1
 802 452 l 1
 751 448 744 441 729 402 c 0
 714 366 693 303 672 234 c 2
 600 0 l 1
 490 0 l 1
 390 307 l 1
 386 307 l 1
 295 0 l 1
 185 0 l 1
 101 265 l 2
 81 328 75 348 53 409 c 0
 41 443 30 448 -10 452 c 1
 -10 490 l 1xb8
EndSplineSet
EndChar
StartChar: x
Encoding: 120 120 88
Width: 522
Flags: W
HStem: 0 38<-15 206 -15 -15> 452 38<-6 254 -6 254>
VStem: -15 221<0 38 0 38> -6 260<452 490 452 490> 356 160
LayerCount: 2
Fore
SplineSet
550 0 m 1xe8
 272 0 l 1
 272 38 l 1
 294 41 l 2
 311 43 318 52 307 69 c 2
 234 181 l 1
 232 181 l 1
 163 73 l 2
 151 55 155 45 171 43 c 2
 206 38 l 1
 206 0 l 1
 -15 0 l 1
 -15 38 l 1xe8
 37 44 55 51 87 87 c 0
 126 131 162 178 201 227 c 1
 151 294 109 360 68 415 c 0
 48 442 38 447 -6 452 c 1
 -6 490 l 1
 254 490 l 1
 254 452 l 1
 231 448 l 2
 219 446 218 437 225 427 c 2
 287 332 l 1
 289 332 l 1xd8
 349 421 l 2
 361 438 358 447 344 449 c 2
 318 452 l 1
 318 490 l 1
 516 490 l 1
 516 452 l 1
 475 451 454 441 430 417 c 0
 395 381 358 340 320 289 c 1
 367 220 414 152 462 87 c 0
 491 50 507 41 550 38 c 1
 550 0 l 1xe8
EndSplineSet
EndChar
StartChar: y
Encoding: 121 121 89
Width: 524
Flags: W
HStem: -242 21G<114 167.5> -242 108<114 209> -242 144<114 124.5 100 167.5> 449 41
VStem: -12 227 356 201<452 490 452 490>
LayerCount: 2
Fore
SplineSet
356 490 m 1x9c
 557 490 l 1
 557 452 l 1
 536 450 l 2
 508 447 497 428 479 385 c 0
 420 242 360 95 302 -60 c 0
 248 -204 202 -242 133 -242 c 0
 95 -242 52 -218 52 -179 c 0
 52 -141 84 -98 116 -98 c 0x3c
 133 -98 142 -105 161 -119 c 0
 173 -129 186 -134 197 -134 c 0
 221 -134 230 -108 236 -85 c 0x5c
 241 -65 238 -39 230 -19 c 0
 177 119 117 267 59 406 c 0
 48 433 36 444 21 447 c 2
 -12 452 l 1
 -12 490 l 1
 268 490 l 1
 268 452 l 1
 230 446 l 2
 214 444 211 433 218 413 c 0
 249 319 286 226 319 134 c 1
 321 134 l 1
 352 228 384 321 412 416 c 0
 417 435 411 444 397 446 c 2
 356 452 l 1
 356 490 l 1x9c
EndSplineSet
EndChar
StartChar: z
Encoding: 122 122 90
Width: 483
Flags: W
HStem: 0 46<187 284 284 336> 444 46<158.5 206 206 288> 470 20<43 476>
VStem: 43 39<322 490>
LayerCount: 2
Fore
SplineSet
82 322 m 1xd0
 43 322 l 1
 43 490 l 1
 465 490 l 1xd0
 476 470 l 1xb0
 378 329 281 187 187 46 c 1
 284 46 l 2
 388 46 413 77 442 180 c 1
 480 180 l 1
 468 0 l 1
 11 0 l 1
 -1 21 l 1
 97 162 194 303 288 444 c 1
 206 444 l 2
 111 444 102 405 82 322 c 1xd0
EndSplineSet
EndChar
StartChar: braceleft
Encoding: 123 123 91
Width: 365
Flags: W
HStem: -128 34<284 325> 265 34<74 112.5> 658 34<284 325>
VStem: 74 90<279 285 279 299 279 299> 147 100 164 97
LayerCount: 2
Fore
SplineSet
325 692 m 1xe8
 325 658 l 1
 244 654 240 607 247 539 c 2xe8
 255 462 l 2
 263 382 282 309 164 285 c 1
 164 279 l 1
 282 255 263 182 255 102 c 2xe4
 247 25 l 2
 240 -43 244 -90 325 -94 c 1
 325 -128 l 1
 284 -128 l 2xe8
 142 -128 141 -24 150 59 c 2
 160 153 l 2xe4
 168 224 151 265 74 265 c 1xf0
 74 299 l 1
 173 299 168 340 160 411 c 2xe4
 150 505 l 2
 141 588 142 692 284 692 c 2
 325 692 l 1xe8
EndSplineSet
EndChar
StartChar: bar
Encoding: 124 124 92
Width: 284
Flags: MW
HStem: -250 1000<94 190 94 190>
VStem: 94 96<-250 750 -250 750>
LayerCount: 2
Fore
SplineSet
94 -250 m 1
 94 750 l 1
 190 750 l 1
 190 -250 l 1
 94 -250 l 1
EndSplineSet
EndChar
StartChar: braceright
Encoding: 125 125 93
Width: 365
Flags: W
HStem: -128 34<40 81 40 40> 265 34<252.5 291> 658 34<40 81>
VStem: 104 97 118 100 201 90<279 285 285 285>
LayerCount: 2
Fore
SplineSet
40 658 m 1xe8
 40 692 l 1
 81 692 l 2xe8
 223 692 224 588 215 505 c 2
 205 411 l 2xf0
 197 340 192 299 291 299 c 1xe4
 291 265 l 1
 214 265 197 224 205 153 c 2xf0
 215 59 l 2
 224 -24 223 -128 81 -128 c 2
 40 -128 l 1
 40 -94 l 1
 121 -90 125 -43 118 25 c 2xe8
 110 102 l 2
 102 182 83 255 201 279 c 1
 201 285 l 1
 83 309 102 382 110 462 c 2xf0
 118 539 l 2
 125 607 121 654 40 658 c 1xe8
EndSplineSet
EndChar
StartChar: asciitilde
Encoding: 126 126 94
Width: 600
Flags: W
HStem: 178 89<394.5 427.5 394.5 438.5> 235 89<172 207.5>
VStem: 50 501<186 311>
LayerCount: 2
Fore
SplineSet
497 339 m 1xe0
 551 311 l 1
 523 245 482 178 395 178 c 0xa0
 352 178 318 192 287 207 c 0
 255 221 226 235 189 235 c 0
 155 235 130 209 106 158 c 1
 50 186 l 1
 74 243 113 324 205 324 c 0x60
 241 324 277 310 311 296 c 0
 345 281 379 267 410 267 c 0
 445 267 468 285 497 339 c 1xe0
EndSplineSet
EndChar
StartChar: exclamdown
Encoding: 161 161 95
Width: 278
Flags: W
HStem: 316 186<111.5 167> 482 20G<111.5 167>
VStem: 47 184<382 409 382 436.5> 52 173
LayerCount: 2
Fore
SplineSet
139 -217 m 0x70
 52 -217 45 -181 56 -102 c 2
 107 271 l 1
 171 271 l 1
 221 -102 l 2
 232 -181 225 -217 139 -217 c 0x70
139 502 m 0x60
 195 502 229 464 231 409 c 0
 231 355 195 316 139 316 c 0xa0
 84 316 47 355 47 409 c 0
 47 464 84 502 139 502 c 0x60
EndSplineSet
EndChar
StartChar: cent
Encoding: 162 162 96
Width: 560
Flags: MW
HStem: -15 21G<294 350 294 294> 87 59<294 379 350 379> 553 46<294 296> 658 20G<296 350 350 350>
VStem: 39 153<319.5 426> 294 56<-15 87 -15 87 150 553>
LayerCount: 2
Fore
SplineSet
294 150 m 1
 294 553 l 1
 250 549 192 518 192 368 c 0
 192 271 215 169 294 150 c 1
350 87 m 1
 350 -15 l 1
 294 -15 l 1
 294 87 l 1
 97 86 39 208 39 339 c 0
 39 513 137 594 296 599 c 1
 296 678 l 1
 350 678 l 1
 350 599 l 1
 418 598 539 568 539 495 c 0
 539 455 496 436 464 436 c 0
 440 436 428 448 418 473 c 0
 396 531 374 550 350 553 c 1
 350 146 l 1
 408 146 465 163 509 243 c 1
 546 221 l 1
 508 120 414 88 350 87 c 1
EndSplineSet
EndChar
StartChar: sterling
Encoding: 163 163 97
Width: 560
Flags: W
HStem: 0 9 0 116<237 426 426 443 237 499> 290 48<38 132 38 159 38 132 318 318 318 448> 633 46<270 306>
VStem: 83 139<532 536> 189 133<166.5 256.5>
LayerCount: 2
Fore
SplineSet
499 0 m 1x78
 30 0 l 1
 21 9 l 1
 43 72 l 1
 133 102 189 137 189 196 c 0
 189 225 178 258 159 290 c 1xb4
 38 290 l 1
 38 338 l 1
 132 338 l 1
 122 357 83 424 83 485 c 0
 83 587 146 679 301 679 c 0
 450 679 497 600 497 560 c 0
 497 521 449 499 419 499 c 0
 396 499 385 512 377 530 c 0
 347 593 324 633 288 633 c 0
 252 633 222 596 222 546 c 0
 222 518 230 486 253 438 c 0
 270 402 290 368 304 338 c 1x78
 448 338 l 1
 448 290 l 1
 318 290 l 1
 320 277 322 264 322 249 c 0
 323 203 295 152 237 118 c 1
 237 116 l 1x74
 426 116 l 2
 460 116 479 127 496 149 c 2
 520 180 l 1
 555 167 l 1
 499 0 l 1x78
EndSplineSet
EndChar
StartChar: currency
Encoding: 168 164 102
Width: 560
Flags: MW
HStem: 98 89<258 302> 481 89<258 302 258 317.5>
VStem: 46 102<309.5 358.5> 412 102<309.5 358.5 309.5 375.5>
LayerCount: 2
Fore
SplineSet
280 570 m 0
 324 570 377 557 410 529 c 1
 448 578 l 2
 463 598 496 604 520 580 c 0
 549 552 541 524 520 507 c 2
 471 468 l 1
 499 436 514 383 514 334 c 0
 514 285 499 232 471 200 c 1
 520 161 l 2
 541 144 549 116 520 88 c 0
 496 64 463 70 448 90 c 2
 410 139 l 1
 377 111 324 98 280 98 c 0
 236 98 183 111 150 139 c 1
 112 90 l 2
 97 70 64 64 40 88 c 0
 11 116 19 144 40 161 c 2
 89 200 l 1
 61 232 46 285 46 334 c 0
 46 383 61 436 89 468 c 1
 40 507 l 2
 19 524 11 552 40 580 c 0
 64 604 97 598 112 578 c 2
 150 529 l 1
 183 557 236 570 280 570 c 0
280 481 m 0
 205 481 148 417 148 334 c 0
 148 251 205 187 280 187 c 0
 355 187 412 251 412 334 c 0
 412 417 355 481 280 481 c 0
EndSplineSet
EndChar
StartChar: yen
Encoding: 165 165 99
Width: 560
Flags: W
HStem: 0 39 214 48<51 208 51 208 355 513> 349 48<51 170 51 191 51 170 386 513> 626.5 41.5 630 38
VStem: 3 221 208 147<77 214 69 214 262 272> 411 151
LayerCount: 2
Fore
SplineSet
435 0 m 1xeb
 128 0 l 1
 128 36 l 1
 185 42 l 2
 206 44 208 61 208 77 c 2
 208 214 l 1
 51 214 l 1
 51 262 l 1
 208 262 l 1
 208 291 208 311 202 325 c 2
 191 349 l 1xeb
 51 349 l 1
 51 397 l 1
 170 397 l 1
 127 484 93 553 72 592 c 0
 60 614 47 625 30 628 c 2
 3 632 l 1
 3 668 l 1xed
 285 668 l 1
 285 629 l 1xeb
 238 624 l 2
 219 622 223 609 229 595 c 2xf3
 320 386 l 1
 322 386 l 1
 361 474 397 560 408 592 c 0
 415 615 407 624 389 626 c 2
 341 632 l 1
 341 668 l 1
 562 668 l 1
 562 632 l 1
 529 628 l 2
 507 625 493 612 479 586 c 0
 462 555 423 481 386 397 c 1
 513 397 l 1
 513 349 l 1
 366 349 l 1
 359 327 l 2
 355 314 355 282 355 262 c 1
 513 262 l 1
 513 214 l 1
 355 214 l 1
 355 77 l 2
 355 61 357 44 377 42 c 2
 435 36 l 1
 435 0 l 1xeb
EndSplineSet
EndChar
StartChar: brokenbar
Encoding: 275 166 168
Width: 284
Flags: MW
HStem: 655 20G<94 190 190 190>
VStem: 94 96<-175 175 -175 175 325 675>
LayerCount: 2
Fore
SplineSet
94 675 m 1
 190 675 l 1
 190 325 l 1
 94 325 l 1
 94 675 l 1
94 -175 m 1
 94 175 l 1
 190 175 l 1
 190 -175 l 1
 94 -175 l 1
EndSplineSet
EndChar
StartChar: section
Encoding: 167 167 101
Width: 566
Flags: MW
HStem: -115 48<291 319.5 291 333> 659 48<255 285>
VStem: 35 65<398.5 404> 466 65<207 211.5>
LayerCount: 2
Fore
SplineSet
316 353 m 0
 241 394 172 435 143 496 c 1
 123 486 100 457 100 428 c 0
 100 369 143 321 266 255 c 0
 344 213 409 165 436 115 c 1
 449 128 466 150 466 183 c 0
 466 240 421 296 316 353 c 0
35 370 m 0
 35 438 71 510 129 553 c 1
 128 617 172 707 307 707 c 0
 382 707 455 669 455 622 c 0
 455 589 417 566 392 566 c 0
 372 566 363 577 354 591 c 0
 321 642 300 659 270 659 c 0
 240 659 220 635 220 610 c 0
 220 583 226 546 328 492 c 0
 476 414 531 358 531 240 c 0
 531 174 498 108 455 53 c 1
 456 -43 396 -115 270 -115 c 0
 171 -115 102 -69 101 -20 c 0
 101 26 138 45 165 45 c 0
 187 45 199 38 211 14 c 0
 244 -53 275 -67 307 -67 c 0
 332 -67 359 -48 359 -14 c 0
 359 22 342 69 218 134 c 0
 77 208 35 277 35 370 c 0
EndSplineSet
EndChar
StartChar: dieresis
Encoding: 200 168 130
Width: 430
Flags: MW
HStem: 561 149<69.5 121 309.5 361>
VStem: 16 158<616 654> 256 158<616 654>
LayerCount: 2
Fore
SplineSet
95 561 m 0
 44 561 16 597 16 635 c 0
 16 673 44 710 95 710 c 0
 147 710 174 673 174 635 c 0
 174 597 147 561 95 561 c 0
335 561 m 0
 284 561 256 597 256 635 c 0
 256 673 284 710 335 710 c 0
 387 710 414 673 414 635 c 0
 414 597 387 561 335 561 c 0
EndSplineSet
EndChar
StartChar: copyright
Encoding: 325 169 218
Width: 800
Flags: MW
HStem: -15 63<322.5 477.5 322.5 500.5> 151 32<394.5 445> 516 32<392.5 447.5 345 457> 644 63<322.5 477.5>
VStem: 36 83<262 430 262 446> 207 120<308 398.5 308 403> 531 27<415 415> 681 83<262 430>
LayerCount: 2
Fore
SplineSet
400 -15 m 0
 199 -15 36 146 36 346 c 0
 36 546 199 707 400 707 c 0
 601 707 764 546 764 346 c 0
 764 146 601 -15 400 -15 c 0
119 346 m 0
 119 178 245 48 400 48 c 0
 555 48 681 178 681 346 c 0
 681 514 555 644 400 644 c 0
 245 644 119 514 119 346 c 0
558 415 m 1
 531 415 l 1
 516 462 487 516 427 516 c 0
 358 516 327 443 327 354 c 0
 327 262 356 183 433 183 c 0
 490 183 519 238 541 290 c 1
 568 290 l 1
 557 182 l 1
 525 162 471 151 419 151 c 0
 263 151 207 236 207 348 c 0
 207 458 270 548 420 548 c 0
 475 548 526 538 558 519 c 1
 558 415 l 1
EndSplineSet
EndChar
StartChar: ordfeminine
Encoding: 227 170 138
Width: 405
Flags: MW
HStem: 265 54<97 199> 554 36<182 200.5>
VStem: 28 120<351.5 375> 227 112<356 362 362 439 439 439 476 495>
LayerCount: 2
Fore
SplineSet
339 495 m 2
 339 362 l 2
 339 318 352 306 394 307 c 1
 395 284 l 1
 372 276 329 265 285 265 c 0
 251 265 241 284 230 301 c 1
 200 286 174 265 133 265 c 0
 61 265 28 311 28 358 c 0
 28 392 49 418 97 434 c 0
 142 449 181 462 227 476 c 1
 227 511 l 2
 227 541 210 554 191 554 c 0
 173 554 152 547 132 496 c 0
 124 476 116 466 100 466 c 0
 77 466 34 479 34 511 c 0
 34 553 96 590 201 590 c 0
 327 590 339 538 339 495 c 2
227 356 m 2
 227 439 l 1
 200 434 148 427 148 370 c 0
 148 333 173 319 190 319 c 0
 208 319 225 327 227 356 c 2
EndSplineSet
EndChar
StartChar: guillemotleft
Encoding: 171 171 105
Width: 487
Flags: MW
HStem: 37 427<223 223 223 423>
VStem: 40 129 240 129
LayerCount: 2
Fore
SplineSet
223 464 m 1
 252 443 l 1
 173 268 l 2
 168 257 167 246 173 232 c 2
 252 58 l 1
 223 37 l 1
 49 231 l 2
 37 245 38 258 49 270 c 2
 223 464 l 1
423 464 m 1
 452 443 l 1
 373 268 l 2
 368 257 367 246 373 232 c 2
 452 58 l 1
 423 37 l 1
 249 231 l 2
 237 245 238 258 249 270 c 2
 423 464 l 1
EndSplineSet
EndChar
StartChar: logicalnot
Encoding: 265 172 158
Width: 600
Flags: MW
HStem: 317 80<58 446 58 542>
VStem: 446 96<95 317 317 317>
LayerCount: 2
Fore
SplineSet
446 95 m 1
 446 317 l 1
 58 317 l 1
 58 397 l 1
 542 397 l 1
 542 95 l 1
 446 95 l 1
EndSplineSet
EndChar
StartChar: registered
Encoding: 281 174 174
Width: 800
Flags: MW
HStem: -15 63<322.5 477.5 322.5 500.5> 159 28 331 32<367 385 367 391> 508 32<384.5 413.5> 644 63<322.5 477.5>
VStem: 36 83<262 430 262 446> 267 100<219 331 363 481 481 488> 456 105<425 462.5> 681 83<262 430>
LayerCount: 2
Fore
SplineSet
414 159 m 1
 221 159 l 1
 221 185 l 1
 248 189 l 2
 264 191 267 201 267 219 c 2
 267 481 l 2
 267 498 264 508 248 510 c 2
 221 514 l 1
 221 540 l 1
 429 540 l 2
 528 540 561 500 561 448 c 0
 561 396 525 361 472 351 c 1
 472 349 l 1
 527 334 533 297 544 253 c 0
 550 228 559 205 571 196 c 0
 577 191 585 188 595 185 c 1
 595 159 l 1
 540 159 l 2
 482 159 464 174 451 204 c 0
 440 230 433 274 427 295 c 0
 421 316 412 331 385 331 c 2
 367 331 l 1
 367 219 l 2
 367 201 371 191 387 189 c 2
 414 185 l 1
 414 159 l 1
367 488 m 2
 367 363 l 1
 391 363 l 2
 416 363 431 370 441 382 c 0
 451 395 456 413 456 437 c 0
 456 488 429 508 398 508 c 0
 371 508 367 503 367 488 c 2
400 -15 m 0
 199 -15 36 146 36 346 c 0
 36 546 199 707 400 707 c 0
 601 707 764 546 764 346 c 0
 764 146 601 -15 400 -15 c 0
119 346 m 0
 119 178 245 48 400 48 c 0
 555 48 681 178 681 346 c 0
 681 514 555 644 400 644 c 0
 245 644 119 514 119 346 c 0
EndSplineSet
EndChar
StartChar: macron
Encoding: 197 175 127
Width: 430
Flags: MW
HStem: 587 87<60 371 60 371>
VStem: 60 311<587 674 587 674>
LayerCount: 2
Fore
SplineSet
60 674 m 1
 371 674 l 1
 371 587 l 1
 60 587 l 1
 60 674 l 1
EndSplineSet
EndChar
StartChar: degree
Encoding: 258 176 151
Width: 396
Flags: MW
HStem: 360 58<174 221.5 174 243> 622 58<173.5 221>
VStem: 35 77<491 520> 284 77<491 550>
LayerCount: 2
Fore
SplineSet
198 360 m 0
 107 360 35 430 35 520 c 0
 34 610 107 680 198 680 c 0
 288 680 361 610 361 520 c 0
 361 430 288 360 198 360 c 0
197 622 m 0
 150 622 111 579 112 521 c 0
 112 461 150 418 198 418 c 0
 245 418 284 461 284 521 c 0
 284 579 245 622 197 622 c 0
EndSplineSet
EndChar
StartChar: plusminus
Encoding: 317 177 210
Width: 600
Flags: MW
HStem: 0 80<58 542 58 542> 298 80<58 253 58 253 349 542>
VStem: 253 96<129 298 129 298 378 549>
LayerCount: 2
Fore
SplineSet
58 298 m 1
 58 378 l 1
 253 378 l 1
 253 549 l 1
 349 549 l 1
 349 378 l 1
 542 378 l 1
 542 298 l 1
 349 298 l 1
 349 129 l 1
 253 129 l 1
 253 298 l 1
 58 298 l 1
58 0 m 1
 58 80 l 1
 542 80 l 1
 542 0 l 1
 58 0 l 1
EndSplineSet
EndChar
StartChar: twosuperior
Encoding: 299 178 192
Width: 402
Flags: MW
HStem: 272 82<138 306 306 317 138 351> 642 38<189.5 212>
VStem: 235 126<561.5 598.5>
LayerCount: 2
Fore
SplineSet
351 272 m 1
 40 272 l 1
 29 282 l 1
 32 340 84 393 154 446 c 0
 221 497 235 542 235 581 c 0
 235 616 223 642 201 642 c 0
 178 642 164 616 152 564 c 0
 146 539 133 528 109 528 c 0
 83 528 43 545 43 581 c 0
 43 632 105 680 202 680 c 0
 296 680 361 643 361 561 c 0
 361 489 306 457 251 434 c 0
 196 412 152 386 138 354 c 1
 306 354 l 2
 328 354 338 358 354 385 c 1
 382 377 l 1
 351 272 l 1
EndSplineSet
EndChar
StartChar: threesuperior
Encoding: 313 179 206
Width: 402
Flags: W
HStem: 265 38<182.5 206.5 182.5 257.5> 466 38<175 197.5> 642 38<180 203>
VStem: 226 125<569.5 597.5> 240 128<359 412.5 353 421.5>
LayerCount: 2
Fore
SplineSet
99 484 m 0xf0
 99 504 106 516 121 516 c 0
 135 516 164 504 186 504 c 0
 225 504 226 557 226 582 c 0
 226 613 216 642 190 642 c 0
 170 642 156 619 144 578 c 0
 138 557 127 546 103 546 c 0
 79 546 42 560 40 593 c 0
 41 639 96 680 198 680 c 0
 271 680 351 656 351 578 c 0
 351 524 306 498 264 490 c 1
 264 487 l 1xf0
 320 479 368 441 368 384 c 0
 368 322 327 265 188 265 c 0
 114 265 30 294 30 350 c 0
 30 386 67 410 93 410 c 0
 116 410 128 396 134 377 c 0
 153 323 173 303 192 303 c 0
 221 303 240 332 240 386 c 0
 240 457 209 466 186 466 c 0xe8
 163 466 135 454 121 454 c 0
 106 454 99 466 99 484 c 0xf0
EndSplineSet
EndChar
StartChar: acute
Encoding: 194 180 124
Width: 430
Flags: MW
HStem: 511 229<140 350>
VStem: 119 272<541 692.5>
LayerCount: 2
Fore
SplineSet
140 511 m 1
 119 541 l 1
 264 690 l 2
 301 728 318 740 338 740 c 0
 362 740 391 705 391 680 c 0
 391 654 359 634 323 614 c 2
 140 511 l 1
EndSplineSet
EndChar
StartChar: mu
Encoding: 274 181 167
Width: 629
Flags: W
HStem: -242 21G<106.5 127> -12 79<236 339> 0 38<412 620> 476 20G<233 233 555 555> 482 20G<226 226 548 548>
VStem: 82 151<137 176 176 381 381 401> 404 151<56 87 170 381 381 401>
LayerCount: 2
Fore
SplineSet
412 0 m 1xae
 404 56 l 1
 364 34 312 -12 255 -12 c 0
 217 -12 186 3 168 20 c 1
 166 20 l 1
 166 -8 l 2
 166 -38 181 -81 195 -106 c 0
 208 -130 220 -153 220 -168 c 0
 220 -182 213 -202 184 -221 c 0
 167 -233 137 -242 117 -242 c 0
 96 -242 82 -234 82 -192 c 2
 82 381 l 2
 82 421 74 430 58 432 c 2
 23 437 l 1
 23 473 l 1
 226 502 l 1
 233 496 l 1
 233 176 l 2
 233 98 264 67 317 67 c 0
 361 67 387 91 396 114 c 0
 402 129 404 153 404 170 c 2
 404 381 l 2
 404 421 396 430 380 432 c 2
 345 437 l 1
 345 473 l 1
 548 502 l 1
 555 496 l 1xd6
 555 87 l 2
 555 45 563 41 620 38 c 1
 620 0 l 1
 412 0 l 1xae
EndSplineSet
EndChar
StartChar: paragraph
Encoding: 182 182 114
Width: 552
Flags: W
HStem: -101 31<243 441 243 243> 649 43<462 462> 661 31<527 527>
VStem: 35 242<396.5 532> 344 97<-7 608 -101 692 -101 692>
LayerCount: 2
Fore
SplineSet
277 692 m 1xb8
 277 238 l 1
 127 238 35 328 35 465 c 0
 35 599 122 692 277 692 c 1xb8
441 608 m 2xd8
 441 -101 l 1
 243 -101 l 1
 243 -70 l 1
 323 -56 l 2
 341 -53 344 -36 344 -7 c 2
 344 692 l 1
 527 692 l 1
 527 661 l 1xb8
 462 649 l 2
 444 646 441 637 441 608 c 2xd8
EndSplineSet
EndChar
StartChar: periodcentered
Encoding: 180 183 113
Width: 280
Flags: MW
HStem: 156 186<112.5 168>
VStem: 48 184<249 276 249 276>
LayerCount: 2
Fore
SplineSet
140 156 m 0
 85 156 48 194 48 249 c 0
 48 303 85 342 140 342 c 0
 196 342 232 303 232 249 c 0
 230 194 196 156 140 156 c 0
EndSplineSet
EndChar
StartChar: cedilla
Encoding: 203 184 132
Width: 430
Flags: MW
HStem: -243 32<136 164> -58 58<236 236>
VStem: 230 105<-174.5 -132>
LayerCount: 2
Fore
SplineSet
217 0 m 1
 275 0 l 1
 236 -58 l 1
 267 -62 335 -79 335 -144 c 0
 335 -234 231 -246 184 -246 c 0
 165 -246 153 -245 136 -243 c 1
 136 -211 l 1
 192 -211 230 -196 230 -153 c 0
 230 -111 186 -102 164 -100 c 1
 160 -92 l 1
 217 0 l 1
EndSplineSet
EndChar
StartChar: onesuperior
Encoding: 256 185 149
Width: 402
Flags: W
HStem: 272 29.5 653 20G<257 257> 660 20G<249 249>
VStem: 138 119<340 590 590 602>
LayerCount: 2
Fore
SplineSet
324 272 m 1xb0
 71 272 l 1
 71 299 l 1
 109 304 l 2
 130 307 138 314 138 340 c 2
 138 590 l 2
 138 614 130 621 114 624 c 2
 73 630 l 1
 73 656 l 1
 249 680 l 1
 257 673 l 1xd0
 257 340 l 2
 257 314 265 307 286 304 c 2
 324 299 l 1
 324 272 l 1xb0
EndSplineSet
EndChar
StartChar: ordmasculine
Encoding: 235 186 142
Width: 427
Flags: MW
HStem: 265 36<194 234 194 281.5> 554 36<194 234>
VStem: 28 126<389 466.5 389 475> 273 126<389 466.5>
LayerCount: 2
Fore
SplineSet
214 590 m 0
 349 590 399 522 399 428 c 0
 399 333 349 265 214 265 c 0
 79 265 28 333 28 428 c 0
 28 522 79 590 214 590 c 0
154 428 m 0
 154 350 174 301 214 301 c 0
 254 301 273 350 273 428 c 0
 273 505 254 554 214 554 c 0
 174 554 154 505 154 428 c 0
EndSplineSet
EndChar
StartChar: guillemotright
Encoding: 187 187 119
Width: 487
Flags: MW
HStem: 37 427<64 64 64 264>
VStem: 118 129 318 129
LayerCount: 2
Fore
SplineSet
35 443 m 1
 64 464 l 1
 238 270 l 2
 249 258 250 245 238 231 c 2
 64 37 l 1
 35 58 l 1
 114 232 l 2
 120 246 119 257 114 268 c 2
 35 443 l 1
235 443 m 1
 264 464 l 1
 438 270 l 2
 449 258 450 245 438 231 c 2
 264 37 l 1
 235 58 l 1
 314 232 l 2
 320 246 319 257 314 268 c 2
 235 443 l 1
EndSplineSet
EndChar
StartChar: onequarter
Encoding: 264 188 157
Width: 900
Flags: W
HStem: 0 29 93 49<527 632 527 632 747 814> 272 29.5 311 90<630 747 630 747> 647 20G<653 653> 653 20G<259 259> 675 20G<600 600>
VStem: 140 119<340 590 590 602> 632 115<61 93 49.5 93 142 311 311 311>
LayerCount: 2
Fore
SplineSet
527 142 m 1xe380
 632 142 l 1
 632 311 l 1
 630 311 l 1xfb80
 594 261 561 202 527 142 c 1xe380
632 93 m 1
 470 93 l 1
 456 119 l 1
 520 221 587 319 651 401 c 1
 747 401 l 1
 747 142 l 1
 814 142 l 1
 814 93 l 1
 747 93 l 1
 747 61 l 2
 747 38 754 32 769 30 c 2
 796 27 l 1
 796 0 l 1
 573 0 l 1
 573 27 l 1
 610 31 l 2
 624 33 632 38 632 61 c 2
 632 93 l 1
295 -27 m 1
 243 4 l 1
 600 695 l 1xe380
 653 667 l 1
 295 -27 l 1
326 272 m 1
 73 272 l 1
 73 299 l 1
 111 304 l 2
 132 307 140 314 140 340 c 2
 140 590 l 2
 140 614 132 621 116 624 c 2
 75 630 l 1
 75 656 l 1
 251 680 l 1
 259 673 l 1xe580
 259 340 l 2
 259 314 267 307 288 304 c 2
 326 299 l 1
 326 272 l 1
EndSplineSet
EndChar
StartChar: onehalf
Encoding: 267 189 160
Width: 900
Flags: W
HStem: 0 82<605 773 773 784 605 818> 272 29.5 370 38<656.5 679> 647 20G<628 628> 653 20G<239 239> 675 20G<575 575>
VStem: 120 119<340 590 590 602> 702 126<289.5 326.5>
LayerCount: 2
Fore
SplineSet
306 272 m 1xe6
 53 272 l 1
 53 299 l 1
 91 304 l 2
 112 307 120 314 120 340 c 2
 120 590 l 2
 120 614 112 621 96 624 c 2
 55 630 l 1
 55 656 l 1
 231 680 l 1
 239 673 l 1xea
 239 340 l 2
 239 314 247 307 268 304 c 2
 306 299 l 1
 306 272 l 1xe6
270 -27 m 1
 218 4 l 1
 575 695 l 1xe7
 628 667 l 1xf6
 270 -27 l 1
818 0 m 1
 507 0 l 1
 496 10 l 1
 499 68 551 121 621 174 c 0
 688 225 702 270 702 309 c 0
 702 344 690 370 668 370 c 0
 645 370 631 344 619 292 c 0
 613 267 600 256 576 256 c 0
 550 256 510 273 510 309 c 0
 510 360 572 408 669 408 c 0
 763 408 828 371 828 289 c 0
 828 217 773 185 718 162 c 0
 663 140 619 114 605 82 c 1
 773 82 l 2
 795 82 805 86 821 113 c 1
 849 105 l 1
 818 0 l 1
EndSplineSet
EndChar
StartChar: threequarters
Encoding: 315 190 208
Width: 900
Flags: W
HStem: 0 29 93 49<555 660 555 660 775 842> 265 38<192.5 216.5 192.5 267.5> 311 90<658 775 658 775> 466 38<185 207.5> 642 38<190 213> 647 20G<677 677> 675 20G<624 624>
VStem: 236 125<569.5 597.5> 250 128<359 412.5 353 421.5> 660 115<61 93 49.5 93 142 311 311 311>
LayerCount: 2
Fore
SplineSet
555 142 m 1xec20
 660 142 l 1
 660 311 l 1
 658 311 l 1xfc60
 622 261 589 202 555 142 c 1xec20
660 93 m 1
 498 93 l 1
 484 119 l 1
 548 221 615 319 679 401 c 1
 775 401 l 1
 775 142 l 1
 842 142 l 1
 842 93 l 1
 775 93 l 1
 775 61 l 2
 775 38 782 32 797 30 c 2
 824 27 l 1
 824 0 l 1
 601 0 l 1
 601 27 l 1
 638 31 l 2
 652 33 660 38 660 61 c 2
 660 93 l 1
109 484 m 0
 109 504 116 516 131 516 c 0
 145 516 174 504 196 504 c 0
 235 504 236 557 236 582 c 0
 236 613 226 642 200 642 c 0
 180 642 166 619 154 578 c 0
 148 557 137 546 113 546 c 0
 89 546 52 560 50 593 c 0
 51 639 106 680 208 680 c 0
 281 680 361 656 361 578 c 0
 361 524 316 498 274 490 c 1
 274 487 l 1xeca0
 330 479 378 441 378 384 c 0
 378 322 337 265 198 265 c 0
 124 265 40 294 40 350 c 0
 40 386 77 410 103 410 c 0
 126 410 138 396 144 377 c 0
 163 323 183 303 202 303 c 0xec60
 231 303 250 332 250 386 c 0
 250 457 219 466 196 466 c 0
 173 466 145 454 131 454 c 0
 116 454 109 466 109 484 c 0
319 -27 m 1
 267 4 l 1
 624 695 l 1xe920
 677 667 l 1xea20
 319 -27 l 1
EndSplineSet
EndChar
StartChar: questiondown
Encoding: 191 191 122
Width: 456
Flags: W
HStem: -217 46<218 244 218 297.5> 196 70<128.5 268> 316 186<196.5 252> 482 20G<196.5 252>
VStem: 23 167<-116.5 -66.5 -116.5 -33.5> 132 184<382 409 382 436.5> 202 168<145.5 158>
LayerCount: 2
Fore
SplineSet
232 266 m 0xd6
 304 266 370 232 370 160 c 0xd2
 370 131 355 96 284 53 c 0
 219 13 190 -39 190 -94 c 0
 190 -139 205 -171 231 -171 c 0
 257 -171 277 -144 297 -61 c 0
 303 -36 319 -24 351 -24 c 0
 384 -24 436 -47 436 -92 c 0
 436 -142 368 -217 227 -217 c 0
 110 -217 23 -169 23 -69 c 0xd8
 23 2 86 33 128 55 c 0
 178 81 202 113 202 143 c 0
 202 173 178 196 139 196 c 0
 118 196 103 193 92 190 c 1
 81 217 l 1
 121 244 175 266 232 266 c 0xd6
224 502 m 0xd4
 280 502 314 464 316 409 c 0
 316 355 280 316 224 316 c 0xe4
 169 316 132 355 132 409 c 0
 132 464 169 502 224 502 c 0xd4
EndSplineSet
EndChar
StartChar: Agrave
Encoding: 283 192 176
Width: 644
Flags: W
HStem: 0 38<-28 206 -28 -28> 246 48<192 354 192 370 176 354> 553 139<273 276 273 273> 672 20G<262 388 388 388>
VStem: -28 234<0 38 0 38> -28 691<0 38 0 38>
LayerCount: 2
Fore
SplineSet
206 0 m 1xdc
 -28 0 l 1
 -28 38 l 1
 26 41 37 48 53 90 c 0
 77 151 110 252 146 355 c 2
 262 692 l 1
 388 692 l 1
 585 86 l 2
 598 45 611 39 663 38 c 1
 663 0 l 1
 347 0 l 1
 347 38 l 1
 405 44 l 2
 426 46 429 59 422 80 c 2
 370 246 l 1
 176 246 l 1
 158 187 140 133 128 79 c 0
 123 57 124 45 146 43 c 2
 206 38 l 1
 206 0 l 1xdc
192 294 m 1
 354 294 l 1
 276 553 l 1
 273 553 l 1xe4
 192 294 l 1
432 751 m 1
 418 719 l 1
 215 783 l 2
 162 800 142 811 142 840 c 0
 142 860 164 904 196 904 c 0
 214 904 229 897 260 874 c 2
 432 751 l 1
EndSplineSet
EndChar
StartChar: Aacute
Encoding: 291 193 184
Width: 644
Flags: W
HStem: 0 38<-28 206 -28 -28> 246 48<192 354 192 370 176 354> 553 139<273 276 273 273> 672 20G<262 388 388 388>
VStem: -28 234<0 38 0 38> -28 691<0 38 0 38>
LayerCount: 2
Fore
SplineSet
206 0 m 1xdc
 -28 0 l 1
 -28 38 l 1
 26 41 37 48 53 90 c 0
 77 151 110 252 146 355 c 2
 262 692 l 1
 388 692 l 1
 585 86 l 2
 598 45 611 39 663 38 c 1
 663 0 l 1
 347 0 l 1
 347 38 l 1
 405 44 l 2
 426 46 429 59 422 80 c 2
 370 246 l 1
 176 246 l 1
 158 187 140 133 128 79 c 0
 123 57 124 45 146 43 c 2
 206 38 l 1
 206 0 l 1xdc
192 294 m 1
 354 294 l 1
 276 553 l 1
 273 553 l 1xe4
 192 294 l 1
229 719 m 1
 215 751 l 1
 387 874 l 2
 418 897 433 904 451 904 c 0
 483 904 505 860 505 840 c 0
 505 811 485 800 432 783 c 2
 229 719 l 1
EndSplineSet
EndChar
StartChar: Acircumflex
Encoding: 306 194 199
Width: 644
Flags: W
HStem: 0 38<-28 206 -28 -28> 246 48<192 354 192 370 176 354> 553 139<273 276 273 273> 672 20G<262 388 388 388> 800 105<320 331>
VStem: -28 234<0 38 0 38> -28 691<0 38 0 38>
LayerCount: 2
Fore
SplineSet
206 0 m 1xd6
 -28 0 l 1
 -28 38 l 1
 26 41 37 48 53 90 c 0
 77 151 110 252 146 355 c 2
 262 692 l 1
 388 692 l 1
 585 86 l 2
 598 45 611 39 663 38 c 1
 663 0 l 1
 347 0 l 1
 347 38 l 1
 405 44 l 2
 426 46 429 59 422 80 c 2
 370 246 l 1
 176 246 l 1
 158 187 140 133 128 79 c 0
 123 57 124 45 146 43 c 2
 206 38 l 1
 206 0 l 1xd6
192 294 m 1
 354 294 l 1
 276 553 l 1
 273 553 l 1xea
 192 294 l 1
514 755 m 1
 496 725 l 1
 365 785 l 2
 352 792 337 800 325 800 c 0
 315 800 301 792 287 785 c 2
 157 725 l 1
 138 755 l 1
 280 881 l 2
 296 896 311 905 325 905 c 0
 340 905 358 895 372 882 c 2
 514 755 l 1
EndSplineSet
EndChar
StartChar: Atilde
Encoding: 303 195 196
Width: 644
Flags: W
HStem: 0 38<-28 206 -28 -28> 246 48<192 354 192 370 176 354> 553 139<273 276 273 273> 672 20G<262 388 388 388> 721 20G<114 114> 736 85<419 445> 778 85<208 236>
VStem: -28 234<0 38 0 38> -28 691<0 38 0 38>
LayerCount: 2
Fore
SplineSet
206 0 m 1xdb80
 -28 0 l 1
 -28 38 l 1
 26 41 37 48 53 90 c 0
 77 151 110 252 146 355 c 2
 262 692 l 1
 388 692 l 1
 585 86 l 2
 598 45 611 39 663 38 c 1
 663 0 l 1
 347 0 l 1
 347 38 l 1
 405 44 l 2
 426 46 429 59 422 80 c 2
 370 246 l 1
 176 246 l 1
 158 187 140 133 128 79 c 0
 123 57 124 45 146 43 c 2
 206 38 l 1
 206 0 l 1xdb80
192 294 m 1
 354 294 l 1
 276 553 l 1
 273 553 l 1xe480
 192 294 l 1
507 876 m 1
 539 858 l 1
 521 815 486 736 404 736 c 0xd480
 379 736 348 747 316 757 c 0
 284 768 251 778 221 778 c 0
 184 778 168 762 146 723 c 1
 114 741 l 1
 132 784 167 863 249 863 c 0xda80
 277 863 309 853 341 842 c 0
 374 832 406 821 432 821 c 0
 469 821 485 837 507 876 c 1
EndSplineSet
EndChar
StartChar: Adieresis
Encoding: 310 196 203
Width: 644
Flags: W
HStem: 0 38<-28 206 -28 -28> 246 48<192 354 192 370 176 354> 553 139<273 276 273 273> 672 20G<262 388 388 388> 732 149<170.5 222 422.5 474>
VStem: -28 234<0 38 0 38> 117 158<787 825> 369 158<787 825>
LayerCount: 2
Fore
SplineSet
206 0 m 1xdf
 -28 0 l 1
 -28 38 l 1
 26 41 37 48 53 90 c 0
 77 151 110 252 146 355 c 2
 262 692 l 1
 388 692 l 1
 585 86 l 2
 598 45 611 39 663 38 c 1
 663 0 l 1
 347 0 l 1
 347 38 l 1
 405 44 l 2
 426 46 429 59 422 80 c 2
 370 246 l 1
 176 246 l 1
 158 187 140 133 128 79 c 0
 123 57 124 45 146 43 c 2
 206 38 l 1
 206 0 l 1xdf
192 294 m 1
 354 294 l 1
 276 553 l 1
 273 553 l 1xeb
 192 294 l 1
196 732 m 0
 145 732 117 768 117 806 c 0
 117 844 145 881 196 881 c 0
 248 881 275 844 275 806 c 0
 275 768 248 732 196 732 c 0
448 732 m 0
 397 732 369 768 369 806 c 0
 369 844 397 881 448 881 c 0
 500 881 527 844 527 806 c 0
 527 768 500 732 448 732 c 0
EndSplineSet
EndChar
StartChar: Aring
Encoding: 277 197 170
Width: 644
Flags: W
HStem: 0 38<-28 206 -28 -28> 246 48<192 354 192 370 176 354> 648 20G<395 395> 671 20G<308.5 337> 831 41<308.5 337>
VStem: -28 234<0 38 0 38> 204 67<738 784 738 802> 375 67<738 784>
LayerCount: 2
Fore
SplineSet
192 294 m 1xdb
 354 294 l 1
 276 553 l 1
 273 553 l 1
 192 294 l 1xdb
271 761 m 0
 271 715 294 691 323 691 c 0
 351 691 375 715 375 761 c 0
 375 807 351 831 323 831 c 0
 294 831 271 807 271 761 c 0
370 246 m 1
 176 246 l 1
 158 187 140 133 128 79 c 0
 123 57 124 45 146 43 c 2
 206 38 l 1
 206 0 l 1
 -28 0 l 1
 -28 38 l 1
 26 41 37 48 53 90 c 0xdd
 77 151 110 252 146 355 c 2
 254 667 l 1
 224 683 204 713 204 761 c 0
 204 843 264 872 323 872 c 0
 382 872 442 843 442 761 c 0
 442 714 423 684 395 668 c 1xeb
 585 86 l 2
 598 45 611 39 663 38 c 1
 663 0 l 1
 347 0 l 1
 347 38 l 1
 405 44 l 2
 426 46 429 59 422 80 c 2
 370 246 l 1
EndSplineSet
EndChar
StartChar: AE
Encoding: 225 198 137
Width: 879
Flags: W
HStem: 0 38<-77 176 -77 -77> 0 46<599 704 599 842> 337 52<230 366 230 366 205 366 522 617> 640 52<356 366 356 356> 646 46<543 557 557 632> 650.5 41.5
VStem: -77 166 366 156<97 119 119 337 389 610> 709 38<247 479 247 479> 784 38<507 692>
LayerCount: 2
Fore
SplineSet
230 389 m 1x69c0
 366 389 l 1
 366 640 l 1
 356 640 l 1x71c0
 314 562 270 472 230 389 c 1x69c0
199 692 m 1x69c0
 822 692 l 1
 822 507 l 1
 784 507 l 1
 753 606 735 646 632 646 c 2
 557 646 l 2
 529 646 522 639 522 610 c 2
 522 389 l 1
 617 389 l 2
 680 389 693 406 709 479 c 1
 747 479 l 1
 747 247 l 1
 709 247 l 1
 693 320 680 337 617 337 c 2
 522 337 l 1
 522 119 l 2
 522 55 553 46 645 46 c 0
 763 46 780 101 816 208 c 1
 854 208 l 1
 842 0 l 1
 287 0 l 1x69c0
 287 38 l 1
 358 41 366 46 366 97 c 2
 366 337 l 1
 205 337 l 1
 150 217 115 136 94 83 c 0
 84 59 88 46 112 44 c 2
 176 38 l 1xabc0
 176 0 l 1
 -77 0 l 1x6bc0
 -77 38 l 1
 -19 40 -6 52 16 94 c 0
 86 226 226 509 272 605 c 0
 285 632 283 645 263 647 c 2
 199 654 l 1xa7c0
 199 692 l 1x69c0
EndSplineSet
EndChar
StartChar: Ccedilla
Encoding: 327 199 220
Width: 689
Flags: MW
HStem: -243 33<296 325> -14 45<373 373 432 432> 661 46<352.5 448 352.5 478>
VStem: 42 177<298.5 389> 394 109<-171.5 -130> 600 38<484 663>
LayerCount: 2
Fore
SplineSet
654 228 m 1
 642 33 l 1
 588 1 499 -12 432 -14 c 1
 404 -55 l 1
 433 -60 503 -77 503 -140 c 0
 503 -234 395 -246 346 -246 c 0
 326 -246 314 -245 296 -243 c 1
 296 -210 l 1
 354 -210 394 -194 394 -149 c 0
 394 -111 348 -101 329 -99 c 1
 325 -91 l 1
 373 -14 l 1
 141 -1 42 135 42 339 c 0
 42 439 67 534 128 602 c 0
 187 668 282 707 423 707 c 0
 473 707 578 699 638 663 c 1
 638 484 l 1
 600 484 l 1
 577 556 542 661 414 661 c 0
 233 661 219 428 219 355 c 0
 219 242 244 31 422 31 c 0
 535 31 578 118 616 228 c 1
 654 228 l 1
EndSplineSet
EndChar
StartChar: Egrave
Encoding: 272 200 165
Width: 629
Flags: W
HStem: 0 38<33 592 33 33> 0 46<349 454 349 592> 337 52<272 367 272 367> 646 46<293 307 307 382> 654 38<33 572>
VStem: 112 160<97 119 119 337 389 595 595 610> 459 38<247 479 247 479> 534 38<507 692>
LayerCount: 2
Fore
SplineSet
112 97 m 2xf7
 112 595 l 2
 112 646 104 651 33 654 c 1x6f
 33 692 l 1
 572 692 l 1
 572 507 l 1
 534 507 l 1
 503 606 485 646 382 646 c 2
 307 646 l 2
 279 646 272 639 272 610 c 2
 272 389 l 1
 367 389 l 2
 430 389 443 406 459 479 c 1
 497 479 l 1
 497 247 l 1
 459 247 l 1
 443 320 430 337 367 337 c 2
 272 337 l 1
 272 119 l 2
 272 55 303 46 395 46 c 0
 513 46 530 101 566 208 c 1
 604 208 l 1
 592 0 l 1
 33 0 l 1x77
 33 38 l 1
 104 41 112 46 112 97 c 2xf7
422 751 m 1
 408 719 l 1
 205 783 l 2
 152 800 132 811 132 840 c 0
 132 860 154 904 186 904 c 0
 204 904 219 897 250 874 c 2
 422 751 l 1
EndSplineSet
EndChar
StartChar: Ecircumflex
Encoding: 266 202 159
Width: 629
Flags: W
HStem: 0 38<33 592 33 33> 0 46<349 454 349 592> 337 52<272 367 272 367> 646 46<293 307 307 382> 654 38<33 572> 800 105<334 345>
VStem: 112 160<97 119 119 337 389 595 595 610> 459 38<247 479 247 479> 534 38<507 692>
LayerCount: 2
Fore
SplineSet
112 97 m 2xf380
 112 595 l 2
 112 646 104 651 33 654 c 1x6f80
 33 692 l 1
 572 692 l 1
 572 507 l 1
 534 507 l 1
 503 606 485 646 382 646 c 2
 307 646 l 2
 279 646 272 639 272 610 c 2
 272 389 l 1
 367 389 l 2
 430 389 443 406 459 479 c 1
 497 479 l 1
 497 247 l 1
 459 247 l 1
 443 320 430 337 367 337 c 2
 272 337 l 1
 272 119 l 2
 272 55 303 46 395 46 c 0
 513 46 530 101 566 208 c 1
 604 208 l 1
 592 0 l 1
 33 0 l 1x7380
 33 38 l 1
 104 41 112 46 112 97 c 2xf380
528 755 m 1
 510 725 l 1
 379 785 l 2
 366 792 351 800 339 800 c 0
 329 800 315 792 301 785 c 2
 171 725 l 1
 152 755 l 1
 294 881 l 2
 310 896 325 905 339 905 c 0
 354 905 372 895 386 882 c 2
 528 755 l 1
EndSplineSet
EndChar
StartChar: Edieresis
Encoding: 286 203 179
Width: 629
Flags: W
HStem: 0 38<33 592 33 33> 0 46<349 454 349 592> 337 52<272 367 272 367> 646 46<293 307 307 382> 654 38<33 572> 732 149<179.5 231 431.5 483>
VStem: 112 160<97 119 119 337 389 595 595 610> 126 158<787 825> 378 158<787 825> 459 38<247 479 247 479> 534 38<507 692>
LayerCount: 2
Fore
SplineSet
112 97 m 2xf280
 112 595 l 2
 112 646 104 651 33 654 c 1x6a80
 33 692 l 1
 572 692 l 1
 572 507 l 1
 534 507 l 1
 503 606 485 646 382 646 c 2
 307 646 l 2
 279 646 272 639 272 610 c 2
 272 389 l 1
 367 389 l 2
 430 389 443 406 459 479 c 1
 497 479 l 1
 497 247 l 1
 459 247 l 1
 443 320 430 337 367 337 c 2
 272 337 l 1
 272 119 l 2
 272 55 303 46 395 46 c 0
 513 46 530 101 566 208 c 1
 604 208 l 1
 592 0 l 1
 33 0 l 1x7260
 33 38 l 1
 104 41 112 46 112 97 c 2xf280
205 732 m 0x7580
 154 732 126 768 126 806 c 0
 126 844 154 881 205 881 c 0
 257 881 284 844 284 806 c 0
 284 768 257 732 205 732 c 0x7580
457 732 m 0
 406 732 378 768 378 806 c 0
 378 844 406 881 457 881 c 0
 509 881 536 844 536 806 c 0
 536 768 509 732 457 732 c 0
EndSplineSet
EndChar
StartChar: Igrave
Encoding: 326 204 219
Width: 384
Flags: MW
HStem: 0 38<33 351 33 33> 654 38<33 351 33 351>
VStem: 112 160<97 595>
LayerCount: 2
Fore
SplineSet
272 595 m 2
 272 97 l 2
 272 46 280 41 351 38 c 1
 351 0 l 1
 33 0 l 1
 33 38 l 1
 104 41 112 46 112 97 c 2
 112 595 l 2
 112 646 104 651 33 654 c 1
 33 692 l 1
 351 692 l 1
 351 654 l 1
 280 651 272 646 272 595 c 2
299 751 m 1
 285 719 l 1
 82 783 l 2
 29 800 9 811 9 840 c 0
 9 860 31 904 63 904 c 0
 81 904 96 897 127 874 c 2
 299 751 l 1
EndSplineSet
EndChar
StartChar: Iacute
Encoding: 324 205 217
Width: 384
Flags: MW
HStem: 0 38<33 351 33 33> 654 38<33 351 33 351>
VStem: 112 160<97 595>
LayerCount: 2
Fore
SplineSet
272 595 m 2
 272 97 l 2
 272 46 280 41 351 38 c 1
 351 0 l 1
 33 0 l 1
 33 38 l 1
 104 41 112 46 112 97 c 2
 112 595 l 2
 112 646 104 651 33 654 c 1
 33 692 l 1
 351 692 l 1
 351 654 l 1
 280 651 272 646 272 595 c 2
97 719 m 1
 83 751 l 1
 255 874 l 2
 286 897 301 904 319 904 c 0
 351 904 373 860 373 840 c 0
 373 811 353 800 300 783 c 2
 97 719 l 1
EndSplineSet
EndChar
StartChar: Icircumflex
Encoding: 307 206 200
Width: 384
Flags: MW
HStem: 0 38<33 351 33 33> 654 38<33 351 33 351> 800 105<186 197>
VStem: 112 160<97 595>
LayerCount: 2
Fore
SplineSet
272 595 m 2
 272 97 l 2
 272 46 280 41 351 38 c 1
 351 0 l 1
 33 0 l 1
 33 38 l 1
 104 41 112 46 112 97 c 2
 112 595 l 2
 112 646 104 651 33 654 c 1
 33 692 l 1
 351 692 l 1
 351 654 l 1
 280 651 272 646 272 595 c 2
380 755 m 1
 362 725 l 1
 231 785 l 2
 218 792 203 800 191 800 c 0
 181 800 167 792 153 785 c 2
 23 725 l 1
 4 755 l 1
 146 881 l 2
 162 896 177 905 191 905 c 0
 206 905 224 895 238 882 c 2
 380 755 l 1
EndSplineSet
EndChar
StartChar: Idieresis
Encoding: 322 207 215
Width: 384
Flags: W
HStem: 0 38<33 351 33 33> 654 38<33 351 33 351> 732 149<40.5 92 292.5 344>
VStem: -13 158<787 825> 112 160<97 595> 239 158<787 825>
LayerCount: 2
Fore
SplineSet
272 595 m 2xc8
 272 97 l 2
 272 46 280 41 351 38 c 1
 351 0 l 1
 33 0 l 1
 33 38 l 1
 104 41 112 46 112 97 c 2
 112 595 l 2
 112 646 104 651 33 654 c 1
 33 692 l 1
 351 692 l 1
 351 654 l 1
 280 651 272 646 272 595 c 2xc8
66 732 m 0xf4
 15 732 -13 768 -13 806 c 0
 -13 844 15 881 66 881 c 0
 118 881 145 844 145 806 c 0
 145 768 118 732 66 732 c 0xf4
318 732 m 0
 267 732 239 768 239 806 c 0
 239 844 267 881 318 881 c 0
 370 881 397 844 397 806 c 0
 397 768 370 732 318 732 c 0
EndSplineSet
EndChar
StartChar: Eth
Encoding: 316 208 209
Width: 783
Flags: W
HStem: 0 38<39 338 39 39> 0 46<326.5 338> 341 48<35 118 35 118 278 420> 646 46<329.5 382 39 428> 654 38<39 382>
VStem: 118 160<97 341 389 595 595 618> 564 177<220 409 187 447.5>
LayerCount: 2
Fore
SplineSet
420 341 m 1x76
 278 341 l 1
 278 90 l 2
 278 58 295 46 358 46 c 0
 456 46 564 89 564 351 c 0
 564 544 495 646 361 646 c 0
 298 646 278 641 278 618 c 2
 278 389 l 1
 420 389 l 1
 420 341 l 1x76
118 341 m 1
 35 341 l 1
 35 389 l 1
 118 389 l 1
 118 595 l 2
 118 646 110 651 39 654 c 1x6e
 39 692 l 1
 382 692 l 2
 512 691 596 663 654 606 c 0
 712 549 741 465 741 353 c 0
 741 21 494 0 338 0 c 2
 39 0 l 1x76
 39 38 l 1
 110 41 118 46 118 97 c 2xb6
 118 341 l 1
EndSplineSet
EndChar
StartChar: Ntilde
Encoding: 300 209 193
Width: 739
Flags: W
HStem: 0 40.5 651.5 40.5 721 20G<171 171> 736 85<476 502> 778 85<265 293>
VStem: 104 62<252 558> 581 62<216 440 0 481>
LayerCount: 2
Fore
SplineSet
25 692 m 1xee
 262 692 l 1
 365 533 471 375 577 216 c 1
 581 216 l 1
 581 440 l 2
 581 522 580 560 576 596 c 0
 573 631 562 647 534 649 c 2
 478 654 l 1
 478 692 l 1
 719 692 l 1
 719 654 l 1
 684 649 l 2
 661 646 651 631 648 596 c 0
 644 561 643 522 643 440 c 2
 643 0 l 1
 533 0 l 1
 414 186 293 372 170 558 c 1
 166 558 l 1
 166 252 l 2
 166 170 167 132 171 96 c 0
 174 61 185 45 213 43 c 2
 269 38 l 1
 269 0 l 1
 28 0 l 1
 28 38 l 1
 63 43 l 2
 86 46 96 61 99 96 c 0
 103 131 104 170 104 252 c 2
 104 595 l 2
 104 646 96 651 25 654 c 1
 25 692 l 1xee
564 876 m 1xd6
 596 858 l 1
 578 815 543 736 461 736 c 0xd6
 436 736 405 747 373 757 c 0
 341 768 308 778 278 778 c 0
 241 778 225 762 203 723 c 1
 171 741 l 1
 189 784 224 863 306 863 c 0xee
 334 863 366 853 398 842 c 0
 431 832 463 821 489 821 c 0
 526 821 542 837 564 876 c 1xd6
EndSplineSet
EndChar
StartChar: Ograve
Encoding: 295 210 188
Width: 768
Flags: MW
HStem: -15 46<311.5 456.5 311.5 499> 661 46<311.5 456.5>
VStem: 42 177<346 346> 549 177<346 346>
LayerCount: 2
Fore
SplineSet
384 31 m 0
 529 31 547 210 549 346 c 0
 547 474 529 661 384 661 c 0
 239 661 221 474 219 346 c 0
 221 210 239 31 384 31 c 0
384 707 m 0
 614 707 726 572 726 346 c 0
 726 120 614 -15 384 -15 c 0
 154 -15 42 120 42 346 c 0
 42 572 154 707 384 707 c 0
489 751 m 1
 475 719 l 1
 272 783 l 2
 219 800 199 811 199 840 c 0
 199 860 221 904 253 904 c 0
 271 904 286 897 317 874 c 2
 489 751 l 1
EndSplineSet
EndChar
StartChar: Oacute
Encoding: 309 211 202
Width: 768
Flags: MW
HStem: -15 46<311.5 456.5 311.5 499> 661 46<311.5 456.5>
VStem: 42 177<346 346> 549 177<346 346>
LayerCount: 2
Fore
SplineSet
384 31 m 0
 529 31 547 210 549 346 c 0
 547 474 529 661 384 661 c 0
 239 661 221 474 219 346 c 0
 221 210 239 31 384 31 c 0
384 707 m 0
 614 707 726 572 726 346 c 0
 726 120 614 -15 384 -15 c 0
 154 -15 42 120 42 346 c 0
 42 572 154 707 384 707 c 0
291 719 m 1
 277 751 l 1
 449 874 l 2
 480 897 495 904 513 904 c 0
 545 904 567 860 567 840 c 0
 567 811 547 800 494 783 c 2
 291 719 l 1
EndSplineSet
EndChar
StartChar: Ocircumflex
Encoding: 330 212 223
Width: 768
Flags: MW
HStem: -15 46<311.5 456.5 311.5 499> 661 46<311.5 456.5> 800 105<378 389>
VStem: 42 177<346 346> 549 177<346 346>
LayerCount: 2
Fore
SplineSet
384 31 m 0
 529 31 547 210 549 346 c 0
 547 474 529 661 384 661 c 0
 239 661 221 474 219 346 c 0
 221 210 239 31 384 31 c 0
384 707 m 0
 614 707 726 572 726 346 c 0
 726 120 614 -15 384 -15 c 0
 154 -15 42 120 42 346 c 0
 42 572 154 707 384 707 c 0
572 755 m 1
 554 725 l 1
 423 785 l 2
 410 792 395 800 383 800 c 0
 373 800 359 792 345 785 c 2
 215 725 l 1
 196 755 l 1
 338 881 l 2
 354 896 369 905 383 905 c 0
 398 905 416 895 430 882 c 2
 572 755 l 1
EndSplineSet
EndChar
StartChar: Otilde
Encoding: 268 213 161
Width: 768
Flags: W
HStem: -15 46<311.5 456.5 311.5 499> 661 46<311.5 456.5> 721 20G<171 171> 736 85<476 502> 778 85<265 293>
VStem: 42 177<346 346> 549 177<346 346>
LayerCount: 2
Fore
SplineSet
384 31 m 0xee
 529 31 547 210 549 346 c 0
 547 474 529 661 384 661 c 0
 239 661 221 474 219 346 c 0
 221 210 239 31 384 31 c 0xee
384 707 m 0
 614 707 726 572 726 346 c 0
 726 120 614 -15 384 -15 c 0
 154 -15 42 120 42 346 c 0
 42 572 154 707 384 707 c 0
564 876 m 1xd6
 596 858 l 1
 578 815 543 736 461 736 c 0xd6
 436 736 405 747 373 757 c 0
 341 768 308 778 278 778 c 0
 241 778 225 762 203 723 c 1
 171 741 l 1
 189 784 224 863 306 863 c 0xee
 334 863 366 853 398 842 c 0
 431 832 463 821 489 821 c 0
 526 821 542 837 564 876 c 1xd6
EndSplineSet
EndChar
StartChar: Odieresis
Encoding: 260 214 153
Width: 768
Flags: W
HStem: -15 46<311.5 456.5 311.5 499> 661 46<311.5 456.5> 732 149<232.5 284 484.5 536>
VStem: 42 177<346 346> 179 158<787 825> 431 158<787 825> 549 177<346 346>
LayerCount: 2
Fore
SplineSet
384 31 m 0xd2
 529 31 547 210 549 346 c 0
 547 474 529 661 384 661 c 0
 239 661 221 474 219 346 c 0
 221 210 239 31 384 31 c 0xd2
384 707 m 0
 614 707 726 572 726 346 c 0
 726 120 614 -15 384 -15 c 0
 154 -15 42 120 42 346 c 0
 42 572 154 707 384 707 c 0
258 732 m 0xec
 207 732 179 768 179 806 c 0
 179 844 207 881 258 881 c 0
 310 881 337 844 337 806 c 0
 337 768 310 732 258 732 c 0xec
510 732 m 0
 459 732 431 768 431 806 c 0
 431 844 459 881 510 881 c 0
 562 881 589 844 589 806 c 0
 589 768 562 732 510 732 c 0
EndSplineSet
EndChar
StartChar: multiply
Encoding: 297 215 190
Width: 600
Flags: MW
HStem: 20 456<133 133 133 466>
VStem: 75 450<81 81 81 413>
LayerCount: 2
Fore
SplineSet
360 247 m 1
 525 81 l 1
 466 20 l 1
 300 187 l 1
 133 20 l 1
 75 81 l 1
 240 247 l 1
 75 413 l 1
 133 476 l 1
 300 308 l 1
 466 476 l 1
 525 413 l 1
 360 247 l 1
EndSplineSet
EndChar
StartChar: Oslash
Encoding: 233 216 140
Width: 768
Flags: W
HStem: -15 46<358 456.5 358 499> 661 20 661 46<311.5 409.5>
VStem: 42 177<346 346> 549 177<346 346>
LayerCount: 2
Fore
SplineSet
523 543 m 1xb8
 271 91 l 1
 296 54 332 31 384 31 c 0
 529 31 547 210 549 346 c 0
 548 407 543 482 523 543 c 1xb8
243 152 m 1
 494 602 l 1
 470 638 435 661 384 661 c 0
 239 661 221 474 219 346 c 0
 220 283 224 211 243 152 c 1
622 721 m 1xd8
 586 657 l 1xd8
 680 599 726 491 726 346 c 0
 726 120 614 -15 384 -15 c 0
 324 -15 271 -6 227 13 c 1
 186 -61 l 1
 142 -30 l 1
 179 37 l 1
 87 96 42 203 42 346 c 0
 42 572 154 707 384 707 c 0xb8
 443 707 494 698 538 681 c 1
 575 747 l 1
 622 721 l 1xd8
EndSplineSet
EndChar
StartChar: Ugrave
Encoding: 285 217 178
Width: 786
Flags: MW
HStem: -15 46<348 439 348 485.5> 654 38<29 341 29 341>
VStem: 105 160<225 595> 521 160<225 595 225 595 225 620.5>
LayerCount: 2
Fore
SplineSet
681 595 m 2
 681 225 l 2
 679 52 578 -15 393 -15 c 0
 193 -15 105 52 105 225 c 2
 105 595 l 2
 105 646 97 651 29 654 c 1
 29 692 l 1
 341 692 l 1
 341 654 l 1
 273 651 265 646 265 595 c 2
 265 211 l 2
 265 97 303 31 393 31 c 0
 485 31 521 97 521 211 c 2
 521 595 l 2
 521 646 513 651 445 654 c 1
 445 692 l 1
 757 692 l 1
 757 654 l 1
 689 651 681 646 681 595 c 2
486 751 m 1
 472 719 l 1
 269 783 l 2
 216 800 196 811 196 840 c 0
 196 860 218 904 250 904 c 0
 268 904 283 897 314 874 c 2
 486 751 l 1
EndSplineSet
EndChar
StartChar: Uacute
Encoding: 287 218 180
Width: 786
Flags: MW
HStem: -15 46<348 439 348 485.5> 654 38<29 341 29 341>
VStem: 105 160<225 595> 521 160<225 595 225 595 225 620.5>
LayerCount: 2
Fore
SplineSet
681 595 m 2
 681 225 l 2
 679 52 578 -15 393 -15 c 0
 193 -15 105 52 105 225 c 2
 105 595 l 2
 105 646 97 651 29 654 c 1
 29 692 l 1
 341 692 l 1
 341 654 l 1
 273 651 265 646 265 595 c 2
 265 211 l 2
 265 97 303 31 393 31 c 0
 485 31 521 97 521 211 c 2
 521 595 l 2
 521 646 513 651 445 654 c 1
 445 692 l 1
 757 692 l 1
 757 654 l 1
 689 651 681 646 681 595 c 2
314 719 m 1
 300 751 l 1
 472 874 l 2
 503 897 518 904 536 904 c 0
 568 904 590 860 590 840 c 0
 590 811 570 800 517 783 c 2
 314 719 l 1
EndSplineSet
EndChar
StartChar: Ucircumflex
Encoding: 302 219 195
Width: 786
Flags: MW
HStem: -15 46<348 439 348 485.5> 654 38<29 341 29 341> 800 105<387 398>
VStem: 105 160<225 595> 521 160<225 595 225 595 225 620.5>
LayerCount: 2
Fore
SplineSet
681 595 m 2
 681 225 l 2
 679 52 578 -15 393 -15 c 0
 193 -15 105 52 105 225 c 2
 105 595 l 2
 105 646 97 651 29 654 c 1
 29 692 l 1
 341 692 l 1
 341 654 l 1
 273 651 265 646 265 595 c 2
 265 211 l 2
 265 97 303 31 393 31 c 0
 485 31 521 97 521 211 c 2
 521 595 l 2
 521 646 513 651 445 654 c 1
 445 692 l 1
 757 692 l 1
 757 654 l 1
 689 651 681 646 681 595 c 2
581 755 m 1
 563 725 l 1
 432 785 l 2
 419 792 404 800 392 800 c 0
 382 800 368 792 354 785 c 2
 224 725 l 1
 205 755 l 1
 347 881 l 2
 363 896 378 905 392 905 c 0
 407 905 425 895 439 882 c 2
 581 755 l 1
EndSplineSet
EndChar
StartChar: Udieresis
Encoding: 333 220 226
Width: 786
Flags: W
HStem: -15 46<348 439 348 485.5> 654 38<29 341 29 341> 732 149<241.5 293 493.5 545>
VStem: 105 160<225 595> 188 158<787 825> 440 158<787 825> 521 160<225 595 225 595 225 620.5>
LayerCount: 2
Fore
SplineSet
681 595 m 2xd2
 681 225 l 2
 679 52 578 -15 393 -15 c 0
 193 -15 105 52 105 225 c 2
 105 595 l 2
 105 646 97 651 29 654 c 1
 29 692 l 1
 341 692 l 1
 341 654 l 1
 273 651 265 646 265 595 c 2
 265 211 l 2
 265 97 303 31 393 31 c 0
 485 31 521 97 521 211 c 2
 521 595 l 2
 521 646 513 651 445 654 c 1
 445 692 l 1
 757 692 l 1
 757 654 l 1
 689 651 681 646 681 595 c 2xd2
267 732 m 0xec
 216 732 188 768 188 806 c 0
 188 844 216 881 267 881 c 0
 319 881 346 844 346 806 c 0
 346 768 319 732 267 732 c 0xec
519 732 m 0
 468 732 440 768 440 806 c 0
 440 844 468 881 519 881 c 0
 571 881 598 844 598 806 c 0
 598 768 571 732 519 732 c 0
EndSplineSet
EndChar
StartChar: Yacute
Encoding: 308 221 201
Width: 617
Flags: MW
HStem: 0 38<142 494 142 142> 651 41
VStem: 238 160<97 240 240 250 71.5 252.5> 486 169
LayerCount: 2
Fore
SplineSet
-12 692 m 1
 304 692 l 1
 304 654 l 1
 250 648 l 2
 228 645 229 631 236 615 c 2
 359 342 l 1
 362 342 l 1
 402 432 455 540 481 608 c 0
 491 634 485 646 466 648 c 2
 414 654 l 1
 414 692 l 1
 655 692 l 1
 655 654 l 1
 601 648 584 640 561 600 c 0
 514 518 463 416 416 321 c 0
 405 298 398 278 398 250 c 2
 398 97 l 2
 398 46 406 41 494 38 c 1
 494 0 l 1
 142 0 l 1
 142 38 l 1
 230 41 238 46 238 97 c 2
 238 240 l 2
 238 265 227 289 217 309 c 2
 72 597 l 2
 49 643 40 650 -12 654 c 1
 -12 692 l 1
248 719 m 1
 234 751 l 1
 406 874 l 2
 437 897 452 904 470 904 c 0
 502 904 524 860 524 840 c 0
 524 811 504 800 451 783 c 2
 248 719 l 1
EndSplineSet
EndChar
StartChar: Thorn
Encoding: 331 222 224
Width: 640
Flags: MW
HStem: 0 36<33 368> 176 46<309.5 312 272 376.5> 502 46<306.5 358 358 365.5> 654 38<33 350 33 350>
VStem: 112 160<97 176 243.5 258 258 464 548 595> 454 168<323.5 415>
LayerCount: 2
Fore
SplineSet
272 464 m 2
 272 258 l 2
 272 229 289 222 330 222 c 0
 423 222 454 284 454 363 c 0
 454 467 396 502 335 502 c 0
 278 502 272 491 272 464 c 2
350 692 m 1
 350 654 l 1
 280 651 272 646 272 595 c 2
 272 548 l 1
 358 548 l 2
 517 548 622 502 622 363 c 0
 622 194 445 176 312 176 c 2
 272 176 l 1
 272 97 l 2
 272 46 280 41 368 36 c 1
 368 0 l 1
 33 0 l 1
 33 38 l 1
 104 41 112 46 112 97 c 2
 112 595 l 2
 112 646 104 651 33 654 c 1
 33 692 l 1
 350 692 l 1
EndSplineSet
EndChar
StartChar: germandbls
Encoding: 251 223 148
Width: 662
Flags: W
HStem: -12 46<467.5 488.5 467.5 521> 0 36<29 306 29 29> 696 46<313.5 371.5>
VStem: 92 151<85 490 490 511> 312 137<389.5 393.5> 435 141<565.5 604.5 560 611> 521 126<94.5 104.5>
LayerCount: 2
Fore
SplineSet
306 0 m 1x74
 29 0 l 1
 29 36 l 1
 84 41 92 45 92 85 c 2
 92 490 l 2
 92 559 103 620 142 664 c 0
 181 710 253 742 342 742 c 0
 548 742 576 634 576 575 c 0x74
 576 545 570 522 550 500 c 1
 485 494 449 459 449 415 c 0
 449 364 505 327 526 312 c 0
 576 278 647 229 647 144 c 0
 647 45 580 -12 462 -12 c 0
 384 -12 328 17 328 57 c 0
 328 86 357 108 381 108 c 0
 396 108 404 99 411 88 c 0
 436 51 456 34 479 34 c 0
 498 34 521 47 521 84 c 0
 521 125 491 159 418 206 c 0
 343 254 312 310 312 363 c 0xba
 312 424 352 481 415 497 c 1
 433 523 435 554 435 577 c 0
 435 645 399 696 344 696 c 0
 283 696 243 631 243 511 c 2
 243 85 l 2
 243 45 251 41 306 36 c 1
 306 0 l 1x74
EndSplineSet
EndChar
StartChar: agrave
Encoding: 312 224 205
Width: 544
Flags: MW
HStem: -12 78<141.5 282.5> 456 46<259 287.5>
VStem: 41 154<123.5 161.5> 331 147<134 279 279 279 329 362>
LayerCount: 2
Fore
SplineSet
558 51 m 1
 561 18 l 1
 528 5 465 -12 413 -12 c 0
 365 -12 348 15 335 46 c 1
 300 23 256 -12 192 -12 c 0
 91 -12 41 58 41 133 c 0
 41 190 68 231 147 258 c 0
 212 280 296 305 331 329 c 1
 331 382 l 2
 331 439 302 456 273 456 c 0
 245 456 213 441 185 356 c 0
 177 332 166 316 144 316 c 0
 118 316 54 334 54 379 c 0
 54 444 144 502 291 502 c 0
 468 502 478 424 478 362 c 2
 478 131 l 2
 478 72 497 60 510 56 c 0
 525 51 545 50 558 51 c 1
331 134 m 2
 331 279 l 1
 307 268 272 254 241 237 c 0
 211 220 195 197 195 150 c 0
 195 97 230 66 269 66 c 0
 296 66 329 80 331 134 c 2
374 541 m 1
 353 511 l 1
 170 614 l 2
 134 634 102 654 102 680 c 0
 102 705 131 740 155 740 c 0
 175 740 192 728 229 690 c 2
 374 541 l 1
EndSplineSet
EndChar
StartChar: atilde
Encoding: 332 227 225
Width: 544
Flags: W
HStem: -12 78<141.5 282.5> 456 46<259 287.5> 566 85<370 396> 608 85<159 187> 686 20G<458 458>
VStem: 41 154<123.5 161.5> 331 147<134 279 279 279 329 362>
LayerCount: 2
Fore
SplineSet
558 51 m 1xee
 561 18 l 1
 528 5 465 -12 413 -12 c 0
 365 -12 348 15 335 46 c 1
 300 23 256 -12 192 -12 c 0
 91 -12 41 58 41 133 c 0
 41 190 68 231 147 258 c 0
 212 280 296 305 331 329 c 1
 331 382 l 2
 331 439 302 456 273 456 c 0
 245 456 213 441 185 356 c 0
 177 332 166 316 144 316 c 0
 118 316 54 334 54 379 c 0
 54 444 144 502 291 502 c 0
 468 502 478 424 478 362 c 2
 478 131 l 2
 478 72 497 60 510 56 c 0
 525 51 545 50 558 51 c 1xee
331 134 m 2
 331 279 l 1
 307 268 272 254 241 237 c 0
 211 220 195 197 195 150 c 0
 195 97 230 66 269 66 c 0
 296 66 329 80 331 134 c 2
458 706 m 1
 490 688 l 1
 472 645 437 566 355 566 c 0xee
 330 566 299 577 267 587 c 0
 235 598 202 608 172 608 c 0
 135 608 119 592 97 553 c 1
 65 571 l 1
 83 614 118 693 200 693 c 0xd6
 228 693 260 683 292 672 c 0
 325 662 357 651 383 651 c 0
 420 651 436 667 458 706 c 1
EndSplineSet
EndChar
StartChar: adieresis
Encoding: 323 228 216
Width: 544
Flags: W
HStem: -12 78<141.5 282.5> 456 46<259 287.5> 561 149<134.5 186 374.5 426>
VStem: 41 154<123.5 161.5> 81 158<616 654> 321 158<616 654> 331 147<134 279 279 279 329 362>
LayerCount: 2
Fore
SplineSet
558 51 m 1xea
 561 18 l 1
 528 5 465 -12 413 -12 c 0
 365 -12 348 15 335 46 c 1
 300 23 256 -12 192 -12 c 0
 91 -12 41 58 41 133 c 0xf2
 41 190 68 231 147 258 c 0
 212 280 296 305 331 329 c 1
 331 382 l 2
 331 439 302 456 273 456 c 0
 245 456 213 441 185 356 c 0
 177 332 166 316 144 316 c 0
 118 316 54 334 54 379 c 0
 54 444 144 502 291 502 c 0
 468 502 478 424 478 362 c 2
 478 131 l 2
 478 72 497 60 510 56 c 0
 525 51 545 50 558 51 c 1xea
331 134 m 2
 331 279 l 1
 307 268 272 254 241 237 c 0
 211 220 195 197 195 150 c 0
 195 97 230 66 269 66 c 0
 296 66 329 80 331 134 c 2
160 561 m 0xec
 109 561 81 597 81 635 c 0
 81 673 109 710 160 710 c 0
 212 710 239 673 239 635 c 0
 239 597 212 561 160 561 c 0xec
400 561 m 0
 349 561 321 597 321 635 c 0
 321 673 349 710 400 710 c 0
 452 710 479 673 479 635 c 0
 479 597 452 561 400 561 c 0
EndSplineSet
EndChar
StartChar: aring
Encoding: 294 229 187
Width: 544
Flags: W
HStem: -12 78<141.5 282.5> 456 46<259 287.5> 540 41<257.5 286 257.5 301.5> 721 41<257.5 286>
VStem: 41 154<123.5 161.5> 153 67<628 674 628 692> 324 67<628 674> 331 147<134 279 279 279 329 362>
LayerCount: 2
Fore
SplineSet
558 51 m 1xf5
 561 18 l 1
 528 5 465 -12 413 -12 c 0
 365 -12 348 15 335 46 c 1
 300 23 256 -12 192 -12 c 0
 91 -12 41 58 41 133 c 0xf9
 41 190 68 231 147 258 c 0
 212 280 296 305 331 329 c 1
 331 382 l 2
 331 439 302 456 273 456 c 0
 245 456 213 441 185 356 c 0
 177 332 166 316 144 316 c 0
 118 316 54 334 54 379 c 0
 54 444 144 502 291 502 c 0
 468 502 478 424 478 362 c 2
 478 131 l 2
 478 72 497 60 510 56 c 0
 525 51 545 50 558 51 c 1xf5
331 134 m 2
 331 279 l 1
 307 268 272 254 241 237 c 0
 211 220 195 197 195 150 c 0
 195 97 230 66 269 66 c 0
 296 66 329 80 331 134 c 2
220 651 m 0xf6
 220 605 243 581 272 581 c 0
 300 581 324 605 324 651 c 0
 324 697 300 721 272 721 c 0
 243 721 220 697 220 651 c 0xf6
272 762 m 0
 331 762 391 733 391 651 c 0
 391 568 331 540 272 540 c 0
 213 540 153 568 153 651 c 0
 153 733 213 762 272 762 c 0
EndSplineSet
EndChar
StartChar: ae
Encoding: 241 230 143
Width: 806
Flags: MW
HStem: -12 77<565 623.5> 252 48<478 604 604 615.5 478 738 478 604> 456 46<259 287.5 547.5 594.5>
VStem: 41 154<123.5 161.5> 331 147<199.5 252 199.5 279 199.5 279 329 337 199.5 382 199.5 410.5> 635 157<319.5 321.5 278 356.5>
LayerCount: 2
Fore
SplineSet
331 134 m 2
 331 279 l 1
 307 268 272 254 241 237 c 0
 211 220 195 197 195 150 c 0
 195 97 230 66 269 66 c 0
 296 66 329 80 331 134 c 2
738 252 m 2
 478 252 l 1
 478 147 510 65 613 65 c 0
 674 65 717 97 747 154 c 1
 783 134 l 1
 749 46 682 -12 565 -12 c 0
 475 -13 417 21 382 75 c 1
 335 45 l 2
 302 23 256 -12 192 -12 c 0
 90 -12 41 58 41 133 c 0
 41 190 68 231 146 259 c 0
 212 283 287 305 331 329 c 1
 331 382 l 2
 331 439 302 456 273 456 c 0
 245 456 213 441 185 356 c 0
 177 332 166 316 144 316 c 0
 118 316 54 334 54 379 c 0
 54 444 144 502 285 502 c 0
 354 502 397 480 423 444 c 1
 464 479 518 502 577 502 c 0
 779 502 792 349 792 294 c 0
 792 262 774 252 738 252 c 2
635 333 m 0
 635 380 625 456 564 456 c 0
 497 456 478 374 478 300 c 1
 604 300 l 2
 627 300 635 306 635 333 c 0
EndSplineSet
EndChar
StartChar: ccedilla
Encoding: 296 231 189
Width: 494
Flags: W
HStem: -243 32<169 197> -10 21G<244 244 301 301> -10 75<244 348.5 301 301> 456 46<257 295.5>
VStem: 34 159<187 284.5> 263 105<-174.5 -132>
LayerCount: 2
Fore
SplineSet
193 -92 m 1xdc
 244 -10 l 1
 117 -2 34 83 34 241 c 0
 34 328 60 393 102 435 c 0
 147 480 209 502 287 502 c 0
 378 502 478 463 478 392 c 0
 478 348 430 330 395 330 c 0
 369 330 354 342 347 365 c 0
 330 425 313 456 278 456 c 0
 236 456 193 399 193 265 c 0
 193 109 256 65 321 65 c 0
 376 65 415 88 449 156 c 1
 484 140 l 1
 450 32 374 -3 301 -10 c 1xbc
 269 -58 l 1
 300 -62 368 -79 368 -144 c 0
 368 -234 264 -246 217 -246 c 0
 198 -246 186 -245 169 -243 c 1
 169 -211 l 1
 225 -211 263 -196 263 -153 c 0
 263 -111 219 -102 197 -100 c 1
 193 -92 l 1xdc
EndSplineSet
EndChar
StartChar: ecircumflex
Encoding: 334 234 227
Width: 519
Flags: MW
HStem: -12 77<279 338.5> 252 48<193 317 317 328.5 193 451 193 317> 456 46<244.5 307.5>
VStem: 34 159<199.5 252 300 315> 348 157<319.5 335 278 356.5>
LayerCount: 2
Fore
SplineSet
461 154 m 1
 497 134 l 1
 463 46 398 -12 279 -12 c 0
 93 -13 34 109 34 245 c 0
 34 385 101 502 281 502 c 0
 474 502 505 376 505 294 c 0
 505 262 487 252 451 252 c 2
 193 252 l 1
 193 147 227 65 327 65 c 0
 388 65 431 97 461 154 c 1
193 300 m 1
 317 300 l 2
 340 300 348 306 348 333 c 0
 348 380 338 456 277 456 c 0
 212 456 193 372 193 300 c 1
463 547 m 1
 439 520 l 1
 314 614 l 2
 300 624 287 633 276 633 c 0
 266 633 252 624 238 614 c 2
 113 520 l 1
 89 547 l 1
 232 716 l 2
 247 734 262 747 276 747 c 0
 290 747 305 733 320 716 c 2
 463 547 l 1
EndSplineSet
EndChar
StartChar: edieresis
Encoding: 319 235 212
Width: 519
Flags: W
HStem: -12 77<279 338.5> 252 48<193 317 317 328.5 193 451 193 317> 456 46<244.5 307.5> 561 149<128.5 180 368.5 420>
VStem: 34 159<199.5 252 300 315> 75 158<616 654> 315 158<616 654> 348 157<319.5 335 278 356.5>
LayerCount: 2
Fore
SplineSet
461 154 m 1xf6
 497 134 l 1
 463 46 398 -12 279 -12 c 0
 93 -13 34 109 34 245 c 0
 34 385 101 502 281 502 c 0
 474 502 505 376 505 294 c 0
 505 262 487 252 451 252 c 2
 193 252 l 1xf9
 193 147 227 65 327 65 c 0
 388 65 431 97 461 154 c 1xf6
193 300 m 1
 317 300 l 2
 340 300 348 306 348 333 c 0
 348 380 338 456 277 456 c 0
 212 456 193 372 193 300 c 1
154 561 m 0xf6
 103 561 75 597 75 635 c 0
 75 673 103 710 154 710 c 0
 206 710 233 673 233 635 c 0
 233 597 206 561 154 561 c 0xf6
394 561 m 0
 343 561 315 597 315 635 c 0
 315 673 343 710 394 710 c 0
 446 710 473 673 473 635 c 0
 473 597 446 561 394 561 c 0
EndSplineSet
EndChar
StartChar: igrave
Encoding: 321 236 214
Width: 316
Flags: W
HStem: 0 38<26 307 26 26> 476 20G<242 242> 482 20G<235 235>
VStem: 91 151<87 381 381 401>
LayerCount: 2
Fore
SplineSet
91 87 m 2xb0
 91 381 l 2
 91 421 83 430 67 432 c 2
 32 437 l 1
 32 473 l 1
 235 502 l 1
 242 496 l 1xd0
 242 87 l 2
 242 45 250 41 307 38 c 1
 307 0 l 1
 26 0 l 1
 26 38 l 1
 83 41 91 45 91 87 c 2xb0
255 541 m 1
 234 511 l 1
 51 614 l 2
 15 634 -17 654 -17 680 c 0
 -17 705 12 740 36 740 c 0
 56 740 73 728 110 690 c 2
 255 541 l 1
EndSplineSet
EndChar
StartChar: iacute
Encoding: 271 237 164
Width: 316
Flags: W
HStem: 0 38<26 307 26 26> 476 20G<242 242> 482 20G<235 235>
VStem: 91 151<87 381 381 401>
LayerCount: 2
Fore
SplineSet
91 87 m 2xb0
 91 381 l 2
 91 421 83 430 67 432 c 2
 32 437 l 1
 32 473 l 1
 235 502 l 1
 242 496 l 1xd0
 242 87 l 2
 242 45 250 41 307 38 c 1
 307 0 l 1
 26 0 l 1
 26 38 l 1
 83 41 91 45 91 87 c 2xb0
78 511 m 1
 57 541 l 1
 202 690 l 2
 239 728 256 740 276 740 c 0
 300 740 329 705 329 680 c 0
 329 654 297 634 261 614 c 2
 78 511 l 1
EndSplineSet
EndChar
StartChar: icircumflex
Encoding: 273 238 166
Width: 316
Flags: W
HStem: 0 38<26 307 26 26> 476 20G<242 242> 482 20G<235 235>
VStem: 91 151<87 381 381 401>
LayerCount: 2
Fore
SplineSet
91 87 m 2xb0
 91 381 l 2
 91 421 83 430 67 432 c 2
 32 437 l 1
 32 473 l 1
 235 502 l 1
 242 496 l 1xd0
 242 87 l 2
 242 45 250 41 307 38 c 1
 307 0 l 1
 26 0 l 1
 26 38 l 1
 83 41 91 45 91 87 c 2xb0
346 547 m 1
 322 520 l 1
 197 614 l 2
 183 624 170 633 159 633 c 0
 149 633 135 624 121 614 c 2
 -4 520 l 1
 -28 547 l 1
 115 716 l 2
 130 734 145 747 159 747 c 0
 173 747 188 733 203 716 c 2
 346 547 l 1
EndSplineSet
EndChar
StartChar: idieresis
Encoding: 305 239 198
Width: 316
Flags: W
HStem: 0 38<26 307 26 26> 476 20G<242 242> 482 20G<235 235> 561 149<16.5 68 256.5 308>
VStem: -37 158<616 654> 91 151<87 381 381 401> 203 158<616 654>
LayerCount: 2
Fore
SplineSet
91 87 m 2xb4
 91 381 l 2
 91 421 83 430 67 432 c 2
 32 437 l 1
 32 473 l 1
 235 502 l 1
 242 496 l 1xd4
 242 87 l 2
 242 45 250 41 307 38 c 1
 307 0 l 1
 26 0 l 1
 26 38 l 1
 83 41 91 45 91 87 c 2xb4
42 561 m 0xba
 -9 561 -37 597 -37 635 c 0
 -37 673 -9 710 42 710 c 0
 94 710 121 673 121 635 c 0
 121 597 94 561 42 561 c 0xba
282 561 m 0
 231 561 203 597 203 635 c 0
 203 673 231 710 282 710 c 0
 334 710 361 673 361 635 c 0
 361 597 334 561 282 561 c 0
EndSplineSet
EndChar
StartChar: eth
Encoding: 292 240 185
Width: 585
Flags: W
HStem: -12 46<257.5 328 257.5 383.5> 456 46<257.5 297.5 201.5 321 201.5 328> 479 20G<321 321> 660 20G<476 476> 722 20G<154 154>
VStem: 34 159<178 312 178 325> 392 159<178 308 168 312>
LayerCount: 2
Fore
SplineSet
476 680 m 1xde
 340 622 l 1
 379 593 411 563 441 531 c 0
 510 455 551 365 551 251 c 0
 551 85 474 -12 293 -12 c 0
 111 -12 34 85 34 245 c 0
 34 405 111 502 292 502 c 0xde
 303 502 310 501 321 499 c 1
 321 502 l 1
 302 526 278 552 246 582 c 1
 114 525 l 1
 89 564 l 1xbe
 210 616 l 1
 182 642 147 670 107 700 c 1
 107 712 l 1
 154 742 l 1
 205 715 255 685 299 654 c 1
 450 718 l 1
 476 680 l 1xde
193 245 m 0
 193 111 222 34 293 34 c 0
 363 34 392 111 392 245 c 0
 392 379 363 456 293 456 c 0
 222 456 193 379 193 245 c 0
EndSplineSet
EndChar
StartChar: ntilde
Encoding: 289 241 182
Width: 638
Flags: W
HStem: 0 38<26 295 26 26> 425 77 566 85<419 445> 608 85<208 236> 686 20G<507 507>
VStem: 91 151<87 317> 413 151<80 87 87 334 334 334>
LayerCount: 2
Fore
SplineSet
564 348 m 2xee
 564 87 l 2
 564 45 572 41 629 38 c 1
 629 0 l 1
 360 0 l 1
 360 38 l 1
 381 40 l 2
 402 42 413 47 413 80 c 2
 413 334 l 2
 411 394 385 425 334 425 c 0
 292 425 265 402 252 376 c 0
 245 362 242 339 242 317 c 2
 242 80 l 2
 242 47 253 42 274 40 c 2
 295 38 l 1
 295 0 l 1
 26 0 l 1
 26 38 l 1
 83 41 91 45 91 87 c 2
 91 381 l 2
 91 421 83 430 67 432 c 2
 32 437 l 1
 32 473 l 1
 229 502 l 1
 242 433 l 1
 308 472 355 502 413 502 c 0
 516 502 563 442 564 348 c 2xee
507 706 m 1
 539 688 l 1
 521 645 486 566 404 566 c 0xee
 379 566 348 577 316 587 c 0
 284 598 251 608 221 608 c 0
 184 608 168 592 146 553 c 1
 114 571 l 1
 132 614 167 693 249 693 c 0xd6
 277 693 309 683 341 672 c 0
 374 662 406 651 432 651 c 0
 469 651 485 667 507 706 c 1
EndSplineSet
EndChar
StartChar: oacute
Encoding: 259 243 152
Width: 585
Flags: MW
HStem: -12 46<257.5 328 257.5 383.5> 456 46<257.5 328>
VStem: 34 159<178 312 178 325> 392 159<178 312>
LayerCount: 2
Fore
SplineSet
293 502 m 0
 474 502 551 405 551 245 c 0
 551 85 474 -12 293 -12 c 0
 111 -12 34 85 34 245 c 0
 34 405 111 502 293 502 c 0
193 245 m 0
 193 111 222 34 293 34 c 0
 363 34 392 111 392 245 c 0
 392 379 363 456 293 456 c 0
 222 456 193 379 193 245 c 0
223 511 m 1
 202 541 l 1
 347 690 l 2
 384 728 401 740 421 740 c 0
 445 740 474 705 474 680 c 0
 474 654 442 634 406 614 c 2
 223 511 l 1
EndSplineSet
EndChar
StartChar: ocircumflex
Encoding: 282 244 175
Width: 585
Flags: MW
HStem: -12 46<257.5 328 257.5 383.5> 456 46<257.5 328>
VStem: 34 159<178 312 178 325> 392 159<178 312>
LayerCount: 2
Fore
SplineSet
293 502 m 0
 474 502 551 405 551 245 c 0
 551 85 474 -12 293 -12 c 0
 111 -12 34 85 34 245 c 0
 34 405 111 502 293 502 c 0
193 245 m 0
 193 111 222 34 293 34 c 0
 363 34 392 111 392 245 c 0
 392 379 363 456 293 456 c 0
 222 456 193 379 193 245 c 0
480 547 m 1
 456 520 l 1
 331 614 l 2
 317 624 304 633 293 633 c 0
 283 633 269 624 255 614 c 2
 130 520 l 1
 106 547 l 1
 249 716 l 2
 264 734 279 747 293 747 c 0
 307 747 322 733 337 716 c 2
 480 547 l 1
EndSplineSet
EndChar
StartChar: otilde
Encoding: 288 245 181
Width: 585
Flags: W
HStem: -12 46<257.5 328 257.5 383.5> 456 46<257.5 328> 566 85<385 411> 608 85<174 202> 686 20G<473 473>
VStem: 34 159<178 312 178 325> 392 159<178 312>
LayerCount: 2
Fore
SplineSet
293 502 m 0xee
 474 502 551 405 551 245 c 0
 551 85 474 -12 293 -12 c 0
 111 -12 34 85 34 245 c 0
 34 405 111 502 293 502 c 0xee
193 245 m 0
 193 111 222 34 293 34 c 0
 363 34 392 111 392 245 c 0
 392 379 363 456 293 456 c 0
 222 456 193 379 193 245 c 0
473 706 m 1
 505 688 l 1
 487 645 452 566 370 566 c 0xee
 345 566 314 577 282 587 c 0
 250 598 217 608 187 608 c 0
 150 608 134 592 112 553 c 1
 80 571 l 1
 98 614 133 693 215 693 c 0xd6
 243 693 275 683 307 672 c 0
 340 662 372 651 398 651 c 0
 435 651 451 667 473 706 c 1
EndSplineSet
EndChar
StartChar: odieresis
Encoding: 261 246 154
Width: 585
Flags: W
HStem: -12 46<257.5 328 257.5 383.5> 456 46<257.5 328> 561 149<147.5 199 387.5 439>
VStem: 34 159<178 312 178 325> 94 158<616 654> 334 158<616 654> 392 159<178 312>
LayerCount: 2
Fore
SplineSet
293 502 m 0xde
 474 502 551 405 551 245 c 0
 551 85 474 -12 293 -12 c 0
 111 -12 34 85 34 245 c 0
 34 405 111 502 293 502 c 0xde
193 245 m 0
 193 111 222 34 293 34 c 0
 363 34 392 111 392 245 c 0
 392 379 363 456 293 456 c 0
 222 456 193 379 193 245 c 0
173 561 m 0xec
 122 561 94 597 94 635 c 0
 94 673 122 710 173 710 c 0
 225 710 252 673 252 635 c 0
 252 597 225 561 173 561 c 0xec
413 561 m 0
 362 561 334 597 334 635 c 0
 334 673 362 710 413 710 c 0
 465 710 492 673 492 635 c 0
 492 597 465 561 413 561 c 0
EndSplineSet
EndChar
StartChar: divide
Encoding: 298 247 191
Width: 600
Flags: MW
HStem: 6 140<280.5 320> 210 80<58 542 58 542> 354 140<280.5 320>
VStem: 232 138<57 76 57 95 405 424>
LayerCount: 2
Fore
SplineSet
300 354 m 0
 261 354 232 386 232 424 c 0
 232 462 261 494 300 494 c 0
 340 494 370 462 371 426 c 1
 370 424 l 1
 370 386 340 354 300 354 c 0
300 6 m 0
 261 6 232 38 232 76 c 0
 232 114 261 146 300 146 c 0
 340 146 370 114 371 78 c 1
 370 76 l 1
 370 38 340 6 300 6 c 0
58 210 m 1
 58 290 l 1
 542 290 l 1
 542 210 l 1
 58 210 l 1
EndSplineSet
EndChar
StartChar: oslash
Encoding: 249 248 146
Width: 585
Flags: MW
HStem: -12 46<275.5 330 275.5 383.5> 456 46<255.5 309.5>
VStem: 34 155<224.5 312 224.5 325> 396 155<178 267>
LayerCount: 2
Fore
SplineSet
198 139 m 1
 366 413 l 1
 349 441 326 456 293 456 c 0
 218 456 189 379 189 245 c 0
 189 204 192 168 198 139 c 1
386 358 m 1
 217 82 l 1
 233 50 258 34 293 34 c 0
 367 34 396 111 396 245 c 0
 396 289 393 326 386 358 c 1
480 511 m 1
 451 465 l 1
 520 423 551 347 551 245 c 0
 551 85 474 -12 293 -12 c 0
 246 -12 207 -5 172 8 c 1
 136 -51 l 1
 99 -23 l 1
 130 28 l 1
 64 70 34 145 34 245 c 0
 34 405 111 502 293 502 c 0
 338 502 377 496 409 484 c 1
 441 535 l 1
 480 511 l 1
EndSplineSet
EndChar
StartChar: ugrave
Encoding: 301 249 194
Width: 629
Flags: W
HStem: -12 79<191 339> 0 38<412 620> 476 20G<233 233 555 555> 482 20G<226 226 548 548>
VStem: 82 151<138 176 176 381 381 401> 404 151<56 87 170 381 381 401>
LayerCount: 2
Fore
SplineSet
412 0 m 1x5c
 404 56 l 1
 364 34 312 -12 227 -12 c 0
 155 -12 82 21 82 138 c 2
 82 381 l 2
 82 421 74 430 58 432 c 2
 23 437 l 1
 23 473 l 1
 226 502 l 1
 233 496 l 1
 233 176 l 2
 233 98 264 67 317 67 c 0
 361 67 387 91 396 114 c 0
 402 129 404 153 404 170 c 2
 404 381 l 2
 404 421 396 430 380 432 c 2
 345 437 l 1
 345 473 l 1
 548 502 l 1
 555 496 l 1xac
 555 87 l 2
 555 45 563 41 620 38 c 1
 620 0 l 1
 412 0 l 1x5c
377 541 m 1
 356 511 l 1
 173 614 l 2
 137 634 105 654 105 680 c 0
 105 705 134 740 158 740 c 0
 178 740 195 728 232 690 c 2
 377 541 l 1
EndSplineSet
EndChar
StartChar: ucircumflex
Encoding: 263 251 156
Width: 629
Flags: W
HStem: -12 79<191 339> 0 38<412 620> 476 20G<233 233 555 555> 482 20G<226 226 548 548>
VStem: 82 151<138 176 176 381 381 401> 404 151<56 87 170 381 381 401>
LayerCount: 2
Fore
SplineSet
412 0 m 1x5c
 404 56 l 1
 364 34 312 -12 227 -12 c 0
 155 -12 82 21 82 138 c 2
 82 381 l 2
 82 421 74 430 58 432 c 2
 23 437 l 1
 23 473 l 1
 226 502 l 1
 233 496 l 1
 233 176 l 2
 233 98 264 67 317 67 c 0
 361 67 387 91 396 114 c 0
 402 129 404 153 404 170 c 2
 404 381 l 2
 404 421 396 430 380 432 c 2
 345 437 l 1
 345 473 l 1
 548 502 l 1
 555 496 l 1xac
 555 87 l 2
 555 45 563 41 620 38 c 1
 620 0 l 1
 412 0 l 1x5c
502 547 m 1
 478 520 l 1
 353 614 l 2
 339 624 326 633 315 633 c 0
 305 633 291 624 277 614 c 2
 152 520 l 1
 128 547 l 1
 271 716 l 2
 286 734 301 747 315 747 c 0
 329 747 344 733 359 716 c 2
 502 547 l 1
EndSplineSet
EndChar
StartChar: udieresis
Encoding: 318 252 211
Width: 629
Flags: W
HStem: -12 79<191 339> 0 38<412 620> 476 20G<233 233 555 555> 482 20G<226 226 548 548> 561 149<169.5 221 409.5 461>
VStem: 82 151<138 176 176 381 381 401> 116 158<616 654> 356 158<616 654> 404 151<56 87 170 381 381 401>
LayerCount: 2
Fore
SplineSet
412 0 m 1x5c80
 404 56 l 1
 364 34 312 -12 227 -12 c 0
 155 -12 82 21 82 138 c 2
 82 381 l 2
 82 421 74 430 58 432 c 2
 23 437 l 1
 23 473 l 1
 226 502 l 1
 233 496 l 1
 233 176 l 2
 233 98 264 67 317 67 c 0
 361 67 387 91 396 114 c 0
 402 129 404 153 404 170 c 2
 404 381 l 2
 404 421 396 430 380 432 c 2
 345 437 l 1
 345 473 l 1
 548 502 l 1
 555 496 l 1xac80
 555 87 l 2
 555 45 563 41 620 38 c 1
 620 0 l 1
 412 0 l 1x5c80
195 561 m 0x5b
 144 561 116 597 116 635 c 0
 116 673 144 710 195 710 c 0
 247 710 274 673 274 635 c 0
 274 597 247 561 195 561 c 0x5b
435 561 m 0
 384 561 356 597 356 635 c 0
 356 673 384 710 435 710 c 0
 487 710 514 673 514 635 c 0
 514 597 487 561 435 561 c 0
EndSplineSet
EndChar
StartChar: yacute
Encoding: 278 253 171
Width: 524
Flags: W
HStem: -242 21G<114 167.5> -242 108<114 209> -242 144<114 124.5 100 167.5> 449 41
VStem: -12 227 356 201<452 490 452 490>
LayerCount: 2
Fore
SplineSet
356 490 m 1x9c
 557 490 l 1
 557 452 l 1
 536 450 l 2
 508 447 497 428 479 385 c 0
 420 242 360 95 302 -60 c 0
 248 -204 202 -242 133 -242 c 0
 95 -242 52 -218 52 -179 c 0
 52 -141 84 -98 116 -98 c 0x3c
 133 -98 142 -105 161 -119 c 0
 173 -129 186 -134 197 -134 c 0
 221 -134 230 -108 236 -85 c 0x5c
 241 -65 238 -39 230 -19 c 0
 177 119 117 267 59 406 c 0
 48 433 36 444 21 447 c 2
 -12 452 l 1
 -12 490 l 1
 268 490 l 1
 268 452 l 1
 230 446 l 2
 214 444 211 433 218 413 c 0
 249 319 286 226 319 134 c 1
 321 134 l 1
 352 228 384 321 412 416 c 0
 417 435 411 444 397 446 c 2
 356 452 l 1
 356 490 l 1x9c
237 511 m 1
 216 541 l 1
 361 690 l 2
 398 728 415 740 435 740 c 0
 459 740 488 705 488 680 c 0
 488 654 456 634 420 614 c 2
 237 511 l 1
EndSplineSet
EndChar
StartChar: thorn
Encoding: 276 254 169
Width: 609
Flags: W
HStem: -230 38<13 312 13 13> -12 46<294.5 350.5 290 382> 0 21G<229 229> 425 77<295 441> 675 20G<19 19>
VStem: 78 151<-143 0 142.5 152 152 310 433 601 601 621> 416 159<175 318>
LayerCount: 2
Fore
SplineSet
229 0 m 1xfe
 229 -143 l 2
 229 -185 239 -189 312 -192 c 1
 312 -230 l 1
 13 -230 l 1
 13 -192 l 1
 70 -189 78 -185 78 -143 c 2
 78 601 l 2
 78 641 70 650 54 653 c 2
 19 659 l 1
 19 695 l 1
 222 722 l 1
 229 716 l 1
 229 433 l 1
 278 470 324 502 394 502 c 0
 488 502 575 425 575 259 c 0
 575 38 456 -12 308 -12 c 0xde
 281 -12 246 -7 229 0 c 1xfe
229 310 m 2
 229 152 l 2
 229 133 230 116 233 101 c 0
 242 57 268 34 312 34 c 0
 389 34 416 113 416 237 c 0
 416 399 363 425 316 425 c 0
 274 425 249 402 236 365 c 0
 231 351 229 331 229 310 c 2
EndSplineSet
EndChar
StartChar: ydieresis
Encoding: 290 255 183
Width: 524
Flags: W
HStem: -242 21G<114 167.5> -242 108<114 209> -242 144<114 124.5 100 167.5> 449 41 561 149<136.5 188 376.5 428>
VStem: -12 227 83 158<616 654> 323 158<616 654> 356 201<452 490 452 490>
LayerCount: 2
Fore
SplineSet
356 490 m 1xdf80
 557 490 l 1
 557 452 l 1
 536 450 l 2
 508 447 497 428 479 385 c 0
 420 242 360 95 302 -60 c 0
 248 -204 202 -242 133 -242 c 0
 95 -242 52 -218 52 -179 c 0
 52 -141 84 -98 116 -98 c 0x3c80
 133 -98 142 -105 161 -119 c 0
 173 -129 186 -134 197 -134 c 0
 221 -134 230 -108 236 -85 c 0
 241 -65 238 -39 230 -19 c 0
 177 119 117 267 59 406 c 0
 48 433 36 444 21 447 c 2
 -12 452 l 1
 -12 490 l 1
 268 490 l 1
 268 452 l 1
 230 446 l 2
 214 444 211 433 218 413 c 0
 249 319 286 226 319 134 c 1
 321 134 l 1
 352 228 384 321 412 416 c 0
 417 435 411 444 397 446 c 2
 356 452 l 1
 356 490 l 1xdf80
162 561 m 0x9b
 111 561 83 597 83 635 c 0
 83 673 111 710 162 710 c 0
 214 710 241 673 241 635 c 0
 241 597 214 561 162 561 c 0x9b
402 561 m 0
 351 561 323 597 323 635 c 0
 323 673 351 710 402 710 c 0
 454 710 481 673 481 635 c 0
 481 597 454 561 402 561 c 0
EndSplineSet
EndChar
StartChar: dotlessi
Encoding: 245 305 144
Width: 316
Flags: W
HStem: 0 38<26 307 26 26> 476 20G<242 242> 482 20G<235 235>
VStem: 91 151<87 381 381 401>
LayerCount: 2
Fore
SplineSet
91 87 m 2xb0
 91 381 l 2
 91 421 83 430 67 432 c 2
 32 437 l 1
 32 473 l 1
 235 502 l 1
 242 496 l 1xd0
 242 87 l 2
 242 45 250 41 307 38 c 1
 307 0 l 1
 26 0 l 1
 26 38 l 1
 83 41 91 45 91 87 c 2xb0
EndSplineSet
EndChar
StartChar: Lslash
Encoding: 232 321 139
Width: 591
Flags: W
HStem: 0 38<39 578 39 39> 0 46<347 446 347 578> 654 38<39 369 39 369>
VStem: 118 160<97 119 119 241 241 241 301 356 416 595>
LayerCount: 2
Fore
SplineSet
421 459 m 1x70
 278 356 l 1
 278 119 l 2
 278 55 305 46 389 46 c 0
 503 46 516 101 552 201 c 1
 590 201 l 1
 578 0 l 1
 39 0 l 1x70
 39 38 l 1
 110 41 118 46 118 97 c 2xb0
 118 241 l 1
 30 178 l 1
 30 238 l 1
 118 301 l 1
 118 595 l 2
 118 646 110 651 39 654 c 1
 39 692 l 1
 369 692 l 1
 369 654 l 1
 286 651 278 646 278 595 c 2
 278 416 l 1
 421 519 l 1
 421 459 l 1x70
EndSplineSet
EndChar
StartChar: lslash
Encoding: 248 322 145
Width: 321
Flags: MW
HStem: 0 38<25 306 25 25> 722 20G<234 234>
VStem: 90 151<87 262 262 262 321 377 435 621 621 641>
LayerCount: 2
Fore
SplineSet
332 446 m 1
 241 377 l 1
 241 87 l 2
 241 45 249 41 306 38 c 1
 306 0 l 1
 25 0 l 1
 25 38 l 1
 82 41 90 45 90 87 c 2
 90 262 l 1
 16 206 l 1
 16 265 l 1
 90 321 l 1
 90 621 l 2
 90 661 82 670 66 673 c 2
 31 679 l 1
 31 715 l 1
 234 742 l 1
 241 736 l 1
 241 435 l 1
 332 504 l 1
 332 446 l 1
EndSplineSet
EndChar
StartChar: OE
Encoding: 234 338 141
Width: 1049
Flags: MW
HStem: 0 46<398 460 460 480 769 874> 337 52<692 787 692 787> 646 46<465 484.5 713 727 727 802>
VStem: 42 172<276.5 407> 532 160<93 119 119 337 389 595 595 610> 879 38<247 479 247 479> 954 38<507 692>
LayerCount: 2
Fore
SplineSet
532 93 m 2
 532 595 l 2
 532 639 510 646 459 646 c 0
 256 646 214 485 214 346 c 0
 214 207 266 46 461 46 c 0
 499 46 532 55 532 93 c 2
465 692 m 2
 992 692 l 1
 992 507 l 1
 954 507 l 1
 923 606 905 646 802 646 c 2
 727 646 l 2
 699 646 692 639 692 610 c 2
 692 389 l 1
 787 389 l 2
 850 389 863 406 879 479 c 1
 917 479 l 1
 917 247 l 1
 879 247 l 1
 863 320 850 337 787 337 c 2
 692 337 l 1
 692 119 l 2
 692 55 723 46 815 46 c 0
 933 46 950 101 986 208 c 1
 1024 208 l 1
 1012 0 l 1
 460 0 l 2
 336 0 240 14 166 65 c 0
 94 115 42 207 42 338 c 0
 42 476 93 569 166 622 c 0
 237 673 338 692 465 692 c 2
EndSplineSet
EndChar
StartChar: oe
Encoding: 250 339 147
Width: 866
Flags: W
HStem: -12 46<257.5 327.5> -12 77<621.5 683.5> 252 48<538 664 664 675.5 538 798 538 664> 456 46<257.5 328 594 654.5>
VStem: 34 159<178 312 178 325> 392 146<199.5 252 300 312> 695 157<319.5 321.5 278 356.5>
LayerCount: 2
Fore
SplineSet
193 245 m 0xbe
 193 111 222 34 293 34 c 0
 363 34 392 111 392 245 c 0
 392 379 363 456 293 456 c 0
 222 456 193 379 193 245 c 0xbe
798 252 m 2
 538 252 l 1
 538 147 570 65 673 65 c 0
 734 65 777 97 807 154 c 1x7e
 843 134 l 1
 809 46 742 -12 625 -12 c 0
 548 -12 496 13 462 51 c 1
 424 15 362 -12 293 -12 c 0
 111 -12 34 85 34 245 c 0
 34 405 111 502 293 502 c 0
 364 502 426 479 464 438 c 1
 504 474 561 502 627 502 c 0
 843 502 852 349 852 294 c 0
 852 262 834 252 798 252 c 2
538 300 m 1
 664 300 l 2
 687 300 695 306 695 333 c 0
 695 380 685 456 624 456 c 0
 557 456 538 374 538 300 c 1
EndSplineSet
EndChar
StartChar: Scaron
Encoding: 284 352 177
Width: 561
Flags: W
HStem: -15 46<240 273> 661 46<269 330.5 216 331> 736 105<275 286 275 287.5>
VStem: 51 144<521 561> 383 150<147 172> 451 36<499 499>
LayerCount: 2
Fore
SplineSet
487 499 m 1xd4
 451 499 l 1xd4
 423 616 363 661 299 661 c 0
 239 661 195 621 195 559 c 0
 195 483 278 447 344 420 c 0
 435 382 533 331 533 199 c 0
 533 95 473 -13 273 -15 c 0
 207 -15 108 0 57 47 c 1
 42 226 l 1
 79 226 l 1
 117 101 193 31 269 31 c 0
 334 31 382 66 383 140 c 0xd8
 383 204 341 249 250 287 c 0
 162 324 51 378 51 502 c 0
 51 620 132 707 300 707 c 0
 361 707 435 695 487 663 c 1
 487 499 l 1xd4
451 916 m 1xf4
 469 886 l 1
 327 759 l 2
 313 746 295 736 280 736 c 0
 266 736 251 745 235 760 c 2
 93 886 l 1
 112 916 l 1
 242 856 l 2
 256 849 270 841 280 841 c 0
 292 841 307 849 320 856 c 2
 451 916 l 1xf4
EndSplineSet
EndChar
StartChar: scaron
Encoding: 328 353 221
Width: 446
Flags: W
HStem: -12 46<191 243 188 280> 456 46<220.5 266.5>
VStem: 43 135<378 394.5> 290 135<97 119> 354 37<334 467>
LayerCount: 2
Fore
SplineSet
50 36 m 1xe8
 38 185 l 1
 76 185 l 1
 102 103 155 34 221 34 c 0
 265 34 290 57 290 95 c 0xf0
 290 143 241 172 190 190 c 0
 102 223 43 271 43 344 c 0
 43 445 119 502 241 502 c 0
 293 502 350 492 391 467 c 1
 391 334 l 1
 354 334 l 1xe8
 335 410 292 456 241 456 c 0
 200 456 178 429 178 398 c 0
 178 358 221 334 279 313 c 0
 371 278 425 237 425 151 c 0xf0
 425 43 341 -12 219 -12 c 0
 163 -12 88 1 50 36 c 1xe8
396 747 m 1
 420 720 l 1
 277 551 l 2
 262 534 247 520 233 520 c 0
 219 520 204 533 189 551 c 2
 46 720 l 1
 70 747 l 1
 195 653 l 2
 209 643 223 634 233 634 c 0
 244 634 257 643 271 653 c 2
 396 747 l 1
EndSplineSet
EndChar
StartChar: Ydieresis
Encoding: 279 376 172
Width: 617
Flags: W
HStem: 0 38<142 494 142 142> 651 41 732 149<181.5 233 433.5 485>
VStem: 128 158<787 825> 238 160<97 240 240 250 71.5 252.5> 380 158<787 825> 486 169
LayerCount: 2
Fore
SplineSet
-12 692 m 1xca
 304 692 l 1
 304 654 l 1
 250 648 l 2
 228 645 229 631 236 615 c 2
 359 342 l 1
 362 342 l 1
 402 432 455 540 481 608 c 0
 491 634 485 646 466 648 c 2
 414 654 l 1
 414 692 l 1
 655 692 l 1
 655 654 l 1
 601 648 584 640 561 600 c 0
 514 518 463 416 416 321 c 0
 405 298 398 278 398 250 c 2
 398 97 l 2
 398 46 406 41 494 38 c 1
 494 0 l 1
 142 0 l 1
 142 38 l 1
 230 41 238 46 238 97 c 2
 238 240 l 2
 238 265 227 289 217 309 c 2
 72 597 l 2
 49 643 40 650 -12 654 c 1
 -12 692 l 1xca
207 732 m 0xf4
 156 732 128 768 128 806 c 0
 128 844 156 881 207 881 c 0
 259 881 286 844 286 806 c 0
 286 768 259 732 207 732 c 0xf4
459 732 m 0
 408 732 380 768 380 806 c 0
 380 844 408 881 459 881 c 0
 511 881 538 844 538 806 c 0
 538 768 511 732 459 732 c 0
EndSplineSet
EndChar
StartChar: Zcaron
Encoding: 311 381 204
Width: 614
Flags: W
HStem: 0 46<196 357 357 431> 646 46<219 280 280 407> 651 20G<605 605> 736 105<320 331 320 332.5>
VStem: 58 38<496 692>
LayerCount: 2
Fore
SplineSet
606 209 m 1xc8
 594 0 l 1
 13 0 l 1
 0 22 l 1
 138 229 272 437 407 646 c 1
 280 646 l 2
 158 646 120 612 96 496 c 1
 58 496 l 1
 58 692 l 1
 592 692 l 1xd8
 605 671 l 1xa8
 468 463 331 256 196 46 c 1
 357 46 l 2
 505 46 530 97 568 209 c 1
 606 209 l 1xc8
496 916 m 1
 514 886 l 1
 372 759 l 2
 358 746 340 736 325 736 c 0
 311 736 296 745 280 760 c 2
 138 886 l 1
 157 916 l 1
 287 856 l 2
 301 849 315 841 325 841 c 0
 337 841 352 849 365 856 c 2
 496 916 l 1
EndSplineSet
EndChar
StartChar: zcaron
Encoding: 304 382 197
Width: 483
Flags: W
HStem: 0 46<187 284 284 336> 444 46<158.5 206 206 288> 470 20<43 476>
VStem: 43 39<322 490>
LayerCount: 2
Fore
SplineSet
82 322 m 1xd0
 43 322 l 1
 43 490 l 1
 465 490 l 1xd0
 476 470 l 1xb0
 378 329 281 187 187 46 c 1
 284 46 l 2
 388 46 413 77 442 180 c 1
 480 180 l 1
 468 0 l 1
 11 0 l 1
 -1 21 l 1
 97 162 194 303 288 444 c 1
 206 444 l 2
 111 444 102 405 82 322 c 1xd0
416 747 m 1
 440 720 l 1
 297 551 l 2
 282 534 267 520 253 520 c 0
 239 520 224 533 209 551 c 2
 66 720 l 1
 90 747 l 1
 215 653 l 2
 229 643 243 634 253 634 c 0
 264 634 277 643 291 653 c 2
 416 747 l 1
EndSplineSet
EndChar
StartChar: florin
Encoding: 166 402 100
Width: 560
Flags: MW
HStem: -135 46<106.5 114.5 106.5 151> 361 48<71 172 71 179 339 474> 645 46<385.5 399.5>
VStem: -40 602
LayerCount: 2
Fore
SplineSet
474 361 m 1
 331 361 l 1
 312 218 l 2
 275 -56 212 -135 90 -135 c 0
 2 -135 -40 -89 -40 -56 c 0
 -40 -23 -9 3 28 3 c 0
 46 3 57 -14 67 -34 c 0
 88 -76 102 -89 111 -89 c 0
 118 -89 123 -79 125 -59 c 2
 172 361 l 1
 71 361 l 1
 71 409 l 1
 179 409 l 1
 187 457 l 2
 201 537 235 691 411 691 c 0
 512 691 562 637 562 598 c 0
 564 556 522 537 492 537 c 0
 463 537 452 552 444 570 c 0
 418 630 406 645 393 645 c 0
 378 645 368 624 363 584 c 2
 339 409 l 1
 474 409 l 1
 474 361 l 1
EndSplineSet
EndChar
StartChar: circumflex
Encoding: 195 710 125
Width: 430
Flags: MW
HStem: 520 227<52 222 208 378>
VStem: 28 374<547 547>
LayerCount: 2
Fore
SplineSet
402 547 m 1
 378 520 l 1
 253 614 l 2
 239 624 226 633 215 633 c 0
 205 633 191 624 177 614 c 2
 52 520 l 1
 28 547 l 1
 171 716 l 2
 186 734 201 747 215 747 c 0
 229 747 244 733 259 716 c 2
 402 547 l 1
EndSplineSet
EndChar
StartChar: caron
Encoding: 207 711 135
Width: 430
Flags: MW
HStem: 520 227<52 222>
VStem: 28 374<720 720>
LayerCount: 2
Fore
SplineSet
378 747 m 1
 402 720 l 1
 259 551 l 2
 244 534 229 520 215 520 c 0
 201 520 186 533 171 551 c 2
 28 720 l 1
 52 747 l 1
 177 653 l 2
 191 643 205 634 215 634 c 0
 226 634 239 643 253 653 c 2
 378 747 l 1
EndSplineSet
EndChar
StartChar: breve
Encoding: 198 728 128
Width: 430
Flags: MW
HStem: 556 85<164 266 164 287>
VStem: 56 38<678 716> 336 39<681 716>
LayerCount: 2
Fore
SplineSet
216 556 m 0
 73 556 56 640 56 716 c 1
 94 716 l 1
 96 692 113 641 215 641 c 0
 317 641 334 692 336 716 c 1
 375 716 l 1
 375 646 358 556 216 556 c 0
EndSplineSet
EndChar
StartChar: dotaccent
Encoding: 199 729 129
Width: 430
Flags: MW
HStem: 561 149<189.5 241>
VStem: 136 158<616 654>
LayerCount: 2
Fore
SplineSet
215 561 m 0
 164 561 136 597 136 635 c 0
 136 673 164 710 215 710 c 0
 267 710 294 673 294 635 c 0
 294 597 267 561 215 561 c 0
EndSplineSet
EndChar
StartChar: ring
Encoding: 202 730 131
Width: 430
Flags: MW
HStem: 540 41<200.5 229 200.5 244.5> 721 41<200.5 229>
VStem: 96 67<628 674 628 692> 267 67<628 674>
LayerCount: 2
Fore
SplineSet
163 651 m 0
 163 605 186 581 215 581 c 0
 243 581 267 605 267 651 c 0
 267 697 243 721 215 721 c 0
 186 721 163 697 163 651 c 0
215 762 m 0
 274 762 334 733 334 651 c 0
 334 568 274 540 215 540 c 0
 156 540 96 568 96 651 c 0
 96 733 156 762 215 762 c 0
EndSplineSet
EndChar
StartChar: ogonek
Encoding: 206 731 134
Width: 430
Flags: MW
HStem: -246 54<168.5 268.5>
VStem: 105 96<-130 -123.5>
LayerCount: 2
Fore
SplineSet
226 0 m 1
 283 0 l 1
 229 -44 201 -90 201 -130 c 0
 202 -170 228 -192 261 -192 c 0
 276 -192 297 -187 310 -179 c 1
 325 -206 l 1
 288 -237 251 -246 220 -246 c 0
 117 -246 105 -182 105 -149 c 0
 105 -98 160 -35 226 0 c 1
EndSplineSet
EndChar
StartChar: tilde
Encoding: 196 732 126
Width: 430
Flags: W
HStem: 566 85<307 333> 608 85<96 124> 686 20G<395 395>
VStem: 2 425<571 688>
LayerCount: 2
Fore
SplineSet
395 706 m 1xb0
 427 688 l 1
 409 645 374 566 292 566 c 0xb0
 267 566 236 577 204 587 c 0
 172 598 139 608 109 608 c 0
 72 608 56 592 34 553 c 1
 2 571 l 1
 20 614 55 693 137 693 c 0x50
 165 693 197 683 229 672 c 0
 262 662 294 651 320 651 c 0
 357 651 373 667 395 706 c 1xb0
EndSplineSet
EndChar
StartChar: hungarumlaut
Encoding: 205 733 133
Width: 430
Flags: MW
HStem: 521 230<96 191.5 165.5 301>
VStem: 64 382<540 716>
LayerCount: 2
Fore
SplineSet
96 521 m 1
 64 540 l 1
 127 698 l 2
 139 728 152 751 179 751 c 0
 204 751 241 728 241 704 c 0
 241 687 230 666 205 638 c 2
 96 521 l 1
301 521 m 1
 269 540 l 1
 332 698 l 2
 344 728 357 751 384 751 c 0
 409 751 446 728 446 704 c 0
 446 687 435 666 410 638 c 2
 301 521 l 1
EndSplineSet
EndChar
StartChar: endash
Encoding: 177 8211 110
Width: 500
Flags: MW
HStem: 209 83<0 500 0 500>
VStem: 0 500<209 292 209 292>
LayerCount: 2
Fore
SplineSet
0 292 m 1
 500 292 l 1
 500 209 l 1
 0 209 l 1
 0 292 l 1
EndSplineSet
EndChar
StartChar: emdash
Encoding: 208 8212 136
Width: 1000
Flags: MW
HStem: 209 83<0 1000 0 1000>
VStem: 0 1000<209 292 209 292>
LayerCount: 2
Fore
SplineSet
0 292 m 1
 1000 292 l 1
 1000 209 l 1
 0 209 l 1
 0 292 l 1
EndSplineSet
EndChar
StartChar: quoteleft
Encoding: 96 8216 64
Width: 252
Flags: MW
HStem: 672 20G<212 212>
VStem: 40 116<472 594.5>
LayerCount: 2
Fore
SplineSet
184 719 m 1
 212 692 l 1
 179 656 156 617 156 572 c 0
 156 528 193 509 193 466 c 0
 193 431 170 399 125 399 c 0
 78 398 40 439 40 505 c 0
 40 590 122 669 184 719 c 1
EndSplineSet
EndChar
StartChar: quoteright
Encoding: 39 8217 7
Width: 252
Flags: MW
HStem: 687 20G<104.5 127>
VStem: 96 116<511.5 634>
LayerCount: 2
Fore
SplineSet
68 387 m 1
 40 414 l 1
 73 450 96 489 96 534 c 0
 96 578 59 597 59 640 c 0
 59 675 82 707 127 707 c 0
 174 708 212 667 212 601 c 0
 212 516 130 437 68 387 c 1
EndSplineSet
EndChar
StartChar: quotesinglbase
Encoding: 184 8218 116
Width: 252
Flags: MW
HStem: -153 320<68 127>
VStem: 96 116<-28.5 94>
LayerCount: 2
Fore
SplineSet
127 167 m 0
 174 168 212 127 212 61 c 0
 212 -24 130 -103 68 -153 c 1
 40 -126 l 1
 73 -90 96 -51 96 -6 c 0
 96 38 59 57 59 100 c 0
 59 135 82 167 127 167 c 0
EndSplineSet
EndChar
StartChar: quotedblleft
Encoding: 170 8220 104
Width: 473
Flags: MW
HStem: 672 20G<212 212 433 433>
VStem: 40 116<472 594.5> 261 116<472 594.5>
LayerCount: 2
Fore
SplineSet
184 719 m 1
 212 692 l 1
 179 656 156 617 156 572 c 0
 156 528 193 509 193 466 c 0
 193 431 170 399 125 399 c 0
 78 398 40 439 40 505 c 0
 40 590 122 669 184 719 c 1
405 719 m 1
 433 692 l 1
 400 656 377 617 377 572 c 0
 377 528 414 509 414 466 c 0
 414 431 391 399 346 399 c 0
 299 398 261 439 261 505 c 0
 261 590 343 669 405 719 c 1
EndSplineSet
EndChar
StartChar: quotedblright
Encoding: 186 8221 118
Width: 473
Flags: MW
HStem: 687 20G<104.5 127 325.5 348>
VStem: 96 116<511.5 634> 317 116<511.5 634>
LayerCount: 2
Fore
SplineSet
127 707 m 0
 174 708 212 667 212 601 c 0
 212 516 130 437 68 387 c 1
 40 414 l 1
 73 450 96 489 96 534 c 0
 96 578 59 597 59 640 c 0
 59 675 82 707 127 707 c 0
348 707 m 0
 395 708 433 667 433 601 c 0
 433 516 351 437 289 387 c 1
 261 414 l 1
 294 450 317 489 317 534 c 0
 317 578 280 597 280 640 c 0
 280 675 303 707 348 707 c 0
EndSplineSet
EndChar
StartChar: quotedblbase
Encoding: 185 8222 117
Width: 473
Flags: MW
HStem: -153 320<68 127 104.5 289>
VStem: 96 116<-28.5 94> 317 116<-28.5 94>
LayerCount: 2
Fore
SplineSet
127 167 m 0
 174 168 212 127 212 61 c 0
 212 -24 130 -103 68 -153 c 1
 40 -126 l 1
 73 -90 96 -51 96 -6 c 0
 96 38 59 57 59 100 c 0
 59 135 82 167 127 167 c 0
348 167 m 0
 395 168 433 127 433 61 c 0
 433 -24 351 -103 289 -153 c 1
 261 -126 l 1
 294 -90 317 -51 317 -6 c 0
 317 38 280 57 280 100 c 0
 280 135 303 167 348 167 c 0
EndSplineSet
EndChar
StartChar: dagger
Encoding: 178 8224 111
Width: 510
Flags: W
HStem: 407 92<58 83.5 427.5 453> 687 20G<227 283>
VStem: 187 136<641.5 671> 191 128<290 334.5>
LayerCount: 2
Fore
SplineSet
276 -125 m 1xd0
 234 -125 l 1
 222 32 191 264 191 316 c 0
 191 353 202 386 219 430 c 1xd0
 154 420 98 407 69 407 c 0
 47 407 35 416 35 453 c 0
 35 486 47 499 69 499 c 0
 98 499 154 486 219 476 c 1
 212 525 187 626 187 657 c 0
 187 685 199 707 255 707 c 0
 311 707 323 685 323 657 c 0
 323 626 298 525 291 476 c 1xe0
 357 486 413 499 442 499 c 0
 464 499 475 486 475 453 c 0
 475 416 464 407 442 407 c 0
 413 407 357 420 291 430 c 1
 308 386 319 353 319 316 c 0
 319 264 288 32 276 -125 c 1xd0
EndSplineSet
EndChar
StartChar: daggerdbl
Encoding: 179 8225 112
Width: 486
Flags: W
HStem: 107 88<60.5 83 403 425.5> 442 88<60.5 83 403 425.5> 687 20G
VStem: 176 134<-91.5 -61.5 649.5 679.5> 182 122<304 350>
LayerCount: 2
Fore
SplineSet
243 707 m 0xf8
 296 709 310 693 310 666 c 0
 310 633 285 551 277 510 c 1xf0
 346 517 390 530 416 530 c 0
 435 530 451 522 451 486 c 0
 451 450 435 442 416 442 c 0
 390 442 346 455 277 462 c 1
 287 422 304 373 304 327 c 0
 304 281 284 211 277 175 c 1xe8
 346 182 390 195 416 195 c 0
 435 195 451 187 451 151 c 0
 451 115 435 107 416 107 c 0
 390 107 346 120 277 127 c 1
 294 32 310 -45 310 -78 c 0
 310 -105 296 -121 243 -119 c 0
 190 -121 176 -105 176 -78 c 0
 176 -45 192 32 209 127 c 1xf0
 140 120 96 107 70 107 c 0
 51 107 35 115 35 151 c 0
 35 187 51 195 70 195 c 0
 96 195 140 182 209 175 c 1
 202 211 182 281 182 327 c 0
 182 373 199 422 209 462 c 1xe8
 140 455 96 442 70 442 c 0
 51 442 35 450 35 486 c 0
 35 522 51 530 70 530 c 0
 96 530 140 517 209 510 c 1
 201 551 176 633 176 666 c 0
 176 693 190 709 243 707 c 0xf8
EndSplineSet
EndChar
StartChar: bullet
Encoding: 183 8226 115
Width: 455
Flags: MW
HStem: 174 355<178.5 276.5>
VStem: 50 355<302.5 401 302.5 401>
LayerCount: 2
Fore
SplineSet
405 352 m 0
 405 253 325 174 228 174 c 0
 129 174 50 251 50 352 c 0
 50 450 127 529 228 529 c 0
 325 529 405 450 405 352 c 0
EndSplineSet
EndChar
StartChar: ellipsis
Encoding: 188 8230 120
Width: 1000
Flags: MW
HStem: -12 186<139.5 195 472.5 528 805.5 861>
VStem: 75 184<81 108 81 108> 408 184<81 108 81 108> 741 184<81 108 81 108>
LayerCount: 2
Fore
SplineSet
167 -12 m 0
 112 -12 75 26 75 81 c 0
 75 135 112 174 167 174 c 0
 223 174 259 135 259 81 c 0
 257 26 223 -12 167 -12 c 0
500 -12 m 0
 445 -12 408 26 408 81 c 0
 408 135 445 174 500 174 c 0
 556 174 592 135 592 81 c 0
 590 26 556 -12 500 -12 c 0
833 -12 m 0
 778 -12 741 26 741 81 c 0
 741 135 778 174 833 174 c 0
 889 174 925 135 925 81 c 0
 923 26 889 -12 833 -12 c 0
EndSplineSet
EndChar
StartChar: perthousand
Encoding: 189 8240 121
Width: 1289
Flags: W
HStem: -12 21G<613.5 729.5 1015.5 1131.5> -12 40<651.5 691.5 651.5 729.5 1053.5 1093.5> 308 40<196.5 236 196.5 268> 320 40<653 690 1055 1092> 590 43<382 526 526 555 382 564 378 526> 640 40<197.5 235> 648 20G<682 682> 681 20G<635 635>
VStem: 40 114<442 550 442 555.5> 278 114<442 516.5 432.5 550> 495 114<122 230 122 235.5> 733 114<122 230> 897 114<122 230 122 235.5> 1135 114<122 230>
LayerCount: 2
Fore
SplineSet
1074 320 m 0x54fc
 1036 320 1011 286 1011 174 c 0
 1011 70 1033 28 1074 28 c 0
 1113 28 1135 70 1135 174 c 0
 1135 286 1110 320 1074 320 c 0x54fc
1074 -12 m 0x500c
 957 -12 897 51 897 174 c 0
 897 297 957 360 1074 360 c 0
 1189 360 1249 297 1249 174 c 0
 1249 51 1189 -12 1074 -12 c 0x500c
672 320 m 0x5030
 634 320 609 286 609 174 c 0
 609 70 631 28 672 28 c 0
 711 28 733 70 733 174 c 0
 733 286 708 320 672 320 c 0x5030
672 -12 m 0x5030
 555 -12 495 51 495 174 c 0
 495 297 555 360 672 360 c 0
 787 360 847 297 847 174 c 0
 847 51 787 -12 672 -12 c 0x5030
635 701 m 1x0980
 682 668 l 1
 252 -31 l 1
 205 6 l 1
 564 590 l 1
 378 590 l 1x8a40
 385 567 392 539 392 494 c 0
 392 371 326 308 210 308 c 0
 100 308 40 371 40 494 c 0
 40 617 100 680 216 680 c 0x24c0
 273 680 303 666 337 646 c 0
 348 640 362 633 382 633 c 2
 526 633 l 2
 584 633 595 642 614 670 c 2
 635 701 l 1x0980
216 640 m 0x24c0
 179 640 154 606 154 494 c 0
 154 390 177 348 216 348 c 0
 256 348 278 390 278 494 c 0
 278 606 254 640 216 640 c 0x24c0
EndSplineSet
EndChar
StartChar: guilsinglleft
Encoding: 172 8249 106
Width: 287
Flags: MW
HStem: 37 427<223 223>
VStem: 40 129
LayerCount: 2
Fore
SplineSet
223 464 m 1
 252 443 l 1
 173 268 l 2
 168 257 167 246 173 232 c 2
 252 58 l 1
 223 37 l 1
 49 231 l 2
 36 245 38 257 49 270 c 2
 223 464 l 1
EndSplineSet
EndChar
StartChar: guilsinglright
Encoding: 173 8250 107
Width: 287
Flags: MW
HStem: 37 427<64 64>
VStem: 118 129
LayerCount: 2
Fore
SplineSet
35 443 m 1
 64 464 l 1
 238 270 l 2
 249 258 250 245 238 231 c 2
 64 37 l 1
 35 58 l 1
 114 232 l 2
 120 246 119 257 114 268 c 2
 35 443 l 1
EndSplineSet
EndChar
StartChar: fraction
Encoding: 164 8260 98
Width: 100
Flags: W
HStem: 647 20G<255 255> 675 20G<202 202>
VStem: -155 410
LayerCount: 2
Fore
SplineSet
-103 -27 m 1
 -155 4 l 1
 202 695 l 1x60
 255 667 l 1xe0
 -103 -27 l 1
EndSplineSet
EndChar
StartChar: trademark
Encoding: 280 8482 173
Width: 1090
Flags: W
HStem: 277 30 621 71<549 554 549 549 860 865 860 860> 658 34<123.5 146 146 174 292 292 292 320 493 493> 661.5 30.5
VStem: 38 26<574 692> 174 118<344 658> 402 26<574 692> 508 41<409 621> 865 111<343 621 621 621>
LayerCount: 2
Fore
SplineSet
174 344 m 2xaf80
 174 658 l 1
 146 658 l 2
 101 658 76 640 64 574 c 1
 38 574 l 1
 38 692 l 1
 428 692 l 1
 428 574 l 1
 402 574 l 1
 390 640 365 658 320 658 c 2
 292 658 l 1
 292 344 l 2
 292 323 294 314 309 312 c 2
 356 305 l 1
 356 277 l 1
 110 277 l 1
 110 305 l 1
 156 312 l 2
 171 314 174 323 174 344 c 2xaf80
976 631 m 2x9f80
 976 343 l 2
 976 321 978 312 998 309 c 2
 1028 305 l 1
 1028 277 l 1
 817 277 l 1
 817 305 l 1
 845 310 l 2
 864 314 865 321 865 343 c 2
 865 621 l 1
 860 621 l 1
 735 288 l 1
 683 288 l 1
 554 621 l 1
 549 621 l 1xcf80
 549 409 l 2
 549 334 551 312 574 309 c 2
 613 305 l 1
 613 277 l 1
 457 277 l 1
 457 305 l 1
 486 309 l 2
 507 312 508 334 508 409 c 2
 508 631 l 2
 508 647 506 655 493 658 c 2
 459 664 l 1
 459 692 l 1
 644 692 l 1
 659 650 674 608 690 566 c 2
 742 432 l 1
 747 432 l 1
 798 566 l 2
 813 608 829 650 844 692 c 1
 1028 692 l 1
 1028 664 l 1xaf80
 995 659 l 2
 979 656 976 647 976 631 c 2x9f80
EndSplineSet
EndChar
StartChar: minus
Encoding: 257 8722 150
Width: 600
Flags: MW
HStem: 210 80<58 542 58 542>
VStem: 58 484<210 290 210 290>
LayerCount: 2
Fore
SplineSet
58 210 m 1
 58 290 l 1
 542 290 l 1
 542 210 l 1
 58 210 l 1
EndSplineSet
EndChar
StartChar: fi
Encoding: 174 64257 108
Width: 639
Flags: W
HStem: 0 38<27 296 27 27> 440 50<29 92 29 92 243 343 343 375> 476 20G<565 565> 696 46<313.5 348.5>
VStem: 92 151<87 440 490 515 515 537> 414 151<80 87 87 389 389 411>
LayerCount: 2
Fore
SplineSet
92 440 m 1xdc
 29 440 l 1
 29 490 l 1
 92 490 l 1
 92 515 l 2
 92 652 164 742 342 742 c 0
 494 742 557 675 557 625 c 0
 557 584 517 560 476 560 c 0
 434 560 426 583 418 606 c 0
 394 674 365 696 332 696 c 0
 295 696 243 670 243 537 c 2
 243 490 l 1
 343 490 l 2xdc
 436 490 509 498 558 502 c 1
 565 496 l 1xbc
 565 87 l 2
 565 45 573 41 630 38 c 1
 630 0 l 1
 361 0 l 1
 361 38 l 1
 382 40 l 2
 403 42 414 47 414 80 c 2
 414 389 l 2
 414 433 406 440 375 440 c 2
 243 440 l 1
 243 80 l 2
 243 47 254 42 275 40 c 2
 296 38 l 1
 296 0 l 1
 27 0 l 1
 27 38 l 1
 84 41 92 45 92 87 c 2
 92 440 l 1xdc
EndSplineSet
Ligature2: "'liga' Standard Ligatures in Latin lookup 0 subtable" f i
EndChar
StartChar: fl
Encoding: 175 64258 109
Width: 639
Flags: MW
HStem: 0 38<27 296 27 27> 440 50<29 92 29 92 243 346> 696 46<312.5 359.5>
VStem: 92 151<87 440 490 519 519 546> 414 151<80 87 87 612 612 612>
LayerCount: 2
Fore
SplineSet
92 440 m 1
 29 440 l 1
 29 490 l 1
 92 490 l 1
 92 519 l 2
 92 660 173 742 331 742 c 0
 388 742 431 729 466 711 c 1
 558 742 l 1
 565 736 l 1
 565 87 l 2
 565 45 573 41 630 38 c 1
 630 0 l 1
 361 0 l 1
 361 38 l 1
 382 40 l 2
 403 42 414 47 414 80 c 2
 414 612 l 1
 408 645 386 696 333 696 c 0
 292 696 243 670 243 546 c 2
 243 490 l 1
 346 490 l 1
 346 440 l 1
 243 440 l 1
 243 80 l 2
 243 47 254 42 275 40 c 2
 296 38 l 1
 296 0 l 1
 27 0 l 1
 27 38 l 1
 84 41 92 45 92 87 c 2
 92 440 l 1
EndSplineSet
Ligature2: "'liga' Standard Ligatures in Latin lookup 0 subtable" f l
EndChar
